{
.appVersion = "3401";
.formatVersion = 3;
axes = (
{
name = Weight;
tag = wght;
}
);
classes = (
{
automatic = 1;
code = "A Aacute Abreve Acaron Acircumflex Adieresis Agrave Amacron Aogonek Aring Aringacute Atilde AE B C Cacute Ccaron Ccedilla Cdotaccent D Dcaron Dcroat Eth E Eacute Ecaron Ecircumflex Edieresis Edotaccent Egrave Emacron Eogonek F Fhook G Gbreve Gcommaaccent Gdotaccent H Hbar I IJ Iacute Icaron Icircumflex Idieresis Idotaccent Igrave Imacron Iogonek J K Kcommaaccent L Lacute Lcaron Lcommaaccent Ldot Lslash M N Nacute Ncaron Ncommaaccent Ntilde Eng O Oacute Ocaron Ocircumflex Odieresis Ograve Ohungarumlaut Omacron Oslash Otilde OE P Thorn Q R Racute Rcaron Rcommaaccent S Sacute Scaron Scedilla Scommaaccent Germandbls T Tbar Tcaron Tcedilla Tcommaaccent U Uacute Ubreve Ucaron Ucircumflex Udieresis Udieresisacute Udieresiscaron Udieresisgrave Udieresismacron Ugrave Uhungarumlaut Umacron Uogonek Uring Utilde V W Wacute Wcircumflex Wdieresis Wgrave X Y Yacute Ycircumflex Ydieresis Ygrave Ytilde Z Zacute Zcaron Zdotaccent J.ss01 Y.ss02";
name = Uppercase;
}
);
customParameters = (
{
name = fsType;
value = (
);
},
{
name = "Use Typo Metrics";
value = 1;
},
{
name = "Write lastChange";
value = 0;
},
{
name = "Use Line Breaks";
value = 1;
},
{
name = panose;
value = (
0,
0,
0,
0,
0,
0,
0,
0,
0,
0
);
},
{
name = "Axis Mappings";
value = {
wght = {
400 = 85;
500 = 102;
600 = 120;
700 = 155;
};
};
}
);
date = "2018-11-04 19:35:33 +0000";
familyName = Baskervville;
featurePrefixes = (
{
automatic = 1;
code = "languagesystem DFLT dflt;

languagesystem latn dflt;
languagesystem latn AZE;
languagesystem latn CRT;
languagesystem latn KAZ;
languagesystem latn TAT;
languagesystem latn TRK;
languagesystem latn ROM;
languagesystem latn MOL;
languagesystem latn CAT;
";
name = Languagesystems;
}
);
features = (
{
automatic = 1;
code = "feature locl;
feature subs;
feature sinf;
feature sups;
feature lnum;
feature onum;
feature case;
feature calt;
feature numr;

glyphs = (
{
color = 6;
glyphname = A;
kernLeft = A;
kernRight = A;
layers = (
{
anchors = (
{
name = bottom;
pos = (252,0);
},
{
name = ogonek;
pos = (570,0);
},
{
name = top;
pos = (514,710);
}
);
layerId = "9372F035-DA38-4B54-966C-CEBA9B53DD02";
shapes = (
{
closed = 1;
nodes = (
(53,0,l),
(171,-3,l),
(179,22,l),
(160,24,ls),
(90,30,o),
(78,54,o),
(117,111,cs),
(496,659,l),
(448,621,l),
(448,116,ls),
(448,54,o),
(425,31,o),
(355,24,cs),
(334,22,l),
(326,-3,l),
(471,0,l),
(616,-3,l),
(624,22,l),
(605,24,ls),
(544,31,o),
(530,47,o),
(530,114,cs),
(530,710,l),
(508,724,l),
(84,112,ls),
(43,52,o),
(11,29,o),
(-41,24,cs),
(-62,22,l),
(-70,-3,l)
);
},
{
closed = 1;
nodes = (
(467,258,l),
(479,284,l),
(219,284,l),
(200,258,l)
);
}
);
width = 662;
},
{
anchors = (
{
name = bottom;
pos = (277,0);
},
{
name = ogonek;
pos = (620,0);
},
{
name = top;
pos = (549,710);
}
);
layerId = m002;
shapes = (
{
closed = 1;
nodes = (
(47,-1,l),
(176,-3,l),
(188,37,l),
(159,39,ls),
(108,43,o),
(107,89,o),
(156,160,cs),
(487,635,l),
(465,635,l),
(461,123,ls),
(461,73,o),
(439,43,o),
(398,39,cs),
(377,37,l),
(364,-3,l),
(519,0,l),
(661,-3,l),
(674,37,l),
(655,39,ls),
(621,43,o),
(610,58,o),
(610,103,cs),
(610,712,l),
(491,724,l),
(92,153,ls),
(31,65,o),
(6,44,o),
(-46,38,cs),
(-55,37,l),
(-68,-3,l)
);
},
{
closed = 1;
nodes = (
(505,233,l),
(508,287,l),
(222,287,l),
(192,233,l)
);
}
);
width = 729;
}
);
unicode = 65;
},
{
color = 6;
glyphname = Aogonek;
kernLeft = A;
kernRight = A;
layers = (
{
anchors = (
{
name = top;
pos = (514,710);
}
);
layerId = "9372F035-DA38-4B54-966C-CEBA9B53DD02";
shapes = (
{
closed = 1;
nodes = (
(467,258,l),
(479,284,l),
(219,284,l),
(200,258,l)
);
},
{
closed = 1;
nodes = (
(263,-93,o),
(224,-138,o),
(224,-197,cs),
(224,-255,o),
(262,-293,o),
(319,-293,cs),
(379,-293,o),
(437,-250,o),
(470,-183,c),
(455,-170,l),
(427,-213,o),
(389,-237,o),
(349,-237,cs),
(309,-237,o),
(284,-213,o),
(284,-174,cs),
(284,-90,o),
(395,0,o),
(500,0,cs),
(616,-3,l),
(624,22,l),
(605,24,ls),
(544,31,o),
(530,47,o),
(530,114,cs),
(530,710,l),
(508,724,l),
(84,112,ls),
(43,52,o),
(11,29,o),
(-41,24,cs),
(-62,22,l),
(-70,-3,l),
(53,0,l),
(171,-3,l),
(179,22,l),
(160,24,ls),
(90,30,o),
(78,54,o),
(117,111,cs),
(496,659,l),
(448,621,l),
(448,116,ls),
(448,46,o),
(439,27,o),
(391,-6,cs)
);
}
);
width = 662;
},
{
anchors = (
{
name = top;
pos = (538,710);
}
);
layerId = m002;
shapes = (
{
closed = 1;
nodes = (
(505,233,l),
(508,287,l),
(222,287,l),
(192,233,l)
);
},
{
closed = 1;
nodes = (
(300,-94,o),
(259,-146,o),
(259,-199,cs),
(259,-256,o),
(299,-293,o),
(363,-293,cs),
(430,-293,o),
(490,-251,o),
(524,-179,c),
(502,-161,l),
(477,-199,o),
(451,-217,o),
(421,-217,cs),
(387,-217,o),
(365,-193,o),
(365,-156,cs),
(365,-75,o),
(458,3,o),
(550,0,cs),
(661,-3,l),
(674,37,l),
(655,39,ls),
(621,43,o),
(610,58,o),
(610,103,cs),
(610,712,l),
(491,724,l),
(92,153,ls),
(31,65,o),
(6,44,o),
(-46,38,cs),
(-55,37,l),
(-68,-3,l),
(47,-1,l),
(176,-3,l),
(188,37,l),
(159,39,ls),
(108,43,o),
(107,89,o),
(156,160,cs),
(487,635,l),
(465,635,l),
(460,85,ls),
(460,31,o),
(448,10,o),
(398,-25,cs)
);
}
);
width = 729;
}
);
unicode = 260;
},
{
color = 6;
glyphname = AE;
kernLeft = A;
kernRight = E;
layers = (
{
anchors = (
{
name = bottom;
pos = (385,0);
},
{
name = top;
pos = (615,710);
}
);
layerId = "9372F035-DA38-4B54-966C-CEBA9B53DD02";
shapes = (
{
closed = 1;
nodes = (
(53,0,l),
(171,-3,l),
(180,22,l),
(161,24,ls),
(114,30,o),
(95,40,o),
(95,61,cs),
(95,73,o),
(102,89,o),
(117,111,cs),
(491,658,l),
(473,663,l),
(466,116,ls),
(465,54,o),
(441,31,o),
(370,24,cs),
(349,22,l),
(340,-3,l),
(485,0,l),
(852,0,l),
(876,74,l),
(926,210,l),
(900,210,l),
(840,72,o),
(785,25,o),
(683,25,cs),
(622,25,ls),
(562,25,o),
(549,41,o),
(549,114,cs),
(549,685,l),
(771,685,ls),
(854,685,o),
(895,632,o),
(895,526,c),
(921,526,l),
(924,709,l),
(495,710,l),
(81,112,ls),
(34,44,o),
(13,29,o),
(-40,24,cs),
(-61,22,l),
(-70,-3,l)
);
},
{
closed = 1;
nodes = (
(482,258,l),
(495,284,l),
(218,284,l),
(205,258,l)
);
},
{
closed = 1;
nodes = (
(691,226,l),
(732,371,l),
(781,508,l),
(755,508,l),
(720,414,o),
(697,388,o),
(646,388,cs),
(533,388,l),
(525,362,l),
(638,362,ls),
(684,362,o),
(694,314,o),
(665,226,c)
);
}
);
width = 951;
},
{
anchors = (
{
name = bottom;
pos = (409,0);
},
{
name = top;
pos = (639,710);
}
);
layerId = m002;
shapes = (
{
closed = 1;
nodes = (
(47,-1,l),
(176,-3,l),
(188,37,l),
(159,39,ls),
(133,41,o),
(119,54,o),
(119,76,cs),
(119,95,o),
(133,127,o),
(156,160,cs),
(497,650,l),
(461,661,l),
(461,123,ls),
(461,73,o),
(439,43,o),
(398,39,cs),
(377,37,l),
(364,-3,l),
(519,0,l),
(939,0,l),
(965,85,l),
(1012,230,l),
(972,230,l),
(916,96,o),
(847,44,o),
(724,44,cs),
(676,44,ls),
(625,44,o),
(608,62,o),
(608,113,cs),
(608,666,l),
(753,666,ls),
(872,666,o),
(934,612,o),
(934,508,c),
(974,508,l),
(971,710,l),
(481,710,l),
(92,153,ls),
(30,64,o),
(5,44,o),
(-46,38,cs),
(-55,37,l),
(-68,-3,l)
);
},
{
closed = 1;
nodes = (
(505,233,l),
(508,287,l),
(222,287,l),
(192,233,l)
);
},
{
closed = 1;
nodes = (
(768,226,l),
(811,374,l),
(859,508,l),
(820,508,l),
(785,426,o),
(744,396,o),
(668,396,cs),
(580,396,l),
(566,352,l),
(654,352,ls),
(731,352,o),
(754,313,o),
(728,226,c)
);
}
);
width = 1041;
}
);
metricLeft = A;
metricRight = E;
unicode = 198;
},
{
color = 6;
glyphname = B;
kernLeft = I;
kernRight = B;
layers = (
{
anchors = (
{
name = bottom;
pos = (246,0);
},
{
name = top;
pos = (480,710);
}
);
layerId = "9372F035-DA38-4B54-966C-CEBA9B53DD02";
shapes = (
{
closed = 1;
nodes = (
(119,0,l),
(270,0,ls),
(472,0,o),
(611,91,o),
(611,223,cs),
(611,317,o),
(541,376,o),
(419,385,c),
(425,376,l),
(569,393,o),
(660,472,o),
(653,574,cs),
(646,666,o),
(563,713,o),
(411,711,cs),
(349,710,l),
(204,713,l),
(196,688,l),
(215,686,ls),
(290,678,o),
(299,668,o),
(282,616,cs),
(119,124,ls),
(96,54,o),
(67,30,o),
(-1,24,cs),
(-22,22,l),
(-30,-3,l)
);
},
{
closed = 1;
nodes = (
(192,26,o),
(172,48,o),
(191,106,cs),
(387,699,l),
(351,685,l),
(391,685,ls),
(507,685,o),
(561,652,o),
(569,577,cs),
(580,475,o),
(498,397,o),
(379,397,cs),
(280,397,l),
(272,372,l),
(368,372,ls),
(475,372,o),
(527,329,o),
(527,241,cs),
(527,115,o),
(419,26,o),
(266,26,cs)
);
}
);
width = 658;
},
{
anchors = (
{
name = bottom;
pos = (273,0);
},
{
name = top;
pos = (484,710);
}
);
layerId = m002;
shapes = (
{
closed = 1;
nodes = (
(124,0,l),
(317,0,ls),
(534,0,o),
(681,88,o),
(681,218,cs),
(681,322,o),
(590,384,o),
(435,384,c),
(424,357,l),
(618,357,o),
(747,435,o),
(747,551,cs),
(747,649,o),
(655,710,o),
(507,710,cs),
(349,710,l),
(192,713,l),
(179,673,l),
(198,671,ls),
(250,666,o),
(256,649,o),
(233,577,cs),
(89,133,ls),
(66,61,o),
(49,45,o),
(-7,40,cs),
(-28,38,l),
(-41,-3,l)
);
},
{
closed = 1;
nodes = (
(237,50,o),
(223,70,o),
(244,133,cs),
(424,691,l),
(352,660,l),
(487,660,ls),
(547,660,o),
(578,628,o),
(578,568,cs),
(578,473,o),
(500,396,o),
(405,396,cs),
(294,396,l),
(278,346,l),
(385,346,ls),
(473,346,o),
(512,313,o),
(512,239,cs),
(512,128,o),
(424,50,o),
(300,50,cs)
);
}
);
width = 719;
}
);
metricLeft = I;
unicode = 66;
},
{
color = 6;
glyphname = C;
kernLeft = O;
kernRight = C;
layers = (
{
anchors = (
{
name = bottom;
pos = (324,0);
},
{
name = top;
pos = (528,710);
}
);
layerId = "9372F035-DA38-4B54-966C-CEBA9B53DD02";
shapes = (
{
closed = 1;
nodes = (
(374,-11,o),
(428,2,o),
(485,29,cs),
(519,45,o),
(516,44,o),
(522,44,cs),
(534,44,o),
(538,31,o),
(534,0,c),
(560,0,l),
(588,106,l),
(638,247,l),
(612,247,l),
(558,119,o),
(435,20,o),
(330,20,cs),
(231,20,o),
(168,108,o),
(168,245,cs),
(168,471,o),
(342,694,o),
(518,694,cs),
(626,694,o),
(684,610,o),
(663,485,c),
(689,485,l),
(724,594,l),
(762,697,l),
(738,697,l),
(731,676,o),
(717,663,o),
(701,663,cs),
(692,663,o),
(687,665,o),
(659,682,cs),
(610,711,o),
(566,724,o),
(514,724,cs),
(292,724,o),
(79,488,o),
(79,241,cs),
(79,83,o),
(168,-11,o),
(318,-11,cs)
);
}
);
width = 694;
},
{
anchors = (
{
name = bottom;
pos = (347,0);
},
{
name = top;
pos = (534,710);
}
);
layerId = m002;
shapes = (
{
closed = 1;
nodes = (
(397,-14,o),
(444,-5,o),
(497,16,cs),
(520,25,o),
(528,27,o),
(537,27,cs),
(552,27,o),
(557,19,o),
(557,-3,c),
(590,-3,l),
(627,115,l),
(674,247,l),
(633,247,l),
(571,122,o),
(463,36,o),
(367,36,cs),
(284,36,o),
(238,101,o),
(238,218,cs),
(238,438,o),
(397,674,o),
(545,674,cs),
(627,674,o),
(669,603,o),
(669,465,c),
(709,465,l),
(749,592,l),
(793,710,l),
(752,710,l),
(742,689,o),
(731,680,o),
(713,680,cs),
(700,680,o),
(686,684,o),
(651,698,cs),
(603,718,o),
(573,724,o),
(530,724,cs),
(292,724,o),
(70,495,o),
(70,250,cs),
(70,85,o),
(172,-14,o),
(344,-14,cs)
);
}
);
width = 716;
}
);
metricLeft = O;
unicode = 67;
},
{
color = 6;
glyphname = D;
kernLeft = I;
kernRight = O;
layers = (
{
anchors = (
{
name = bottom;
pos = (287,0);
},
{
name = center;
pos = (297,367);
},
{
name = top;
pos = (515,710);
}
);
layerId = "9372F035-DA38-4B54-966C-CEBA9B53DD02";
shapes = (
{
closed = 1;
nodes = (
(119,0,l),
(304,0,ls),
(587,0,o),
(820,208,o),
(807,450,cs),
(797,626,o),
(667,721,o),
(447,713,cs),
(364,710,l),
(217,713,l),
(209,688,l),
(228,686,ls),
(300,679,o),
(310,668,o),
(293,617,cs),
(110,88,ls),
(94,41,o),
(76,31,o),
(-1,24,cs),
(-22,22,l),
(-30,-3,l)
);
},
{
closed = 1;
nodes = (
(196,26,o),
(179,55,o),
(206,133,cs),
(400,696,l),
(365,682,l),
(431,684,ls),
(616,689,o),
(714,611,o),
(717,453,cs),
(721,221,o),
(533,26,o),
(304,26,cs),
(270,26,ls)
);
}
);
width = 808;
},
{
anchors = (
{
name = bottom;
pos = (298,0);
},
{
name = center;
pos = (279,367);
},
{
name = top;
pos = (529,710);
}
);
layerId = m002;
shapes = (
{
closed = 1;
nodes = (
(120,0,l),
(309,0,ls),
(581,0,o),
(811,200,o),
(811,436,cs),
(811,609,o),
(675,716,o),
(462,712,cs),
(369,710,l),
(191,713,l),
(178,673,l),
(207,671,ls),
(258,668,o),
(265,648,o),
(241,577,cs),
(91,133,ls),
(66,61,o),
(51,45,o),
(-3,40,cs),
(-23,38,l),
(-36,-3,l)
);
},
{
closed = 1;
nodes = (
(239,50,o),
(229,82,o),
(253,153,cs),
(430,679,l),
(361,660,l),
(456,660,ls),
(577,660,o),
(647,588,o),
(647,463,cs),
(647,259,o),
(481,50,o),
(319,50,cs),
(287,50,l)
);
}
);
width = 800;
}
);
metricLeft = I;
metricRight = O;
unicode = 68;
},
{
color = 3;
glyphname = Eth;
kernLeft = I;
kernRight = D;
layers = (
{
layerId = "9372F035-DA38-4B54-966C-CEBA9B53DD02";
shapes = (
{
ref = D;
},
{
closed = 1;
nodes = (
(486,353,l),
(496,382,l),
(111,382,l),
(101,353,l)
);
}
);
width = 808;
},
{
layerId = m002;
shapes = (
{
ref = D;
},
{
closed = 1;
nodes = (
(483,342,l),
(500,392,l),
(86,392,l),
(69,342,l)
);
}
);
width = 799;
}
);
unicode = 208;
},
{
color = 6;
glyphname = E;
kernLeft = I;
kernRight = E;
layers = (
{
anchors = (
{
name = bottom;
pos = (315,0);
},
{
name = ogonek;
pos = (595,0);
},
{
name = top;
pos = (496,710);
}
);
layerId = "9372F035-DA38-4B54-966C-CEBA9B53DD02";
shapes = (
{
closed = 1;
nodes = (
(119,0,l),
(595,0,l),
(617,74,l),
(662,210,l),
(636,210,l),
(581,73,o),
(528,26,o),
(426,25,cs),
(288,24,ls),
(200,23,o),
(179,62,o),
(213,165,cs),
(384,685,l),
(535,685,ls),
(618,685,o),
(661,632,o),
(665,527,c),
(691,527,l),
(688,710,l),
(351,710,l),
(204,713,l),
(196,688,l),
(215,686,ls),
(289,679,o),
(298,669,o),
(281,617,cs),
(106,81,ls),
(94,42,o),
(74,31,o),
(-1,24,cs),
(-22,22,l),
(-30,-3,l)
);
},
{
closed = 1;
nodes = (
(472,226,l),
(513,371,l),
(562,508,l),
(536,508,l),
(501,414,o),
(478,388,o),
(427,388,cs),
(254,388,l),
(246,362,l),
(419,362,ls),
(465,362,o),
(475,314,o),
(446,226,c)
);
}
);
width = 688;
},
{
anchors = (
{
name = bottom;
pos = (321,0);
},
{
name = ogonek;
pos = (605,0);
},
{
name = top;
pos = (496,710);
}
);
layerId = m002;
shapes = (
{
closed = 1;
nodes = (
(129,0,l),
(605,0,l),
(631,85,l),
(678,230,l),
(638,230,l),
(582,96,o),
(513,44,o),
(390,44,cs),
(332,44,ls),
(250,44,o),
(232,64,o),
(254,133,cs),
(424,666,l),
(496,666,ls),
(612,666,o),
(667,615,o),
(667,508,c),
(707,508,l),
(704,710,l),
(355,710,l),
(191,713,l),
(178,673,l),
(207,671,ls),
(257,668,o),
(264,650,o),
(241,577,cs),
(100,133,ls),
(78,62,o),
(61,45,o),
(6,40,cs),
(-14,38,l),
(-27,-3,l)
);
},
{
closed = 1;
nodes = (
(481,226,l),
(524,374,l),
(572,508,l),
(533,508,l),
(498,426,o),
(457,396,o),
(381,396,cs),
(293,396,l),
(279,352,l),
(367,352,ls),
(444,352,o),
(467,313,o),
(441,226,c)
);
}
);
width = 707;
}
);
metricLeft = I;
unicode = 69;
},
{
color = 6;
glyphname = F;
kernLeft = I;
kernRight = F;
layers = (
{
anchors = (
{
name = bottom;
pos = (230,0);
},
{
name = top;
pos = (464,710);
}
);
layerId = "9372F035-DA38-4B54-966C-CEBA9B53DD02";
shapes = (
{
closed = 1;
nodes = (
(116,0,l),
(285,-3,l),
(294,22,l),
(275,24,ls),
(215,30,o),
(165,25,o),
(185,87,cs),
(381,685,l),
(525,685,ls),
(621,685,o),
(653,615,o),
(655,526,c),
(681,526,l),
(675,709,l),
(349,710,l),
(202,713,l),
(194,688,l),
(213,686,ls),
(262,681,o),
(298,676,o),
(283,631,cs),
(109,100,ls),
(87,33,o),
(62,30,o),
(1,24,cs),
(-20,22,l),
(-29,-3,l)
);
},
{
closed = 1;
nodes = (
(451,196,l),
(492,341,l),
(541,478,l),
(515,478,l),
(476,369,o),
(449,358,o),
(406,358,cs),
(243,358,l),
(235,332,l),
(398,332,ls),
(463,332,o),
(442,248,o),
(425,196,c)
);
}
);
width = 590;
},
{
anchors = (
{
name = bottom;
pos = (253,0);
},
{
name = top;
pos = (483,710);
}
);
layerId = m002;
shapes = (
{
closed = 1;
nodes = (
(129,0,l),
(336,-3,l),
(349,38,l),
(309,39,ls),
(241,42,o),
(229,56,o),
(254,133,cs),
(424,666,l),
(485,666,ls),
(601,666,o),
(656,618,o),
(656,507,c),
(696,507,l),
(703,710,l),
(355,710,l),
(191,713,l),
(178,673,l),
(207,671,ls),
(255,668,o),
(265,653,o),
(241,577,cs),
(100,133,ls),
(76,57,o),
(57,45,o),
(6,40,cs),
(-14,38,l),
(-27,-3,l)
);
},
{
closed = 1;
nodes = (
(467,196,l),
(510,344,l),
(558,478,l),
(519,478,l),
(480,386,o),
(434,366,o),
(367,366,cs),
(279,366,l),
(265,322,l),
(353,322,ls),
(427,322,o),
(454,287,o),
(427,196,c)
);
}
);
width = 630;
}
);
metricLeft = I;
unicode = 70;
},
{
color = 6;
glyphname = Fhook;
kernRight = F;
layers = (
{
layerId = "9372F035-DA38-4B54-966C-CEBA9B53DD02";
shapes = (
{
closed = 1;
nodes = (
(23,-294,o),
(73,-249,o),
(112,-131,cs),
(380,685,l),
(524,685,ls),
(607,685,o),
(652,631,o),
(654,526,c),
(680,526,l),
(674,709,l),
(348,710,l),
(201,713,l),
(193,688,l),
(212,686,ls),
(281,679,o),
(295,669,o),
(282,631,cs),
(33,-128,ls),
(-1,-232,o),
(-26,-272,o),
(-54,-272,cs),
(-98,-272,o),
(-75,-174,o),
(-134,-174,cs),
(-160,-174,o),
(-183,-192,o),
(-183,-223,cs),
(-183,-257,o),
(-155,-294,o),
(-69,-294,cs)
);
},
{
closed = 1;
nodes = (
(450,196,l),
(489,341,l),
(540,478,l),
(514,478,l),
(475,369,o),
(448,358,o),
(405,358,cs),
(242,358,l),
(234,332,l),
(397,332,ls),
(462,332,o),
(441,248,o),
(424,196,c)
);
}
);
width = 589;
},
{
layerId = m002;
shapes = (
{
closed = 1;
nodes = (
(48,-294,o),
(127,-240,o),
(167,-117,cs),
(422,666,l),
(483,666,ls),
(601,666,o),
(654,616,o),
(654,507,c),
(694,507,l),
(701,710,l),
(353,710,l),
(189,713,l),
(176,673,l),
(205,671,ls),
(257,668,o),
(264,648,o),
(241,577,cs),
(21,-103,ls),
(-18,-224,o),
(-37,-258,o),
(-65,-258,cs),
(-121,-258,o),
(-42,-130,o),
(-150,-130,cs),
(-204,-130,o),
(-234,-162,o),
(-234,-201,cs),
(-234,-254,o),
(-185,-294,o),
(-90,-294,cs)
);
},
{
closed = 1;
nodes = (
(465,196,l),
(508,344,l),
(556,478,l),
(517,478,l),
(478,386,o),
(432,366,o),
(365,366,cs),
(277,366,l),
(263,322,l),
(351,322,ls),
(425,322,o),
(452,287,o),
(425,196,c)
);
}
);
width = 628;
}
);
metricRight = F;
unicode = 401;
},
{
color = 6;
glyphname = G;
kernLeft = O;
kernRight = G;
layers = (
{
anchors = (
{
name = bottom;
pos = (334,0);
},
{
name = top;
pos = (525,710);
}
);
layerId = "9372F035-DA38-4B54-966C-CEBA9B53DD02";
shapes = (
{
closed = 1;
nodes = (
(391,-14,o),
(450,3,o),
(514,40,cs),
(557,65,o),
(565,68,o),
(580,68,cs),
(595,68,o),
(606,60,o),
(628,32,c),
(653,58,l),
(631,89,o),
(629,109,o),
(644,154,cs),
(662,208,ls),
(672,238,o),
(695,258,o),
(725,261,cs),
(762,265,l),
(769,290,l),
(638,286,l),
(499,290,l),
(492,264,l),
(524,261,ls),
(578,256,o),
(591,237,o),
(574,187,cs),
(564,158,ls),
(537,80,o),
(440,16,o),
(346,16,cs),
(236,16,o),
(169,103,o),
(169,244,cs),
(169,471,o),
(342,694,o),
(518,694,cs),
(626,694,o),
(686,609,o),
(665,485,c),
(691,485,l),
(726,594,l),
(764,697,l),
(740,697,l),
(733,676,o),
(719,663,o),
(703,663,cs),
(694,663,o),
(689,665,o),
(661,682,cs),
(613,711,o),
(567,724,o),
(515,724,cs),
(290,724,o),
(80,492,o),
(80,243,cs),
(80,80,o),
(171,-14,o),
(327,-14,cs)
);
}
);
width = 756;
},
{
anchors = (
{
name = bottom;
pos = (353,0);
},
{
name = top;
pos = (535,710);
}
);
layerId = m002;
shapes = (
{
closed = 1;
nodes = (
(398,-14,o),
(437,-3,o),
(503,31,cs),
(550,56,o),
(564,61,o),
(584,61,cs),
(612,61,o),
(632,48,o),
(644,21,c),
(685,45,l),
(674,103,o),
(674,134,o),
(684,169,cs),
(686,176,ls),
(700,227,o),
(733,254,o),
(787,260,cs),
(813,263,l),
(826,303,l),
(650,299,l),
(466,303,l),
(453,263,l),
(504,259,ls),
(551,255,o),
(561,233,o),
(542,172,cs),
(535,149,ls),
(515,84,o),
(445,36,o),
(370,36,cs),
(285,36,o),
(239,101,o),
(239,218,cs),
(239,437,o),
(397,674,o),
(544,674,cs),
(626,674,o),
(668,603,o),
(668,465,c),
(708,465,l),
(748,592,l),
(791,710,l),
(751,710,l),
(741,689,o),
(730,680,o),
(712,680,cs),
(699,680,o),
(685,684,o),
(650,698,cs),
(600,718,o),
(573,724,o),
(532,724,cs),
(294,724,o),
(71,495,o),
(71,253,cs),
(71,89,o),
(176,-14,o),
(341,-14,cs)
);
}
);
width = 798;
}
);
metricLeft = O;
unicode = 71;
},
{
color = 6;
glyphname = H;
kernLeft = I;
kernRight = I;
layers = (
{
anchors = (
{
name = bottom;
pos = (341,0);
},
{
name = center;
pos = (500,474);
},
{
name = top;
pos = (578,710);
}
);
layerId = "9372F035-DA38-4B54-966C-CEBA9B53DD02";
shapes = (
{
closed = 1;
nodes = (
(119,0,l),
(268,-3,l),
(276,22,l),
(257,24,ls),
(184,32,o),
(174,43,o),
(191,96,cs),
(347,573,ls),
(374,655,o),
(400,679,o),
(473,686,cs),
(494,688,l),
(502,713,l),
(353,710,l),
(204,713,l),
(196,688,l),
(215,686,ls),
(286,679,o),
(298,668,o),
(284,624,cs),
(124,136,ls),
(98,55,o),
(71,31,o),
(-1,24,cs),
(-22,22,l),
(-30,-3,l)
);
},
{
closed = 1;
nodes = (
(654,345,l),
(664,376,l),
(274,376,l),
(264,345,l)
);
},
{
closed = 1;
nodes = (
(574,0,l),
(723,-3,l),
(731,22,l),
(712,24,ls),
(635,32,o),
(627,42,o),
(645,97,cs),
(801,573,ls),
(828,657,o),
(852,679,o),
(927,686,cs),
(948,688,l),
(956,713,l),
(807,710,l),
(658,713,l),
(650,688,l),
(669,686,ls),
(741,679,o),
(753,668,o),
(738,624,cs),
(573,121,ls),
(550,50,o),
(525,30,o),
(454,24,cs),
(433,22,l),
(425,-3,l)
);
}
);
width = 838;
},
{
anchors = (
{
name = bottom;
pos = (352,0);
},
{
name = center;
pos = (513,496);
},
{
name = top;
pos = (582,710);
}
);
layerId = m002;
shapes = (
{
closed = 1;
nodes = (
(124,0,l),
(286,-3,l),
(299,38,l),
(280,40,ls),
(227,45,o),
(221,61,o),
(244,133,cs),
(388,577,ls),
(411,649,o),
(429,666,o),
(485,671,cs),
(506,673,l),
(519,713,l),
(355,710,l),
(192,713,l),
(179,673,l),
(198,671,ls),
(250,666,o),
(256,649,o),
(233,577,cs),
(89,133,ls),
(66,61,o),
(49,45,o),
(-7,40,cs),
(-28,38,l),
(-41,-3,l)
);
},
{
closed = 1;
nodes = (
(678,341,l),
(696,395,l),
(254,395,l),
(236,341,l)
);
},
{
closed = 1;
nodes = (
(577,0,l),
(739,-3,l),
(752,38,l),
(733,40,ls),
(680,45,o),
(674,61,o),
(697,133,cs),
(841,577,ls),
(864,649,o),
(882,666,o),
(938,671,cs),
(959,673,l),
(972,713,l),
(808,710,l),
(645,713,l),
(632,673,l),
(651,671,ls),
(703,666,o),
(709,649,o),
(686,577,cs),
(542,133,ls),
(519,61,o),
(502,45,o),
(446,40,cs),
(425,38,l),
(412,-3,l)
);
}
);
width = 845;
}
);
metricLeft = I;
metricRight = I;
unicode = 72;
},
{
color = 6;
glyphname = I;
kernLeft = I;
kernRight = I;
layers = (
{
anchors = (
{
name = bottom;
pos = (117,0);
},
{
name = ogonek;
pos = (211,0);
},
{
name = top;
pos = (351,710);
}
);
layerId = "9372F035-DA38-4B54-966C-CEBA9B53DD02";
shapes = (
{
closed = 1;
nodes = (
(119,0,l),
(268,-3,l),
(276,22,l),
(257,24,ls),
(180,32,o),
(173,41,o),
(191,96,cs),
(347,573,ls),
(375,658,o),
(398,679,o),
(473,686,cs),
(494,688,l),
(502,713,l),
(353,710,l),
(204,713,l),
(196,688,l),
(215,686,ls),
(285,678,o),
(298,667,o),
(284,624,cs),
(124,136,ls),
(96,52,o),
(73,31,o),
(-1,24,cs),
(-22,22,l),
(-30,-3,l)
);
}
);
width = 384;
},
{
anchors = (
{
name = bottom;
pos = (125,0);
},
{
name = ogonek;
pos = (227,0);
},
{
name = top;
pos = (354,710);
}
);
layerId = m002;
shapes = (
{
closed = 1;
nodes = (
(124,0,l),
(286,-3,l),
(299,38,l),
(280,40,ls),
(227,45,o),
(221,61,o),
(244,133,cs),
(388,577,ls),
(411,649,o),
(429,666,o),
(485,671,cs),
(506,673,l),
(519,713,l),
(355,710,l),
(192,713,l),
(179,673,l),
(198,671,ls),
(250,666,o),
(256,649,o),
(233,577,cs),
(89,133,ls),
(66,61,o),
(49,45,o),
(-7,40,cs),
(-28,38,l),
(-41,-3,l)
);
}
);
width = 392;
}
);
unicode = 73;
},
{
color = 6;
glyphname = J;
kernLeft = J;
kernRight = U;
layers = (
{
anchors = (
{
name = bottom;
pos = (173,0);
},
{
name = top;
pos = (406,710);
}
);
layerId = "9372F035-DA38-4B54-966C-CEBA9B53DD02";
shapes = (
{
closed = 1;
nodes = (
(186,-14,o),
(223,20,o),
(264,147,cs),
(403,574,ls),
(430,657,o),
(454,678,o),
(529,686,cs),
(550,688,l),
(558,713,l),
(409,710,l),
(260,713,l),
(252,688,l),
(271,686,ls),
(345,679,o),
(352,672,o),
(337,614,cs),
(207,217,ls),
(147,36,o),
(132,9,o),
(90,9,cs),
(75,9,o),
(64,14,o),
(57,24,cs),
(51,32,o),
(47,41,o),
(41,63,cs),
(31,105,o),
(17,120,o),
(-11,120,cs),
(-37,120,o),
(-56,102,o),
(-56,75,cs),
(-56,22,o),
(2,-14,o),
(87,-14,cs)
);
}
);
width = 430;
},
{
anchors = (
{
name = bottom;
pos = (226,0);
},
{
name = top;
pos = (457,710);
}
);
layerId = m002;
shapes = (
{
closed = 1;
nodes = (
(229,-14,o),
(311,47,o),
(353,179,cs),
(481,577,ls),
(503,648,o),
(521,666,o),
(577,671,cs),
(598,673,l),
(611,713,l),
(447,710,l),
(274,713,l),
(261,673,l),
(290,671,ls),
(342,668,o),
(349,649,o),
(326,577,cs),
(199,181,ls),
(166,76,o),
(136,32,o),
(98,32,cs),
(80,32,o),
(68,42,o),
(68,58,cs),
(68,76,o),
(83,96,o),
(83,120,cs),
(83,154,o),
(54,178,o),
(6,178,cs),
(-53,178,o),
(-82,143,o),
(-82,97,cs),
(-82,33,o),
(-25,-14,o),
(94,-14,cs)
);
}
);
width = 474;
}
);
unicode = 74;
},
{
color = 6;
glyphname = K;
kernLeft = I;
kernRight = K;
layers = (
{
anchors = (
{
name = bottom;
pos = (313,1);
},
{
name = top;
pos = (537,710);
}
);
layerId = "9372F035-DA38-4B54-966C-CEBA9B53DD02";
shapes = (
{
closed = 1;
nodes = (
(658,600,ls),
(725,655,o),
(770,682,o),
(799,686,cs),
(821,689,l),
(830,714,l),
(716,710,l),
(593,714,l),
(584,689,l),
(598,688,ls),
(633,685,o),
(651,674,o),
(651,654,cs),
(651,636,o),
(635,613,o),
(605,588,cs),
(232,287,l),
(228,251,l)
);
},
{
closed = 1;
nodes = (
(119,0,l),
(268,-3,l),
(276,22,l),
(257,24,ls),
(180,32,o),
(173,41,o),
(191,96,cs),
(347,573,ls),
(375,658,o),
(398,679,o),
(473,686,cs),
(494,688,l),
(502,713,l),
(353,710,l),
(204,713,l),
(196,688,l),
(215,686,ls),
(285,678,o),
(298,667,o),
(284,624,cs),
(124,136,ls),
(96,52,o),
(73,31,o),
(-1,24,cs),
(-22,22,l),
(-30,-3,l)
);
},
{
closed = 1;
nodes = (
(562,1,l),
(673,-2,l),
(682,23,l),
(618,34,o),
(585,63,o),
(554,140,cs),
(434,435,l),
(374,373,l),
(485,102,ls),
(490,88,o),
(492,80,o),
(492,72,cs),
(492,49,o),
(471,35,o),
(423,27,cs),
(405,24,l),
(396,-1,l)
);
}
);
width = 724;
},
{
anchors = (
{
name = bottom;
pos = (339,0);
},
{
name = top;
pos = (544,710);
}
);
layerId = m002;
shapes = (
{
closed = 1;
nodes = (
(686,592,ls),
(747,642,o),
(783,663,o),
(820,670,cs),
(840,674,l),
(852,713,l),
(733,710,l),
(588,713,l),
(576,673,l),
(595,671,ls),
(620,668,o),
(633,658,o),
(633,642,cs),
(633,622,o),
(612,594,o),
(576,564,cs),
(266,310,l),
(240,229,l)
);
},
{
closed = 1;
nodes = (
(124,0,l),
(286,-3,l),
(299,38,l),
(280,40,ls),
(227,45,o),
(221,61,o),
(244,133,cs),
(388,577,ls),
(411,649,o),
(429,666,o),
(485,671,cs),
(506,673,l),
(519,713,l),
(355,710,l),
(192,713,l),
(179,673,l),
(198,671,ls),
(250,666,o),
(256,649,o),
(233,577,cs),
(89,133,ls),
(66,61,o),
(49,45,o),
(-7,40,cs),
(-28,38,l),
(-41,-3,l)
);
},
{
closed = 1;
nodes = (
(571,0,l),
(699,-3,l),
(712,38,l),
(677,38,o),
(656,67,o),
(617,171,cs),
(503,472,l),
(377,370,l),
(470,123,ls),
(475,111,o),
(477,99,o),
(477,87,cs),
(477,58,o),
(459,42,o),
(424,39,cs),
(409,38,l),
(396,-3,l)
);
}
);
width = 760;
}
);
metricLeft = I;
unicode = 75;
},
{
color = 6;
glyphname = L;
kernLeft = I;
kernRight = L;
layers = (
{
anchors = (
{
name = bottom;
pos = (291,0);
},
{
name = center;
pos = (265,355);
},
{
name = top;
pos = (353,710);
},
{
name = topright;
pos = (531,710);
}
);
layerId = "9372F035-DA38-4B54-966C-CEBA9B53DD02";
shapes = (
{
closed = 1;
nodes = (
(110,0,l),
(545,-3,l),
(623,210,l),
(597,210,l),
(547,81,o),
(475,23,o),
(366,23,cs),
(291,23,ls),
(188,23,o),
(174,47,o),
(212,161,cs),
(347,574,ls),
(374,658,o),
(398,679,o),
(473,686,cs),
(494,688,l),
(502,713,l),
(353,710,l),
(204,713,l),
(196,688,l),
(215,686,ls),
(289,678,o),
(299,669,o),
(284,624,cs),
(105,80,ls),
(92,41,o),
(74,31,o),
(-1,24,cs),
(-22,22,l),
(-30,-3,l)
);
}
);
width = 639;
},
{
anchors = (
{
name = bottom;
pos = (299,0);
},
{
name = center;
pos = (268,355);
},
{
name = top;
pos = (355,710);
},
{
name = topright;
pos = (552,710);
}
);
layerId = m002;
shapes = (
{
closed = 1;
nodes = (
(120,0,l),
(544,0,l),
(630,230,l),
(590,230,l),
(521,96,o),
(448,44,o),
(326,44,cs),
(312,44,ls),
(237,44,o),
(222,60,o),
(240,117,cs),
(385,577,ls),
(410,655,o),
(421,666,o),
(478,671,cs),
(499,673,l),
(511,713,l),
(356,710,l),
(191,713,l),
(178,673,l),
(197,671,ls),
(248,666,o),
(254,649,o),
(231,577,cs),
(90,133,ls),
(67,61,o),
(51,45,o),
(-3,40,cs),
(-23,38,l),
(-36,-3,l)
);
}
);
width = 649;
}
);
metricLeft = I;
unicode = 76;
},
{
color = 6;
glyphname = M;
kernLeft = M;
kernRight = I;
layers = (
{
anchors = (
{
name = bottom;
pos = (389,0);
},
{
name = top;
pos = (603,710);
}
);
layerId = "9372F035-DA38-4B54-966C-CEBA9B53DD02";
shapes = (
{
closed = 1;
nodes = (
(97,0,l),
(215,-3,l),
(223,22,l),
(204,24,ls),
(128,32,o),
(120,41,o),
(136,90,cs),
(313,642,l),
(300,643,l),
(365,7,l),
(397,7,l),
(826,679,l),
(810,683,l),
(687,137,ls),
(669,55,o),
(642,32,o),
(562,24,cs),
(541,22,l),
(533,-3,l),
(682,0,l),
(831,-3,l),
(839,22,l),
(820,24,ls),
(746,32,o),
(741,38,o),
(754,96,cs),
(870,615,ls),
(880,662,o),
(904,679,o),
(969,686,cs),
(990,688,l),
(998,713,l),
(857,710,l),
(810,710,l),
(416,90,l),
(436,86,l),
(373,710,l),
(317,710,l),
(199,713,l),
(191,688,l),
(229,683,ls),
(254,680,o),
(269,672,o),
(287,652,c),
(112,116,ls),
(87,41,o),
(75,30,o),
(3,24,cs),
(-18,22,l),
(-26,-3,l)
);
}
);
width = 916;
},
{
anchors = (
{
name = bottom;
pos = (390,0);
},
{
name = top;
pos = (599,710);
}
);
layerId = m002;
shapes = (
{
closed = 1;
nodes = (
(90,-1,l),
(216,-3,l),
(229,37,l),
(200,39,ls),
(141,43,o),
(133,61,o),
(156,133,cs),
(309,617,l),
(295,617,l),
(358,0,l),
(401,0,l),
(837,682,l),
(804,682,l),
(678,133,ls),
(663,65,o),
(644,46,o),
(586,40,cs),
(566,38,l),
(553,-3,l),
(713,0,l),
(883,-3,l),
(896,38,l),
(877,40,ls),
(818,47,o),
(816,52,o),
(833,133,cs),
(929,577,ls),
(944,646,o),
(961,665,o),
(1013,671,cs),
(1033,673,l),
(1046,713,l),
(895,710,l),
(796,710,l),
(407,101,l),
(492,174,l),
(441,710,l),
(354,710,l),
(189,713,l),
(177,673,l),
(194,671,ls),
(225,668,o),
(247,659,o),
(265,644,c),
(103,133,ls),
(80,60,o),
(61,43,o),
(0,39,cs),
(-30,37,l),
(-43,-3,l)
);
}
);
width = 966;
}
);
unicode = 77;
},
{
color = 6;
glyphname = N;
kernLeft = I;
kernRight = N;
layers = (
{
anchors = (
{
name = bottom;
pos = (352,0);
},
{
name = top;
pos = (546,710);
}
);
layerId = "9372F035-DA38-4B54-966C-CEBA9B53DD02";
shapes = (
{
closed = 1;
nodes = (
(594,0,l),
(784,607,ls),
(802,666,o),
(820,679,o),
(891,686,cs),
(912,688,l),
(921,713,l),
(798,710,l),
(681,713,l),
(672,688,l),
(691,686,ls),
(760,680,o),
(772,669,o),
(757,624,cs),
(593,92,l),
(615,93,l),
(336,710,l),
(318,710,l),
(201,713,l),
(192,688,l),
(223,685,ls),
(250,682,o),
(264,668,o),
(287,617,cs),
(564,0,l)
);
},
{
closed = 1;
nodes = (
(100,0,l),
(217,-3,l),
(226,22,l),
(207,24,ls),
(139,31,o),
(128,40,o),
(140,81,cs),
(301,601,l),
(283,643,l),
(114,103,ls),
(96,46,o),
(76,31,o),
(7,24,cs),
(-14,22,l),
(-23,-3,l)
);
}
);
width = 783;
},
{
anchors = (
{
name = bottom;
pos = (346,0);
},
{
name = top;
pos = (570,710);
}
);
layerId = m002;
shapes = (
{
closed = 1;
nodes = (
(584,0,l),
(768,577,ls),
(792,651,o),
(808,667,o),
(865,671,cs),
(895,673,l),
(908,713,l),
(785,711,l),
(653,713,l),
(641,673,l),
(670,671,ls),
(730,667,o),
(738,650,o),
(715,577,cs),
(589,182,l),
(634,184,l),
(399,710,l),
(355,710,l),
(189,713,l),
(176,673,l),
(190,673,ls),
(232,673,o),
(264,643,o),
(289,580,cs),
(545,0,l)
);
},
{
closed = 1;
nodes = (
(104,-1,l),
(235,-3,l),
(248,37,l),
(218,39,ls),
(155,43,o),
(146,59,o),
(170,133,cs),
(307,562,l),
(273,621,l),
(117,133,ls),
(93,59,o),
(77,43,o),
(21,39,cs),
(-9,37,l),
(-22,-3,l)
);
}
);
width = 769;
}
);
unicode = 78;
},
{
color = 6;
glyphname = Eng;
kernLeft = I;
kernRight = N;
layers = (
{
layerId = "9372F035-DA38-4B54-966C-CEBA9B53DD02";
shapes = (
{
closed = 1;
nodes = (
(609,107,l),
(336,710,l),
(318,710,l),
(201,713,l),
(192,688,l),
(223,685,ls),
(250,682,o),
(264,668,o),
(287,617,cs),
(571,-15,l)
);
},
{
closed = 1;
nodes = (
(100,0,l),
(217,-3,l),
(226,22,l),
(207,24,ls),
(139,31,o),
(128,40,o),
(140,81,cs),
(301,601,l),
(283,643,l),
(114,103,ls),
(96,46,o),
(76,31,o),
(7,24,cs),
(-14,22,l),
(-23,-3,l)
);
},
{
closed = 1;
nodes = (
(481,-294,o),
(518,-254,o),
(554,-136,cs),
(783,607,ls),
(801,666,o),
(819,679,o),
(890,686,cs),
(911,688,l),
(920,713,l),
(798,710,l),
(681,713,l),
(672,688,l),
(691,686,ls),
(760,678,o),
(771,669,o),
(757,624,cs),
(524,-131,ls),
(500,-215,o),
(466,-262,o),
(429,-262,cs),
(385,-262,o),
(408,-174,o),
(349,-174,cs),
(321,-174,o),
(300,-194,o),
(300,-221,cs),
(300,-257,o),
(329,-294,o),
(411,-294,cs)
);
}
);
width = 782;
},
{
layerId = m002;
shapes = (
{
closed = 1;
nodes = (
(615,227,l),
(399,710,l),
(355,710,l),
(189,713,l),
(176,673,l),
(190,673,ls),
(230,673,o),
(260,644,o),
(288,580,cs),
(545,5,l)
);
},
{
closed = 1;
nodes = (
(104,-1,l),
(235,-3,l),
(248,37,l),
(218,39,ls),
(155,43,o),
(146,59,o),
(170,133,cs),
(307,562,l),
(273,621,l),
(117,133,ls),
(93,59,o),
(77,43,o),
(21,39,cs),
(-9,37,l),
(-22,-3,l)
);
},
{
closed = 1;
nodes = (
(457,-294,o),
(504,-246,o),
(546,-117,cs),
(768,577,ls),
(792,651,o),
(808,667,o),
(865,671,cs),
(895,673,l),
(908,713,l),
(785,711,l),
(653,713,l),
(641,673,l),
(670,671,ls),
(730,667,o),
(738,650,o),
(715,577,cs),
(498,-103,ls),
(462,-211,o),
(431,-258,o),
(394,-258,cs),
(338,-258,o),
(417,-130,o),
(309,-130,cs),
(255,-130,o),
(225,-162,o),
(225,-201,cs),
(225,-254,o),
(274,-294,o),
(369,-294,cs)
);
}
);
width = 769;
}
);
metricLeft = N;
metricRight = N;
unicode = 330;
},
{
color = 6;
glyphname = O;
kernLeft = O;
kernRight = O;
layers = (
{
anchors = (
{
name = bottom;
pos = (352,0);
},
{
name = center;
pos = (430,355);
},
{
name = ogonek;
pos = (432,0);
},
{
name = top;
pos = (556,710);
}
);
layerId = "9372F035-DA38-4B54-966C-CEBA9B53DD02";
shapes = (
{
closed = 1;
nodes = (
(568,-12,o),
(783,219,o),
(783,469,cs),
(783,622,o),
(683,724,o),
(533,724,cs),
(296,724,o),
(79,493,o),
(79,241,cs),
(79,88,o),
(180,-12,o),
(335,-12,cs)
);
},
{
closed = 1;
nodes = (
(232,18,o),
(170,94,o),
(170,225,cs),
(170,461,o),
(349,694,o),
(529,694,cs),
(633,694,o),
(693,616,o),
(693,481,cs),
(693,248,o),
(517,18,o),
(338,18,cs)
);
}
);
width = 775;
},
{
anchors = (
{
name = bottom;
pos = (329,0);
},
{
name = center;
pos = (444,355);
},
{
name = ogonek;
pos = (448,0);
},
{
name = top;
pos = (553,710);
}
);
layerId = m002;
shapes = (
{
closed = 1;
nodes = (
(594,-13,o),
(814,207,o),
(814,452,cs),
(814,619,o),
(708,724,o),
(538,724,cs),
(292,724,o),
(73,504,o),
(73,258,cs),
(73,92,o),
(179,-13,o),
(348,-13,cs)
);
},
{
closed = 1;
nodes = (
(285,37,o),
(239,104,o),
(239,212,cs),
(239,427,o),
(393,674,o),
(527,674,cs),
(602,674,o),
(649,606,o),
(649,496,cs),
(649,281,o),
(495,37,o),
(360,37,cs)
);
}
);
width = 800;
}
);
unicode = 79;
},
{
color = 6;
glyphname = OE;
kernLeft = O;
kernRight = E;
layers = (
{
anchors = (
{
name = bottom;
pos = (450,0);
},
{
name = top;
pos = (680,710);
}
);
layerId = "9372F035-DA38-4B54-966C-CEBA9B53DD02";
shapes = (
{
closed = 1;
nodes = (
(345,-14,o),
(378,-9,o),
(413,0,c),
(949,0,l),
(971,74,l),
(1016,210,l),
(990,210,l),
(935,73,o),
(882,26,o),
(780,25,cs),
(642,24,ls),
(554,23,o),
(533,62,o),
(567,165,cs),
(738,685,l),
(889,685,ls),
(972,685,o),
(1015,632,o),
(1019,527,c),
(1045,527,l),
(1042,710,l),
(637,710,l),
(593,717,o),
(567,720,o),
(538,720,cs),
(294,720,o),
(72,480,o),
(72,215,cs),
(72,74,o),
(165,-14,o),
(314,-14,cs)
);
},
{
closed = 1;
nodes = (
(216,16,o),
(157,87,o),
(157,210,cs),
(157,450,o),
(350,691,o),
(542,691,cs),
(623,691,o),
(652,668,o),
(635,617,cs),
(464,90,ls),
(449,43,o),
(395,16,o),
(318,16,cs)
);
},
{
closed = 1;
nodes = (
(826,226,l),
(867,371,l),
(916,508,l),
(890,508,l),
(855,413,o),
(832,388,o),
(781,388,cs),
(608,388,l),
(600,362,l),
(773,362,ls),
(819,362,o),
(829,314,o),
(800,226,c)
);
}
);
width = 1042;
},
{
anchors = (
{
name = bottom;
pos = (479,0);
},
{
name = top;
pos = (709,710);
}
);
layerId = m002;
shapes = (
{
closed = 1;
nodes = (
(385,-14,o),
(419,-10,o),
(451,-1,c),
(999,0,l),
(1025,85,l),
(1072,230,l),
(1032,230,l),
(976,96,o),
(907,44,o),
(784,44,cs),
(726,44,ls),
(644,44,o),
(626,64,o),
(648,133,cs),
(818,666,l),
(890,666,ls),
(1006,666,o),
(1061,615,o),
(1061,508,c),
(1105,508,l),
(1105,710,l),
(661,710,l),
(601,721,o),
(571,724,o),
(538,724,cs),
(292,724,o),
(73,504,o),
(73,258,cs),
(73,91,o),
(179,-14,o),
(348,-14,cs)
);
},
{
closed = 1;
nodes = (
(285,36,o),
(239,103,o),
(239,212,cs),
(239,433,o),
(397,674,o),
(542,674,cs),
(618,674,o),
(649,622,o),
(623,539,cs),
(501,153,ls),
(476,74,o),
(431,36,o),
(360,36,cs)
);
},
{
closed = 1;
nodes = (
(875,226,l),
(918,374,l),
(966,508,l),
(927,508,l),
(892,426,o),
(851,396,o),
(775,396,cs),
(687,396,l),
(673,352,l),
(761,352,ls),
(838,352,o),
(861,313,o),
(835,226,c)
);
}
);
width = 1101;
}
);
metricLeft = O;
metricRight = E;
unicode = 338;
},
{
color = 6;
glyphname = P;
kernLeft = I;
kernRight = D;
layers = (
{
anchors = (
{
name = bottom;
pos = (216,0);
},
{
name = top;
pos = (441,710);
}
);
layerId = "9372F035-DA38-4B54-966C-CEBA9B53DD02";
shapes = (
{
closed = 1;
nodes = (
(119,0,l),
(276,-3,l),
(285,21,l),
(266,23,ls),
(184,32,o),
(173,42,o),
(191,96,cs),
(384,683,l),
(467,683,ls),
(573,683,o),
(637,628,o),
(637,536,cs),
(637,415,o),
(529,333,o),
(372,333,cs),
(354,333,o),
(321,334,o),
(263,337,c),
(254,310,l),
(321,304,o),
(352,302,o),
(380,302,cs),
(591,302,o),
(723,390,o),
(723,531,cs),
(723,649,o),
(630,713,o),
(461,711,cs),
(353,710,l),
(206,713,l),
(197,688,l),
(216,686,ls),
(286,679,o),
(300,668,o),
(287,630,cs),
(120,125,ls),
(96,53,o),
(69,30,o),
(1,24,cs),
(-21,22,l),
(-30,-3,l)
);
}
);
width = 652;
},
{
anchors = (
{
name = bottom;
pos = (215,0);
},
{
name = top;
pos = (448,710);
}
);
layerId = m002;
shapes = (
{
closed = 1;
nodes = (
(124,0,l),
(310,-3,l),
(323,38,l),
(280,40,ls),
(228,42,o),
(221,61,o),
(244,133,cs),
(415,660,l),
(475,660,ls),
(543,660,o),
(582,618,o),
(582,546,cs),
(582,431,o),
(492,343,o),
(376,343,cs),
(356,343,o),
(318,345,o),
(290,348,c),
(274,299,l),
(304,295,o),
(344,293,o),
(380,293,cs),
(605,293,o),
(751,385,o),
(751,527,cs),
(751,641,o),
(658,710,o),
(505,710,cs),
(349,710,l),
(192,713,l),
(179,673,l),
(198,671,ls),
(250,666,o),
(256,649,o),
(233,577,cs),
(89,133,ls),
(66,61,o),
(49,45,o),
(-7,40,cs),
(-28,38,l),
(-41,-3,l)
);
}
);
width = 672;
}
);
metricLeft = I;
unicode = 80;
},
{
color = 6;
glyphname = Thorn;
kernLeft = I;
layers = (
{
layerId = "9372F035-DA38-4B54-966C-CEBA9B53DD02";
shapes = (
{
closed = 1;
nodes = (
(119,0,l),
(268,-3,l),
(276,22,l),
(257,24,ls),
(180,32,o),
(173,41,o),
(191,96,cs),
(347,573,ls),
(375,658,o),
(398,679,o),
(473,686,cs),
(494,688,l),
(502,713,l),
(353,710,l),
(204,713,l),
(196,688,l),
(215,686,ls),
(285,678,o),
(298,667,o),
(284,624,cs),
(124,136,ls),
(96,52,o),
(73,31,o),
(-1,24,cs),
(-22,22,l),
(-30,-3,l)
);
},
{
closed = 1;
nodes = (
(522,158,o),
(657,247,o),
(664,390,cs),
(670,505,o),
(579,569,o),
(412,567,cs),
(315,566,l),
(308,539,l),
(416,539,ls),
(521,539,o),
(584,484,o),
(579,395,cs),
(572,270,o),
(462,189,o),
(300,189,cs),
(288,189,o),
(260,190,o),
(194,193,c),
(184,166,l),
(254,160,o),
(283,158,o),
(312,158,cs)
);
}
);
width = 636;
},
{
layerId = m002;
shapes = (
{
closed = 1;
nodes = (
(124,0,l),
(316,-3,l),
(329,38,l),
(297,40,ls),
(225,45,o),
(221,61,o),
(244,133,cs),
(388,577,ls),
(411,649,o),
(429,666,o),
(485,671,cs),
(506,673,l),
(519,713,l),
(355,710,l),
(192,713,l),
(179,673,l),
(198,671,ls),
(250,666,o),
(256,649,o),
(233,577,cs),
(89,133,ls),
(66,61,o),
(49,45,o),
(-7,40,cs),
(-28,38,l),
(-41,-3,l)
);
},
{
closed = 1;
nodes = (
(566,153,o),
(713,247,o),
(718,390,cs),
(721,501,o),
(629,570,o),
(478,570,cs),
(340,570,l),
(357,520,l),
(447,520,ls),
(513,520,o),
(552,478,o),
(550,410,cs),
(545,295,o),
(455,203,o),
(345,203,cs),
(311,203,o),
(279,205,o),
(251,208,c),
(233,159,l),
(265,155,o),
(304,153,o),
(346,153,cs)
);
}
);
width = 682;
}
);
metricLeft = I;
metricRight = P;
unicode = 222;
},
{
color = 3;
glyphname = Q;
kernLeft = O;
kernRight = O;
layers = (
{
anchors = (
{
name = bottom;
pos = (311,0);
},
{
name = top;
pos = (544,710);
}
);
layerId = "9372F035-DA38-4B54-966C-CEBA9B53DD02";
shapes = (
{
closed = 1;
nodes = (
(609,-294,o),
(649,-249,o),
(670,-138,c),
(650,-136,l),
(637,-196,o),
(598,-232,o),
(546,-232,cs),
(513,-232,o),
(487,-218,o),
(427,-170,cs),
(336,-96,o),
(271,-69,o),
(190,-69,c),
(173,-80,l),
(247,-45,o),
(339,-14,o),
(383,-11,c),
(316,3,l),
(99,-78,l),
(157,-66,l),
(29,-66,o),
(-21,-81,o),
(-21,-128,cs),
(-21,-149,o),
(-8,-165,o),
(13,-165,cs),
(31,-165,o),
(49,-157,o),
(72,-138,cs),
(106,-110,o),
(120,-102,o),
(147,-93,c),
(105,-104,l),
(133,-99,o),
(136,-99,o),
(148,-99,cs),
(220,-99,o),
(274,-126,o),
(359,-203,cs),
(433,-271,o),
(476,-294,o),
(532,-294,cs)
);
},
{
ref = O;
}
);
width = 775;
},
{
anchors = (
{
name = bottom;
pos = (330,0);
},
{
name = top;
pos = (790,710);
}
);
layerId = m002;
shapes = (
{
closed = 1;
nodes = (
(597,-294,o),
(662,-230,o),
(690,-104,c),
(650,-104,l),
(640,-142,o),
(612,-161,o),
(565,-161,cs),
(528,-161,o),
(499,-152,o),
(439,-123,cs),
(357,-83,o),
(299,-68,o),
(222,-68,c),
(208,-79,l),
(321,-33,o),
(351,-23,o),
(433,-5,c),
(335,6,l),
(93,-90,l),
(181,-68,l),
(39,-68,o),
(-55,-103,o),
(-55,-163,cs),
(-55,-184,o),
(-44,-199,o),
(-21,-199,cs),
(3,-199,o),
(23,-190,o),
(80,-153,cs),
(131,-119,o),
(164,-101,o),
(197,-88,c),
(114,-101,l),
(120,-100,o),
(126,-100,o),
(136,-100,cs),
(186,-100,o),
(227,-123,o),
(297,-190,cs),
(381,-268,o),
(432,-294,o),
(498,-294,cs)
);
},
{
ref = O;
}
);
width = 800;
}
);
metricLeft = O;
metricWidth = O;
unicode = 81;
},
{
color = 6;
glyphname = R;
kernLeft = I;
kernRight = R;
layers = (
{
anchors = (
{
name = bottom;
pos = (304,0);
},
{
name = top;
pos = (460,710);
}
);
layerId = "9372F035-DA38-4B54-966C-CEBA9B53DD02";
shapes = (
{
closed = 1;
nodes = (
(630,-14,o),
(667,3,o),
(695,36,c),
(676,53,l),
(658,32,o),
(639,22,o),
(616,22,cs),
(578,22,o),
(564,48,o),
(559,127,cs),
(554,205,ls),
(547,306,o),
(477,362,o),
(358,362,c),
(346,359,l),
(422,360,ls),
(587,362,o),
(680,429,o),
(680,546,cs),
(680,656,o),
(596,713,o),
(437,711,cs),
(360,710,l),
(349,710,l),
(202,713,l),
(194,688,l),
(213,686,ls),
(278,679,o),
(294,667,o),
(283,632,cs),
(115,120,ls),
(90,43,o),
(75,31,o),
(0,24,cs),
(-21,22,l),
(-29,-3,l),
(116,0,l),
(253,-3,l),
(261,22,l),
(242,24,ls),
(177,31,o),
(169,39,o),
(185,87,cs),
(380,683,l),
(437,683,ls),
(539,683,o),
(594,638,o),
(594,553,cs),
(594,451,o),
(515,381,o),
(399,382,cs),
(262,383,l),
(255,360,l),
(261,360,ls),
(380,360,o),
(455,302,o),
(461,205,cs),
(463,170,ls),
(471,44,o),
(510,-14,o),
(587,-14,cs)
);
}
);
width = 730;
},
{
anchors = (
{
name = bottom;
pos = (341,0);
},
{
name = top;
pos = (474,710);
}
);
layerId = m002;
shapes = (
{
closed = 1;
nodes = (
(621,-13,o),
(675,10,o),
(708,43,c),
(689,71,l),
(680,63,o),
(668,59,o),
(659,59,cs),
(634,59,o),
(621,93,o),
(621,159,cs),
(621,180,ls),
(621,317,o),
(552,370,o),
(374,370,c),
(405,357,l),
(422,357,ls),
(616,357,o),
(745,435,o),
(745,551,cs),
(745,649,o),
(653,710,o),
(505,710,cs),
(373,710,l),
(349,710,l),
(192,713,l),
(179,673,l),
(198,671,ls),
(250,666,o),
(256,649,o),
(233,577,cs),
(89,133,ls),
(66,61,o),
(49,45,o),
(-7,40,cs),
(-28,38,l),
(-41,-3,l),
(124,0,l),
(286,-3,l),
(299,38,l),
(280,40,ls),
(227,46,o),
(220,62,o),
(244,133,cs),
(417,660,l),
(485,660,ls),
(545,660,o),
(576,628,o),
(576,567,cs),
(576,471,o),
(498,393,o),
(403,393,cs),
(297,393,l),
(283,343,l),
(302,343,ls),
(406,343,o),
(451,291,o),
(451,172,cs),
(451,154,ls),
(451,48,o),
(496,-13,o),
(575,-13,cs)
);
}
);
width = 739;
}
);
metricLeft = I;
unicode = 82;
},
{
color = 6;
glyphname = S;
kernLeft = S;
kernRight = S;
layers = (
{
anchors = (
{
name = bottom;
pos = (295,0);
},
{
name = top;
pos = (428,710);
}
);
layerId = "9372F035-DA38-4B54-966C-CEBA9B53DD02";
shapes = (
{
closed = 1;
nodes = (
(415,-11,o),
(509,72,o),
(509,183,cs),
(509,249,o),
(476,304,o),
(386,388,cs),
(355,417,ls),
(291,477,o),
(265,520,o),
(265,568,cs),
(265,639,o),
(322,692,o),
(399,692,cs),
(489,692,o),
(544,619,o),
(544,501,cs),
(544,471,l),
(570,470,l),
(587,581,l),
(614,694,l),
(587,694,l),
(580,666,o),
(571,653,o),
(560,653,cs),
(535,653,o),
(493,720,o),
(381,720,cs),
(266,720,o),
(181,649,o),
(181,553,cs),
(181,477,o),
(235,425,o),
(301,363,cs),
(333,333,ls),
(384,285,o),
(426,232,o),
(426,159,cs),
(426,75,o),
(369,17,o),
(278,17,cs),
(137,17,o),
(110,158,o),
(124,269,c),
(98,269,l),
(66,149,l),
(19,0,l),
(46,0,l),
(60,35,o),
(72,54,o),
(91,54,cs),
(126,54,o),
(173,-11,o),
(289,-11,cs)
);
}
);
width = 594;
},
{
anchors = (
{
name = bottom;
pos = (295,0);
},
{
name = top;
pos = (443,710);
}
);
layerId = m002;
shapes = (
{
closed = 1;
nodes = (
(444,-11,o),
(556,83,o),
(556,207,cs),
(556,274,o),
(519,339,o),
(443,405,cs),
(384,456,ls),
(329,503,o),
(310,532,o),
(310,569,cs),
(310,627,o),
(360,668,o),
(429,668,cs),
(512,668,o),
(563,604,o),
(563,501,cs),
(563,471,l),
(600,470,l),
(625,581,l),
(665,710,l),
(626,710,l),
(617,687,o),
(606,676,o),
(591,676,cs),
(563,676,o),
(506,720,o),
(405,720,cs),
(285,720,o),
(200,658,o),
(175,580,cs),
(151,507,o),
(179,425,o),
(259,358,cs),
(301,323,ls),
(349,283,o),
(411,241,o),
(411,163,cs),
(411,89,o),
(357,37,o),
(285,37,cs),
(204,37,o),
(125,102,o),
(125,269,c),
(87,269,l),
(56,149,l),
(1,0,l),
(42,0,l),
(55,25,o),
(73,39,o),
(95,39,cs),
(137,39,o),
(180,-11,o),
(296,-11,cs)
);
}
);
width = 614;
}
);
unicode = 83;
},
{
color = 6;
glyphname = Germandbls;
kernLeft = Germandbls;
kernRight = Germandbls;
layers = (
{
layerId = "9372F035-DA38-4B54-966C-CEBA9B53DD02";
shapes = (
{
closed = 1;
nodes = (
(766,677,l),
(705,708,o),
(642,721,o),
(561,721,cs),
(373,721,o),
(265,648,o),
(213,487,cs),
(98,133,ls),
(69,44,o),
(56,32,o),
(-24,24,cs),
(-44,22,l),
(-52,-3,l),
(97,0,l),
(98,0,l),
(149,-1,l),
(183,133,l),
(298,487,ls),
(343,624,o),
(428,692,o),
(554,692,cs),
(620,692,o),
(662,673,o),
(680,634,c),
(713,661,l),
(582,628,o),
(489,542,o),
(489,453,cs),
(489,410,o),
(509,364,o),
(547,321,cs),
(578,286,ls),
(616,244,o),
(636,197,o),
(636,153,cs),
(636,73,o),
(569,18,o),
(469,18,cs),
(376,18,o),
(329,64,o),
(332,150,cs),
(334,197,l),
(313,197,l),
(258,26,l),
(311,3,o),
(388,-11,o),
(454,-11,cs),
(605,-11,o),
(711,68,o),
(711,180,cs),
(711,228,o),
(691,277,o),
(654,323,cs),
(616,370,ls),
(580,414,o),
(564,450,o),
(564,483,cs),
(564,555,o),
(634,616,o),
(759,653,c)
);
}
);
width = 796;
},
{
layerId = m002;
shapes = (
{
closed = 1;
nodes = (
(782,688,l),
(699,711,o),
(632,721,o),
(556,721,cs),
(350,721,o),
(238,646,o),
(180,467,cs),
(72,133,ls),
(49,62,o),
(32,45,o),
(-25,39,cs),
(-45,37,l),
(-58,-3,l),
(106,0,l),
(107,0,l),
(193,-3,l),
(225,128,l),
(339,477,ls),
(384,616,o),
(446,671,o),
(555,671,cs),
(610,671,o),
(648,657,o),
(669,629,c),
(677,643,l),
(562,628,o),
(464,530,o),
(464,432,cs),
(464,385,o),
(488,342,o),
(533,307,cs),
(602,253,ls),
(637,225,o),
(657,190,o),
(657,154,cs),
(657,90,o),
(596,37,o),
(523,37,cs),
(438,37,o),
(381,104,o),
(377,208,cs),
(375,257,l),
(336,257,l),
(270,54,l),
(321,14,o),
(408,-11,o),
(503,-11,cs),
(673,-11,o),
(795,79,o),
(795,205,cs),
(795,262,o),
(768,317,o),
(724,353,cs),
(658,406,ls),
(621,436,o),
(602,469,o),
(602,504,cs),
(602,569,o),
(667,624,o),
(770,647,c)
);
}
);
width = 853;
}
);
metricRight = S;
unicode = 7838;
},
{
color = 6;
glyphname = T;
kernLeft = T;
kernRight = T;
layers = (
{
anchors = (
{
name = bottom;
pos = (310,0);
},
{
name = center;
pos = (420,355);
},
{
name = top;
pos = (529,710);
}
);
layerId = "9372F035-DA38-4B54-966C-CEBA9B53DD02";
shapes = (
{
closed = 1;
nodes = (
(309,0,l),
(491,-3,l),
(499,20,l),
(463,23,ls),
(390,29,o),
(363,58,o),
(381,112,cs),
(574,700,l),
(494,700,l),
(297,100,ls),
(281,53,o),
(244,32,o),
(159,22,cs),
(143,20,l),
(134,-3,l)
);
},
{
closed = 1;
nodes = (
(842,510,l),
(838,632,l),
(840,713,l),
(534,710,l),
(207,713,l),
(135,523,l),
(161,522,l),
(237,660,o),
(266,683,o),
(366,685,cs),
(496,687,l),
(573,688,l),
(699,685,ls),
(769,683,o),
(812,619,o),
(817,510,c)
);
}
);
width = 741;
},
{
anchors = (
{
name = bottom;
pos = (311,0);
},
{
name = center;
pos = (422,355);
},
{
name = top;
pos = (536,710);
}
);
layerId = m002;
shapes = (
{
closed = 1;
nodes = (
(311,0,l),
(498,-3,l),
(511,38,l),
(472,40,ls),
(418,43,o),
(409,65,o),
(430,133,cs),
(609,701,l),
(454,701,l),
(275,133,ls),
(252,59,o),
(236,43,o),
(185,40,cs),
(144,38,l),
(131,-3,l)
);
},
{
closed = 1;
nodes = (
(841,490,l),
(838,633,l),
(840,713,l),
(542,710,l),
(198,713,l),
(112,490,l),
(147,485,l),
(253,625,o),
(301,661,o),
(383,661,cs),
(454,661,l),
(588,661,l),
(635,661,ls),
(727,661,o),
(763,624,o),
(803,485,c)
);
}
);
width = 741;
}
);
unicode = 84;
},
{
color = 6;
glyphname = U;
kernLeft = U;
kernRight = U;
layers = (
{
anchors = (
{
name = bottom;
pos = (346,0);
},
{
name = ogonek;
pos = (474,0);
},
{
name = top;
pos = (575,710);
},
{
name = topright;
pos = (784,710);
}
);
layerId = "9372F035-DA38-4B54-966C-CEBA9B53DD02";
shapes = (
{
closed = 1;
nodes = (
(522,-14,o),
(592,59,o),
(672,308,cs),
(769,612,ls),
(787,667,o),
(804,679,o),
(878,686,cs),
(899,688,l),
(907,713,l),
(784,710,l),
(666,713,l),
(658,688,l),
(677,686,ls),
(746,679,o),
(756,670,o),
(742,625,cs),
(629,274,ls),
(571,93,o),
(497,18,o),
(377,18,cs),
(241,18,o),
(189,116,o),
(240,275,cs),
(335,574,ls),
(362,659,o),
(384,679,o),
(460,686,cs),
(481,688,l),
(489,713,l),
(340,710,l),
(191,713,l),
(183,688,l),
(202,686,ls),
(278,678,o),
(286,670,o),
(268,614,cs),
(159,275,ls),
(98,85,o),
(167,-14,o),
(359,-14,cs)
);
}
);
width = 758;
},
{
anchors = (
{
name = bottom;
pos = (346,0);
},
{
name = ogonek;
pos = (461,0);
},
{
name = top;
pos = (566,710);
},
{
name = topright;
pos = (775,711);
}
);
layerId = m002;
shapes = (
{
closed = 1;
nodes = (
(513,-11,o),
(591,59,o),
(661,276,cs),
(758,577,ls),
(781,650,o),
(800,667,o),
(862,671,cs),
(893,673,l),
(906,713,l),
(775,711,l),
(642,713,l),
(629,673,l),
(658,671,ls),
(718,667,o),
(726,650,o),
(703,577,cs),
(600,256,ls),
(555,115,o),
(487,52,o),
(381,52,cs),
(273,52,o),
(231,122,o),
(269,241,cs),
(376,577,ls),
(398,648,o),
(416,666,o),
(471,671,cs),
(491,673,l),
(504,713,l),
(342,710,l),
(181,713,l),
(168,673,l),
(187,671,ls),
(238,666,o),
(244,650,o),
(221,577,cs),
(131,294,ls),
(68,95,o),
(142,-11,o),
(343,-11,cs)
);
}
);
width = 755;
}
);
unicode = 85;
},
{
color = 6;
glyphname = Uogonek;
kernLeft = U;
kernRight = U;
layers = (
{
anchors = (
{
name = top;
pos = (575,710);
}
);
layerId = "9372F035-DA38-4B54-966C-CEBA9B53DD02";
shapes = (
{
closed = 1;
nodes = (
(383,-293,o),
(442,-251,o),
(475,-183,c),
(460,-170,l),
(432,-213,o),
(394,-237,o),
(354,-237,cs),
(314,-237,o),
(289,-213,o),
(289,-174,cs),
(289,-109,o),
(358,-38,o),
(460,-1,cs),
(555,30,o),
(611,118,o),
(672,308,cs),
(769,612,ls),
(787,667,o),
(804,679,o),
(878,686,cs),
(899,688,l),
(907,713,l),
(784,710,l),
(666,713,l),
(658,688,l),
(677,686,ls),
(746,679,o),
(756,670,o),
(742,625,cs),
(629,274,ls),
(571,93,o),
(497,18,o),
(377,18,cs),
(241,18,o),
(189,116,o),
(240,275,cs),
(335,574,ls),
(362,659,o),
(384,679,o),
(460,686,cs),
(481,688,l),
(489,713,l),
(340,710,l),
(191,713,l),
(183,688,l),
(202,686,ls),
(278,678,o),
(286,670,o),
(268,614,cs),
(159,275,ls),
(98,85,o),
(167,-14,o),
(359,-14,cs),
(374,-14,o),
(388,-12,o),
(408,-7,c),
(408,0,l),
(294,-57,o),
(229,-123,o),
(229,-197,cs),
(229,-255,o),
(267,-293,o),
(324,-293,cs)
);
}
);
width = 758;
},
{
anchors = (
{
name = top;
pos = (566,710);
}
);
layerId = m002;
shapes = (
{
closed = 1;
nodes = (
(381,-293,o),
(441,-251,o),
(475,-179,c),
(453,-161,l),
(428,-199,o),
(402,-217,o),
(372,-217,cs),
(338,-217,o),
(316,-193,o),
(316,-156,cs),
(316,-92,o),
(387,-29,o),
(484,14,cs),
(564,49,o),
(614,130,o),
(661,276,cs),
(758,577,ls),
(781,650,o),
(800,667,o),
(862,671,cs),
(893,673,l),
(906,713,l),
(775,711,l),
(642,713,l),
(629,673,l),
(658,671,ls),
(718,667,o),
(726,650,o),
(703,577,cs),
(600,256,ls),
(555,115,o),
(487,52,o),
(381,52,cs),
(273,52,o),
(231,122,o),
(269,241,cs),
(376,577,ls),
(398,648,o),
(416,666,o),
(471,671,cs),
(491,673,l),
(504,713,l),
(342,710,l),
(181,713,l),
(168,673,l),
(187,671,ls),
(238,666,o),
(244,650,o),
(221,577,cs),
(131,294,ls),
(68,95,o),
(142,-11,o),
(343,-11,cs),
(368,-11,o),
(392,-9,o),
(428,0,c),
(432,14,l),
(289,-42,o),
(210,-118,o),
(210,-199,cs),
(210,-256,o),
(250,-293,o),
(314,-293,cs)
);
}
);
width = 755;
}
);
unicode = 370;
},
{
color = 6;
glyphname = V;
kernLeft = V;
kernRight = V;
layers = (
{
anchors = (
{
name = bottom;
pos = (311,0);
},
{
name = top;
pos = (519,710);
}
);
layerId = "9372F035-DA38-4B54-966C-CEBA9B53DD02";
shapes = (
{
closed = 1;
nodes = (
(313,-8,l),
(721,598,ls),
(767,669,o),
(782,680,o),
(839,686,cs),
(860,688,l),
(868,713,l),
(746,710,l),
(627,713,l),
(619,688,l),
(638,686,ls),
(708,679,o),
(724,659,o),
(695,613,cs),
(328,67,l),
(356,74,l),
(314,611,ls),
(311,658,o),
(337,678,o),
(409,686,cs),
(430,688,l),
(438,713,l),
(292,710,l),
(149,713,l),
(141,688,l),
(160,686,ls),
(221,680,o),
(229,670,o),
(237,593,cs),
(287,-8,l)
);
}
);
width = 686;
},
{
anchors = (
{
name = bottom;
pos = (319,0);
},
{
name = top;
pos = (533,710);
}
);
layerId = m002;
shapes = (
{
closed = 1;
nodes = (
(364,0,l),
(731,557,ls),
(794,653,o),
(810,667,o),
(859,672,cs),
(869,673,l),
(882,713,l),
(761,711,l),
(640,713,l),
(627,673,l),
(658,671,ls),
(711,667,o),
(715,620,o),
(667,550,cs),
(352,75,l),
(404,75,l),
(370,587,ls),
(367,637,o),
(389,667,o),
(431,671,cs),
(453,673,l),
(466,713,l),
(297,710,l),
(159,713,l),
(146,673,l),
(167,671,ls),
(203,667,o),
(214,653,o),
(217,607,cs),
(260,0,l)
);
}
);
width = 713;
}
);
unicode = 86;
},
{
color = 6;
glyphname = W;
kernLeft = V;
kernRight = V;
layers = (
{
anchors = (
{
name = bottom;
pos = (501,0);
},
{
name = top;
pos = (667,710);
}
);
layerId = "9372F035-DA38-4B54-966C-CEBA9B53DD02";
shapes = (
{
closed = 1;
nodes = (
(318,-8,l),
(617,517,l),
(597,521,l),
(664,-8,l),
(690,-8,l),
(1030,598,ls),
(1068,665,o),
(1088,680,o),
(1148,686,cs),
(1169,688,l),
(1177,713,l),
(1055,710,l),
(918,713,l),
(910,688,l),
(947,686,ls),
(1015,682,o),
(1030,662,o),
(1004,613,cs),
(711,91,l),
(730,87,l),
(665,587,ls),
(657,648,o),
(682,678,o),
(745,683,cs),
(785,687,l),
(786,713,l),
(759,711,ls),
(694,706,o),
(664,694,o),
(637,663,c),
(661,667,l),
(650,690,o),
(620,705,o),
(574,710,cs),
(547,713,l),
(543,687,l),
(581,681,ls),
(639,674,o),
(647,636,o),
(606,562,cs),
(341,97,l),
(360,93,l),
(314,613,ls),
(310,655,o),
(333,676,o),
(395,686,cs),
(407,688,l),
(415,713,l),
(288,710,l),
(149,713,l),
(141,688,l),
(160,686,ls),
(221,680,o),
(229,670,o),
(237,593,cs),
(292,-8,l)
);
}
);
width = 1019;
},
{
anchors = (
{
name = bottom;
pos = (554,0);
},
{
name = top;
pos = (725,710);
}
);
layerId = m002;
shapes = (
{
closed = 1;
nodes = (
(388,0,l),
(675,529,l),
(643,529,l),
(714,0,l),
(823,-1,l),
(1121,556,ls),
(1171,647,o),
(1188,664,o),
(1239,671,cs),
(1247,672,l),
(1260,712,l),
(1149,710,l),
(1024,712,l),
(1011,672,l),
(1043,670,ls),
(1097,667,o),
(1102,627,o),
(1060,549,cs),
(829,116,l),
(848,116,l),
(787,586,ls),
(780,637,o),
(799,667,o),
(842,670,cs),
(867,672,l),
(867,713,l),
(804,710,ls),
(730,707,o),
(684,677,o),
(684,632,c),
(714,630,l),
(715,674,o),
(689,701,o),
(640,707,cs),
(589,713,l),
(582,673,l),
(612,670,ls),
(667,664,o),
(672,630,o),
(630,550,cs),
(397,117,l),
(417,117,l),
(371,587,ls),
(366,642,o),
(382,667,o),
(425,671,cs),
(447,673,l),
(460,713,l),
(309,710,l),
(159,713,l),
(146,673,l),
(165,671,ls),
(200,667,o),
(214,650,o),
(218,607,cs),
(279,0,l)
);
}
);
width = 1106;
}
);
metricLeft = V;
unicode = 87;
},
{
color = 6;
glyphname = X;
kernRight = X;
layers = (
{
anchors = (
{
name = bottom;
pos = (299,0);
},
{
name = top;
pos = (533,710);
}
);
layerId = "9372F035-DA38-4B54-966C-CEBA9B53DD02";
shapes = (
{
closed = 1;
nodes = (
(567,0,l),
(693,-2,l),
(702,23,l),
(683,25,ls),
(634,30,o),
(611,55,o),
(571,146,cs),
(380,581,ls),
(354,642,o),
(375,681,o),
(435,686,cs),
(456,688,l),
(465,713,l),
(316,710,l),
(187,713,l),
(178,688,l),
(197,686,ls),
(241,682,o),
(266,658,o),
(294,593,cs),
(507,104,ls),
(524,59,o),
(502,31,o),
(445,25,cs),
(424,23,l),
(415,-2,l)
);
},
{
closed = 1;
nodes = (
(86,1,l),
(207,-2,l),
(216,23,l),
(197,25,ls),
(121,32,o),
(104,62,o),
(152,104,cs),
(433,364,l),
(412,386,l),
(107,102,ls),
(54,54,o),
(17,31,o),
(-17,26,cs),
(-38,23,l),
(-47,-2,l)
);
},
{
closed = 1;
nodes = (
(718,609,ls),
(769,656,o),
(809,680,o),
(842,685,cs),
(863,688,l),
(872,713,l),
(746,710,l),
(618,713,l),
(609,688,l),
(628,686,ls),
(712,678,o),
(725,657,o),
(675,609,cs),
(427,382,l),
(448,360,l)
);
}
);
width = 744;
},
{
anchors = (
{
name = bottom;
pos = (302,0);
},
{
name = top;
pos = (568,710);
}
);
layerId = m002;
shapes = (
{
closed = 1;
nodes = (
(537,0,l),
(687,-3,l),
(700,37,l),
(682,39,ls),
(647,43,o),
(634,55,o),
(614,103,cs),
(426,558,ls),
(399,629,o),
(424,669,o),
(496,672,cs),
(516,673,l),
(529,713,l),
(343,710,l),
(175,713,l),
(162,673,l),
(181,671,ls),
(210,668,o),
(222,655,o),
(243,603,cs),
(430,152,ls),
(457,82,o),
(435,45,o),
(364,39,cs),
(341,37,l),
(328,-3,l)
);
},
{
closed = 1;
nodes = (
(92,-1,l),
(209,-3,l),
(222,37,l),
(191,39,ls),
(126,44,o),
(135,89,o),
(214,160,cs),
(396,326,l),
(360,361,l),
(111,137,ls),
(28,63,o),
(-2,42,o),
(-30,39,cs),
(-50,37,l),
(-63,-3,l)
);
},
{
closed = 1;
nodes = (
(702,573,ls),
(779,643,o),
(818,669,o),
(847,671,cs),
(868,673,l),
(881,713,l),
(737,711,l),
(616,713,l),
(603,673,l),
(629,671,ls),
(683,666,o),
(677,618,o),
(616,563,cs),
(435,402,l),
(471,365,l)
);
}
);
width = 760;
}
);
unicode = 88;
},
{
color = 6;
glyphname = Y;
kernLeft = Y;
kernRight = Y;
layers = (
{
anchors = (
{
name = bottom;
pos = (292,0);
},
{
name = top;
pos = (491,710);
}
);
layerId = "9372F035-DA38-4B54-966C-CEBA9B53DD02";
shapes = (
{
closed = 1;
nodes = (
(295,0,l),
(468,-3,l),
(477,22,l),
(458,24,ls),
(372,33,o),
(352,47,o),
(364,89,cs),
(420,287,l),
(670,601,ls),
(709,650,o),
(751,680,o),
(790,685,cs),
(811,688,l),
(820,713,l),
(694,710,l),
(566,713,l),
(557,688,l),
(576,686,ls),
(661,678,o),
(674,654,o),
(628,595,cs),
(386,291,l),
(414,285,l),
(338,581,ls),
(320,651,o),
(337,681,o),
(397,686,cs),
(418,688,l),
(427,713,l),
(281,710,l),
(150,713,l),
(141,688,l),
(160,686,ls),
(224,679,o),
(240,664,o),
(257,593,cs),
(336,275,l),
(288,102,ls),
(272,44,o),
(255,32,o),
(180,24,cs),
(159,22,l),
(150,-3,l)
);
}
);
width = 663;
},
{
anchors = (
{
name = bottom;
pos = (289,0);
},
{
name = top;
pos = (529,710);
}
);
layerId = m002;
shapes = (
{
closed = 1;
nodes = (
(282,0,l),
(441,-3,l),
(454,38,l),
(435,40,ls),
(379,46,o),
(374,59,o),
(398,133,cs),
(448,288,l),
(666,557,ls),
(740,647,o),
(765,666,o),
(818,672,cs),
(828,673,l),
(841,713,l),
(732,711,l),
(602,713,l),
(589,673,l),
(609,672,ls),
(664,669,o),
(660,629,o),
(633,596,cs),
(384,285,l),
(438,323,l),
(385,550,ls),
(366,631,o),
(379,666,o),
(429,671,cs),
(451,673,l),
(463,713,l),
(312,710,l),
(154,713,l),
(141,673,l),
(160,671,ls),
(195,667,o),
(204,656,o),
(216,607,cs),
(293,294,l),
(241,133,ls),
(217,58,o),
(205,45,o),
(157,40,cs),
(137,38,l),
(124,-3,l)
);
}
);
width = 682;
}
);
unicode = 89;
},
{
color = 6;
glyphname = Z;
kernLeft = I;
kernRight = I;
layers = (
{
anchors = (
{
name = bottom;
pos = (252,0);
},
{
name = top;
pos = (486,710);
}
);
layerId = "9372F035-DA38-4B54-966C-CEBA9B53DD02";
shapes = (
{
closed = 1;
nodes = (
(586,1,l),
(607,107,l),
(644,260,l),
(618,260,l),
(546,73,o),
(490,29,o),
(327,29,cs),
(78,29,l),
(85,9,l),
(762,703,l),
(758,713,l),
(666,710,l),
(236,710,l),
(159,506,l),
(185,506,l),
(258,655,o),
(296,685,o),
(415,685,cs),
(710,685,l),
(661,703,l),
(-16,9,l),
(-9,0,l)
);
}
);
width = 675;
},
{
anchors = (
{
name = bottom;
pos = (271,0);
},
{
name = top;
pos = (502,710);
}
);
layerId = m002;
shapes = (
{
closed = 1;
nodes = (
(605,0,l),
(620,72,l),
(673,264,l),
(633,264,l),
(572,108,o),
(474,44,o),
(296,44,cs),
(81,44,l),
(181,33,l),
(807,673,l),
(799,713,l),
(636,710,l),
(234,710,l),
(161,506,l),
(202,506,l),
(258,622,o),
(335,666,o),
(486,666,cs),
(688,666,l),
(630,700,l),
(-18,37,l),
(-30,0,l)
);
}
);
width = 691;
}
);
unicode = 90;
},
{
color = 6;
glyphname = J.ss01;
kernLeft = J;
kernRight = U;
layers = (
{
anchors = (
{
name = top;
pos = (487,710);
}
);
layerId = "9372F035-DA38-4B54-966C-CEBA9B53DD02";
shapes = (
{
closed = 1;
nodes = (
(206,-224,o),
(294,-85,o),
(451,386,cs),
(486,492,o),
(512,554,o),
(562,644,c),
(528,638,l),
(440,531,o),
(411,480,o),
(367,361,cs),
(358,335,o),
(386,416,o),
(305,183,cs),
(284,122,ls),
(206,-106,o),
(144,-201,o),
(74,-201,cs),
(60,-201,o),
(49,-197,o),
(42,-188,cs),
(37,-181,o),
(33,-171,o),
(27,-147,cs),
(17,-108,o),
(0,-90,o),
(-26,-90,cs),
(-53,-90,o),
(-71,-108,o),
(-71,-137,cs),
(-71,-185,o),
(-12,-224,o),
(63,-224,cs)
);
},
{
closed = 1;
nodes = (
(382,377,l),
(391,401,l),
(201,401,l),
(193,377,l)
);
},
{
closed = 1;
nodes = (
(533,377,l),
(541,401,l),
(416,401,l),
(410,377,l)
);
},
{
closed = 1;
nodes = (
(146,557,l),
(174,621,o),
(220,655,o),
(282,655,cs),
(307,655,o),
(328,651,o),
(404,633,cs),
(472,617,o),
(499,612,o),
(525,612,cs),
(606,612,o),
(693,656,o),
(693,696,cs),
(693,713,o),
(679,724,o),
(657,724,cs),
(626,724,o),
(588,702,o),
(543,657,cs),
(526,640,o),
(521,637,o),
(510,637,cs),
(493,637,o),
(475,646,o),
(441,671,cs),
(389,709,o),
(354,724,o),
(314,724,cs),
(235,724,o),
(157,655,o),
(124,557,c)
);
}
);
width = 555;
},
{
anchors = (
{
name = top;
pos = (484,710);
}
);
layerId = m002;
shapes = (
{
closed = 1;
nodes = (
(219,-224,o),
(333,-76,o),
(453,290,cs),
(512,471,o),
(539,545,o),
(571,623,c),
(477,597,l),
(427,569,o),
(373,488,o),
(330,376,cs),
(322,354,o),
(297,279,o),
(280,223,cs),
(231,65,ls),
(187,-81,o),
(132,-188,o),
(88,-188,cs),
(75,-188,o),
(68,-179,o),
(68,-165,cs),
(68,-150,o),
(78,-121,o),
(78,-99,cs),
(78,-59,o),
(49,-40,o),
(14,-40,cs),
(-31,-40,o),
(-77,-70,o),
(-77,-124,cs),
(-77,-176,o),
(-33,-224,o),
(58,-224,cs)
);
},
{
closed = 1;
nodes = (
(392,361,l),
(406,401,l),
(176,401,l),
(163,361,l)
);
},
{
closed = 1;
nodes = (
(583,361,l),
(596,401,l),
(431,401,l),
(420,361,l)
);
},
{
closed = 1;
nodes = (
(150,527,l),
(162,570,o),
(201,585,o),
(298,585,cs),
(333,585,o),
(365,584,o),
(407,580,cs),
(453,576,o),
(499,574,o),
(524,574,cs),
(622,574,o),
(702,617,o),
(702,678,cs),
(702,708,o),
(684,724,o),
(651,724,cs),
(610,724,o),
(560,698,o),
(512,651,cs),
(491,631,o),
(485,627,o),
(476,627,cs),
(469,627,o),
(463,631,o),
(453,641,cs),
(393,701,o),
(351,724,o),
(300,724,cs),
(210,724,o),
(137,645,o),
(118,527,c)
);
}
);
width = 572;
}
);
},
{
color = 6;
glyphname = Y.ss02;
kernLeft = Y;
kernRight = Y;
layers = (
{
anchors = (
{
name = bottom;
pos = (271,0);
},
{
name = top;
pos = (478,710);
}
);
layerId = "9372F035-DA38-4B54-966C-CEBA9B53DD02";
shapes = (
{
closed = 1;
nodes = (
(272,0,l),
(445,-3,l),
(454,22,l),
(435,24,ls),
(348,33,o),
(327,47,o),
(341,89,cs),
(442,393,ls),
(512,604,o),
(567,685,o),
(651,685,cs),
(702,685,o),
(734,647,o),
(734,579,c),
(758,579,l),
(758,608,ls),
(758,680,o),
(715,724,o),
(647,724,cs),
(556,724,o),
(489,667,o),
(433,541,c),
(446,537,l),
(455,653,o),
(404,722,o),
(310,722,cs),
(233,722,o),
(170,671,o),
(154,598,cs),
(150,579,l),
(174,579,l),
(186,644,o),
(230,685,o),
(289,685,cs),
(390,685,o),
(415,564,o),
(353,373,cs),
(265,102,ls),
(246,43,o),
(230,31,o),
(157,24,cs),
(136,22,l),
(127,-3,l)
);
}
);
width = 671;
},
{
anchors = (
{
name = bottom;
pos = (279,0);
},
{
name = top;
pos = (467,710);
}
);
layerId = m002;
shapes = (
{
closed = 1;
nodes = (
(274,0,l),
(433,-3,l),
(446,38,l),
(427,40,ls),
(365,46,o),
(361,57,o),
(385,133,cs),
(453,343,ls),
(530,581,o),
(583,665,o),
(654,665,cs),
(700,665,o),
(724,636,o),
(724,579,c),
(765,579,l),
(765,598,ls),
(765,681,o),
(723,724,o),
(642,724,cs),
(545,724,o),
(474,662,o),
(413,524,c),
(439,508,l),
(447,647,o),
(396,722,o),
(294,722,cs),
(213,722,o),
(149,674,o),
(129,598,cs),
(124,579,l),
(162,579,l),
(171,628,o),
(213,665,o),
(262,665,cs),
(350,665,o),
(365,541,o),
(301,343,cs),
(233,133,ls),
(209,57,o),
(198,45,o),
(149,40,cs),
(129,38,l),
(116,-3,l)
);
}
);
width = 682;
}
);
},
{
color = 6;
glyphname = a;
kernLeft = a;
kernRight = u;
layers = (
{
anchors = (
{
name = bottom;
pos = (183,0);
},
{
name = ogonek;
pos = (480,0);
},
{
name = top;
pos = (327,446);
}
);
layerId = m002;
shapes = (
{
closed = 1;
nodes = (
(225,-14,o),
(307,42,o),
(353,131,c),
(339,150,l),
(303,42,o),
(325,-14,o),
(403,-14,cs),
(467,-14,o),
(521,24,o),
(552,93,c),
(524,110,l),
(502,67,o),
(482,45,o),
(466,45,cs),
(449,45,o),
(447,65,o),
(460,104,cs),
(571,446,l),
(429,446,l),
(379,294,l),
(397,293,l),
(428,389,o),
(385,460,o),
(296,460,cs),
(159,460,o),
(17,291,o),
(17,129,cs),
(17,38,o),
(63,-14,o),
(143,-14,cs)
);
},
{
closed = 1;
nodes = (
(183,52,o),
(167,74,o),
(167,116,cs),
(167,233,o),
(262,393,o),
(331,393,cs),
(360,393,o),
(376,370,o),
(376,328,cs),
(376,300,o),
(369,262,o),
(356,224,cs),
(322,120,o),
(266,52,o),
(214,52,cs)
);
}
);
width = 582;
},
{
anchors = (
{
name = bottom;
pos = (196,0);
},
{
name = ogonek;
pos = (440,0);
},
{
name = top;
pos = (332,440);
}
);
layerId = "9372F035-DA38-4B54-966C-CEBA9B53DD02";
name = Italic;
shapes = (
{
closed = 1;
nodes = (
(227,-14,o),
(286,25,o),
(335,105,c),
(333,116,l),
(302,33,o),
(317,-14,o),
(373,-14,cs),
(418,-14,o),
(461,17,o),
(495,75,c),
(477,87,l),
(455,48,o),
(423,19,o),
(401,19,cs),
(382,19,o),
(380,43,o),
(394,85,cs),
(516,440,l),
(450,440,l),
(405,317,l),
(415,319,l),
(418,409,o),
(384,454,o),
(312,454,cs),
(175,454,o),
(27,286,o),
(27,130,cs),
(27,42,o),
(70,-14,o),
(158,-14,cs)
);
},
{
closed = 1;
nodes = (
(123,14,o),
(100,47,o),
(100,111,cs),
(100,254,o),
(220,429,o),
(325,429,cs),
(368,429,o),
(392,395,o),
(392,338,cs),
(392,311,o),
(388,276,o),
(376,239,cs),
(334,105,o),
(248,14,o),
(170,14,cs)
);
}
);
width = 536;
}
);
unicode = 97;
},
{
color = 6;
glyphname = ae;
kernLeft = a;
kernRight = e;
layers = (
{
anchors = (
{
name = bottom;
pos = (256,0);
},
{
name = top;
pos = (397,440);
}
);
layerId = "9372F035-DA38-4B54-966C-CEBA9B53DD02";
shapes = (
{
closed = 1;
nodes = (
(483,-14,o),
(532,14,o),
(578,76,c),
(561,90,l),
(524,43,o),
(480,16,o),
(437,16,cs),
(379,16,o),
(346,61,o),
(346,138,cs),
(346,244,o),
(435,432,o),
(544,432,cs),
(571,432,o),
(587,415,o),
(587,382,cs),
(587,317,o),
(526,267,o),
(436,253,cs),
(347,239,l),
(348,216,l),
(487,237,ls),
(587,252,o),
(648,302,o),
(648,366,cs),
(648,419,o),
(608,452,o),
(545,452,cs),
(483,452,o),
(414,422,o),
(363,365,c),
(381,360,l),
(381,422,o),
(340,454,o),
(262,454,cs),
(169,454,o),
(96,409,o),
(96,352,cs),
(96,326,o),
(111,311,o),
(135,311,cs),
(162,311,o),
(181,330,o),
(181,356,cs),
(181,399,o),
(215,432,o),
(261,432,cs),
(317,432,o),
(334,383,o),
(307,302,cs),
(288,244,ls),
(278,214,o),
(273,182,o),
(273,151,cs),
(273,47,o),
(328,-14,o),
(421,-14,cs)
);
},
{
closed = 1;
nodes = (
(184,-14,o),
(248,24,o),
(291,88,c),
(282,118,l),
(255,66,o),
(197,22,o),
(148,22,cs),
(115,22,o),
(98,42,o),
(98,71,cs),
(98,139,o),
(181,195,o),
(302,215,c),
(296,237,l),
(135,211,o),
(23,141,o),
(23,62,cs),
(23,17,o),
(62,-14,o),
(120,-14,cs)
);
}
);
width = 655;
},
{
anchors = (
{
name = bottom;
pos = (323,0);
},
{
name = top;
pos = (477,446);
}
);
layerId = m002;
shapes = (
{
closed = 1;
nodes = (
(593,-14,o),
(666,28,o),
(708,105,c),
(681,126,l),
(635,63,o),
(590,35,o),
(535,35,cs),
(483,35,o),
(456,70,o),
(456,138,cs),
(456,254,o),
(549,424,o),
(613,424,cs),
(634,424,o),
(645,408,o),
(645,379,cs),
(645,313,o),
(588,267,o),
(491,254,cs),
(461,250,l),
(451,213,l),
(512,221,ls),
(686,244,o),
(776,292,o),
(776,364,cs),
(776,422,o),
(718,460,o),
(630,460,cs),
(560,460,o),
(493,437,o),
(433,391,c),
(478,381,l),
(468,433,o),
(421,460,o),
(340,460,cs),
(218,460,o),
(110,398,o),
(110,329,cs),
(110,297,o),
(132,278,o),
(169,278,cs),
(213,278,o),
(240,305,o),
(240,351,cs),
(240,396,o),
(267,424,o),
(311,424,cs),
(358,424,o),
(373,391,o),
(354,331,cs),
(329,254,ls),
(317,217,o),
(312,189,o),
(312,161,cs),
(312,53,o),
(384,-14,o),
(501,-14,cs)
);
},
{
closed = 1;
nodes = (
(209,-14,o),
(297,37,o),
(346,112,c),
(324,143,l),
(294,92,o),
(240,52,o),
(201,52,cs),
(177,52,o),
(161,67,o),
(161,91,cs),
(161,141,o),
(232,189,o),
(335,209,c),
(341,243,l),
(145,219,o),
(24,152,o),
(24,69,cs),
(24,19,o),
(65,-14,o),
(128,-14,cs)
);
}
);
width = 767;
}
);
metricRight = e;
unicode = 230;
},
{
color = 6;
glyphname = b;
kernLeft = l;
kernRight = b;
layers = (
{
anchors = (
{
name = bottom;
pos = (178,0);
},
{
name = top;
pos = (376,710);
}
);
layerId = "9372F035-DA38-4B54-966C-CEBA9B53DD02";
shapes = (
{
closed = 1;
nodes = (
(329,-14,o),
(464,145,o),
(464,304,cs),
(464,402,o),
(415,454,o),
(337,454,cs),
(275,454,o),
(213,413,o),
(174,351,c),
(179,343,l),
(297,713,l),
(135,710,l),
(128,686,l),
(148,686,ls),
(199,686,o),
(212,667,o),
(195,615,cs),
(72,233,ls),
(20,72,o),
(56,-14,o),
(175,-14,cs)
);
},
{
closed = 1;
nodes = (
(111,8,o),
(93,96,o),
(138,221,cs),
(157,274,ls),
(187,358,o),
(260,426,o),
(321,426,cs),
(366,426,o),
(390,388,o),
(390,319,cs),
(390,172,o),
(280,8,o),
(182,8,cs)
);
}
);
width = 498;
},
{
anchors = (
{
name = bottom;
pos = (219,0);
},
{
name = top;
pos = (439,710);
}
);
layerId = m002;
shapes = (
{
closed = 1;
nodes = (
(387,-14,o),
(539,130,o),
(539,298,cs),
(539,396,o),
(488,460,o),
(409,460,cs),
(340,460,o),
(265,412,o),
(222,342,c),
(245,343,l),
(366,713,l),
(138,710,l),
(128,676,l),
(149,676,ls),
(197,676,o),
(205,660,o),
(187,604,cs),
(69,243,ls),
(14,74,o),
(61,-14,o),
(204,-14,cs)
);
},
{
closed = 1;
nodes = (
(168,37,o),
(159,105,o),
(201,218,cs),
(213,250,ls),
(246,338,o),
(297,394,o),
(344,394,cs),
(373,394,o),
(388,372,o),
(388,323,cs),
(388,200,o),
(295,37,o),
(218,37,cs)
);
}
);
width = 564;
}
);
unicode = 98;
},
{
color = 6;
glyphname = c;
kernLeft = o;
kernRight = o;
layers = (
{
anchors = (
{
name = bottom;
pos = (205,0);
},
{
name = top;
pos = (316,440);
}
);
layerId = "9372F035-DA38-4B54-966C-CEBA9B53DD02";
shapes = (
{
closed = 1;
nodes = (
(275,-14,o),
(335,24,o),
(369,90,c),
(351,103,l),
(317,49,o),
(266,16,o),
(215,16,cs),
(152,16,o),
(111,68,o),
(111,149,cs),
(111,282,o),
(223,432,o),
(323,432,cs),
(350,432,o),
(359,421,o),
(359,388,cs),
(359,372,ls),
(359,344,o),
(374,327,o),
(400,327,cs),
(426,327,o),
(445,349,o),
(445,379,cs),
(445,425,o),
(402,454,o),
(333,454,cs),
(181,454,o),
(36,308,o),
(36,154,cs),
(36,53,o),
(102,-14,o),
(201,-14,cs)
);
}
);
width = 439;
},
{
anchors = (
{
name = bottom;
pos = (208,0);
},
{
name = top;
pos = (328,446);
}
);
layerId = m002;
shapes = (
{
closed = 1;
nodes = (
(306,-14,o),
(380,30,o),
(421,107,c),
(394,125,l),
(355,68,o),
(305,36,o),
(255,36,cs),
(201,36,o),
(170,73,o),
(170,141,cs),
(170,262,o),
(266,424,o),
(339,424,cs),
(360,424,o),
(369,411,o),
(367,381,cs),
(365,350,ls),
(363,313,o),
(385,288,o),
(421,288,cs),
(462,288,o),
(490,317,o),
(490,358,cs),
(490,418,o),
(429,460,o),
(341,460,cs),
(176,460,o),
(20,317,o),
(20,166,cs),
(20,59,o),
(99,-14,o),
(216,-14,cs)
);
}
);
width = 475;
}
);
metricLeft = o;
unicode = 99;
},
{
color = 6;
glyphname = d;
kernLeft = o;
kernRight = l;
layers = (
{
anchors = (
{
name = bottom;
pos = (181,0);
},
{
name = center;
pos = (503,570);
},
{
name = top;
pos = (403,710);
},
{
name = topright;
pos = (617,710);
}
);
layerId = "9372F035-DA38-4B54-966C-CEBA9B53DD02";
shapes = (
{
closed = 1;
nodes = (
(231,-14,o),
(300,35,o),
(343,120,c),
(336,126,l),
(305,33,o),
(318,-14,o),
(375,-14,cs),
(421,-14,o),
(463,16,o),
(498,75,c),
(480,87,l),
(458,48,o),
(426,19,o),
(405,19,cs),
(386,19,o),
(382,42,o),
(396,85,cs),
(600,713,l),
(438,710,l),
(431,686,l),
(458,686,ls),
(505,686,o),
(514,670,o),
(496,614,cs),
(404,332,l),
(416,336,l),
(416,413,o),
(382,454,o),
(313,454,cs),
(174,454,o),
(26,287,o),
(26,126,cs),
(26,38,o),
(73,-14,o),
(154,-14,cs)
);
},
{
closed = 1;
nodes = (
(121,14,o),
(97,49,o),
(99,117,cs),
(104,264,o),
(223,429,o),
(324,429,cs),
(369,429,o),
(394,397,o),
(394,341,cs),
(394,306,o),
(384,257,o),
(365,208,cs),
(321,94,o),
(241,14,o),
(169,14,cs)
);
}
);
width = 550;
},
{
anchors = (
{
name = bottom;
pos = (211,0);
},
{
name = center;
pos = (537,568);
},
{
name = top;
pos = (441,710);
},
{
name = topright;
pos = (669,710);
}
);
layerId = m002;
shapes = (
{
closed = 1;
nodes = (
(216,-14,o),
(301,35,o),
(351,131,c),
(334,150,l),
(308,72,o),
(299,-14,o),
(397,-14,cs),
(462,-14,o),
(516,24,o),
(547,93,c),
(519,111,l),
(495,64,o),
(475,45,o),
(461,45,cs),
(444,45,o),
(442,65,o),
(455,104,cs),
(653,713,l),
(426,710,l),
(416,676,l),
(437,676,ls),
(491,676,o),
(491,652,o),
(475,604,cs),
(374,294,l),
(395,294,l),
(426,393,o),
(382,460,o),
(293,460,cs),
(142,460,o),
(16,270,o),
(16,127,cs),
(16,48,o),
(54,-14,o),
(140,-14,cs)
);
},
{
closed = 1;
nodes = (
(182,52,o),
(166,74,o),
(166,116,cs),
(166,210,o),
(248,393,o),
(329,393,cs),
(359,393,o),
(375,369,o),
(375,326,cs),
(375,297,o),
(366,260,o),
(354,222,cs),
(327,138,o),
(275,52,o),
(213,52,cs)
);
}
);
width = 589;
}
);
metricLeft = a;
metricRight = l;
unicode = 100;
},
{
color = 3;
glyphname = dcroat;
kernLeft = o;
kernRight = l;
layers = (
{
layerId = "9372F035-DA38-4B54-966C-CEBA9B53DD02";
shapes = (
{
ref = d;
},
{
closed = 1;
nodes = (
(631,560,l),
(638,584,l),
(326,584,l),
(319,560,l)
);
}
);
width = 540;
},
{
layerId = m002;
shapes = (
{
ref = d;
},
{
closed = 1;
nodes = (
(668,548,l),
(681,588,l),
(337,588,l),
(324,548,l)
);
}
);
width = 581;
}
);
unicode = 273;
},
{
color = 6;
glyphname = eth;
kernLeft = o;
kernRight = O;
layers = (
{
layerId = "9372F035-DA38-4B54-966C-CEBA9B53DD02";
shapes = (
{
closed = 1;
nodes = (
(358,-14,o),
(492,160,o),
(492,370,cs),
(492,514,o),
(424,645,o),
(310,724,c),
(295,713,l),
(396,602,o),
(426,525,o),
(426,387,c),
(439,380,l),
(419,429,o),
(378,454,o),
(319,454,cs),
(172,454,o),
(37,310,o),
(37,153,cs),
(37,48,o),
(96,-14,o),
(196,-14,cs)
);
},
{
closed = 1;
nodes = (
(137,8,o),
(108,48,o),
(108,122,cs),
(108,270,o),
(223,432,o),
(328,432,cs),
(380,432,o),
(409,391,o),
(409,317,cs),
(409,170,o),
(294,8,o),
(189,8,cs)
);
},
{
closed = 1;
nodes = (
(519,628,l),
(512,661,l),
(252,594,l),
(257,572,l)
);
}
);
width = 511;
},
{
layerId = m002;
shapes = (
{
closed = 1;
nodes = (
(388,-14,o),
(528,143,o),
(528,344,cs),
(528,491,o),
(451,641,o),
(331,724,c),
(296,707,l),
(379,584,o),
(410,464,o),
(380,371,c),
(458,394,l),
(423,437,o),
(376,459,o),
(320,459,cs),
(163,459,o),
(20,315,o),
(20,158,cs),
(20,51,o),
(91,-14,o),
(208,-14,cs)
);
},
{
closed = 1;
nodes = (
(183,31,o),
(166,59,o),
(166,106,cs),
(166,247,o),
(256,414,o),
(332,414,cs),
(363,414,o),
(378,387,o),
(378,331,cs),
(378,196,o),
(286,31,o),
(211,31,cs)
);
},
{
closed = 1;
nodes = (
(540,619,l),
(530,668,l),
(244,592,l),
(252,560,l)
);
}
);
width = 538;
}
);
metricLeft = o;
metricRight = o;
unicode = 240;
},
{
color = 6;
glyphname = e;
kernLeft = o;
kernRight = o;
layers = (
{
anchors = (
{
name = bottom;
pos = (187,0);
},
{
name = ogonek;
pos = (276,0);
},
{
name = top;
pos = (299,440);
}
);
layerId = "9372F035-DA38-4B54-966C-CEBA9B53DD02";
shapes = (
{
closed = 1;
nodes = (
(247,-14,o),
(298,15,o),
(341,76,c),
(324,90,l),
(288,43,o),
(243,16,o),
(200,16,cs),
(143,16,o),
(110,61,o),
(110,137,cs),
(110,274,o),
(217,432,o),
(306,432,cs),
(335,432,o),
(351,415,o),
(351,382,cs),
(351,317,o),
(288,265,o),
(194,252,cs),
(122,242,l),
(119,221,l),
(215,231,ls),
(339,244,o),
(412,294,o),
(412,365,cs),
(412,419,o),
(372,452,o),
(307,452,cs),
(171,452,o),
(37,306,o),
(37,154,cs),
(37,52,o),
(96,-14,o),
(187,-14,cs)
);
}
);
width = 418;
},
{
anchors = (
{
name = bottom;
pos = (201,0);
},
{
name = ogonek;
pos = (319,0);
},
{
name = top;
pos = (323,446);
}
);
layerId = m002;
shapes = (
{
closed = 1;
nodes = (
(302,-14,o),
(374,28,o),
(416,104,c),
(389,126,l),
(345,65,o),
(296,35,o),
(246,35,cs),
(191,35,o),
(164,70,o),
(164,136,cs),
(164,257,o),
(255,424,o),
(321,424,cs),
(341,424,o),
(353,408,o),
(353,377,cs),
(353,313,o),
(301,266,o),
(212,253,cs),
(136,242,l),
(133,211,l),
(243,220,ls),
(389,232,o),
(483,290,o),
(483,364,cs),
(483,423,o),
(424,460,o),
(339,460,cs),
(172,460,o),
(20,318,o),
(20,162,cs),
(20,54,o),
(93,-14,o),
(210,-14,cs)
);
}
);
width = 476;
}
);
metricLeft = o;
unicode = 101;
},
{
color = 6;
glyphname = eogonek;
layers = (
{
anchors = (
{
name = top;
pos = (299,440);
}
);
layerId = "9372F035-DA38-4B54-966C-CEBA9B53DD02";
shapes = (
{
closed = 1;
nodes = (
(235,-283,o),
(296,-239,o),
(328,-173,c),
(313,-160,l),
(285,-203,o),
(247,-227,o),
(208,-227,cs),
(170,-227,o),
(146,-205,o),
(146,-168,cs),
(146,-122,o),
(189,-59,o),
(256,-6,cs),
(300,28,o),
(324,52,o),
(341,76,c),
(324,90,l),
(288,43,o),
(243,16,o),
(200,16,cs),
(143,16,o),
(110,61,o),
(110,137,cs),
(110,275,o),
(214,432,o),
(306,432,cs),
(335,432,o),
(351,415,o),
(351,382,cs),
(351,317,o),
(288,265,o),
(194,252,cs),
(123,242,l),
(116,220,l),
(215,231,ls),
(339,244,o),
(412,294,o),
(412,365,cs),
(412,419,o),
(372,452,o),
(307,452,cs),
(170,452,o),
(37,305,o),
(37,154,cs),
(37,52,o),
(96,-14,o),
(187,-14,cs),
(205,-14,o),
(223,-11,o),
(241,-6,c),
(246,10,l),
(135,-78,o),
(85,-142,o),
(85,-199,cs),
(85,-248,o),
(123,-283,o),
(177,-283,cs)
);
}
);
width = 418;
},
{
anchors = (
{
name = top;
pos = (323,446);
}
);
layerId = m002;
shapes = (
{
closed = 1;
nodes = (
(267,-283,o),
(324,-242,o),
(360,-169,c),
(338,-151,l),
(312,-190,o),
(287,-207,o),
(256,-207,cs),
(225,-207,o),
(206,-188,o),
(206,-156,cs),
(206,-110,o),
(240,-60,o),
(336,17,cs),
(366,41,o),
(396,67,o),
(416,104,c),
(389,126,l),
(345,65,o),
(296,35,o),
(246,35,cs),
(191,35,o),
(164,70,o),
(164,136,cs),
(164,223,o),
(237,424,o),
(321,424,cs),
(341,424,o),
(353,408,o),
(353,377,cs),
(353,313,o),
(301,266,o),
(212,253,cs),
(176,248,l),
(165,213,l),
(243,220,ls),
(389,232,o),
(483,290,o),
(483,364,cs),
(483,423,o),
(424,460,o),
(339,460,cs),
(172,460,o),
(20,318,o),
(20,162,cs),
(20,54,o),
(93,-14,o),
(210,-14,cs),
(238,-14,o),
(267,-10,o),
(287,-2,c),
(312,25,l),
(159,-60,o),
(95,-124,o),
(95,-191,cs),
(95,-246,o),
(137,-283,o),
(200,-283,cs)
);
}
);
width = 476;
}
);
unicode = 281;
},
{
color = 6;
glyphname = f;
kernLeft = f;
kernRight = f;
layers = (
{
anchors = (
{
name = top;
pos = (314,710);
}
);
layerId = "9372F035-DA38-4B54-966C-CEBA9B53DD02";
shapes = (
{
closed = 1;
nodes = (
(-14,-290,o),
(34,-246,o),
(73,-127,cs),
(315,611,ls),
(334,669,o),
(369,702,o),
(407,702,cs),
(432,702,o),
(441,688,o),
(441,651,cs),
(441,618,o),
(455,601,o),
(481,601,cs),
(511,601,o),
(528,623,o),
(528,652,cs),
(528,698,o),
(487,724,o),
(422,724,cs),
(326,724,o),
(262,668,o),
(224,552,cs),
(1,-127,ls),
(-30,-221,o),
(-61,-268,o),
(-93,-268,cs),
(-108,-268,o),
(-116,-258,o),
(-126,-224,cs),
(-137,-184,o),
(-149,-170,o),
(-173,-170,cs),
(-201,-170,o),
(-222,-190,o),
(-222,-219,cs),
(-222,-263,o),
(-178,-290,o),
(-107,-290,cs)
);
},
{
closed = 1;
nodes = (
(199,416,l),
(207,440,l),
(99,440,l),
(91,416,l)
);
},
{
closed = 1;
nodes = (
(358,416,l),
(366,440,l),
(242,440,l),
(234,416,l)
);
}
);
width = 330;
},
{
anchors = (
{
name = top;
pos = (323,710);
}
);
layerId = m002;
shapes = (
{
closed = 1;
nodes = (
(6,-294,o),
(85,-241,o),
(126,-117,cs),
(339,533,ls),
(381,661,o),
(397,688,o),
(426,688,cs),
(444,688,o),
(448,677,o),
(448,632,cs),
(448,581,o),
(466,560,o),
(510,560,cs),
(558,560,o),
(594,586,o),
(594,635,cs),
(594,692,o),
(544,724,o),
(445,724,cs),
(317,724,o),
(240,671,o),
(199,547,cs),
(-14,-103,ls),
(-54,-226,o),
(-72,-258,o),
(-100,-258,cs),
(-119,-258,o),
(-123,-247,o),
(-123,-203,cs),
(-123,-151,o),
(-146,-130,o),
(-189,-130,cs),
(-237,-130,o),
(-269,-159,o),
(-269,-203,cs),
(-269,-260,o),
(-213,-294,o),
(-116,-294,cs)
);
},
{
closed = 1;
nodes = (
(185,406,l),
(197,446,l),
(96,446,l),
(83,406,l)
);
},
{
closed = 1;
nodes = (
(405,406,l),
(418,446,l),
(265,446,l),
(252,406,l)
);
}
);
width = 365;
}
);
metricRight = f;
unicode = 102;
},
{
color = 6;
glyphname = g;
kernLeft = g;
kernRight = g;
layers = (
{
anchors = (
{
name = bottom;
pos = (155,-280);
},
{
name = top;
pos = (308,440);
}
);
layerId = "9372F035-DA38-4B54-966C-CEBA9B53DD02";
shapes = (
{
closed = 1;
nodes = (
(304,-290,o),
(400,-217,o),
(400,-113,cs),
(400,-37,o),
(349,9,o),
(251,21,cs),
(131,36,ls),
(89,41,o),
(64,58,o),
(64,81,cs),
(64,112,o),
(100,141,o),
(167,164,c),
(152,181,l),
(66,152,o),
(21,110,o),
(21,57,cs),
(21,7,o),
(61,-25,o),
(136,-35,cs),
(265,-52,ls),
(323,-60,o),
(355,-91,o),
(355,-139,cs),
(355,-214,o),
(276,-268,o),
(167,-268,cs),
(85,-268,o),
(27,-238,o),
(27,-196,cs),
(27,-186,o),
(30,-177,o),
(37,-159,cs),
(44,-139,o),
(46,-132,o),
(46,-124,cs),
(46,-105,o),
(34,-83,o),
(7,-83,cs),
(-24,-83,o),
(-47,-112,o),
(-47,-147,cs),
(-47,-206,o),
(19,-290,o),
(167,-290,cs)
);
},
{
closed = 1;
nodes = (
(356,134,o),
(447,214,o),
(447,314,cs),
(447,397,o),
(385,453,o),
(292,453,cs),
(181,453,o),
(91,373,o),
(91,274,cs),
(91,191,o),
(153,134,o),
(246,134,cs)
);
},
{
closed = 1;
nodes = (
(189,158,o),
(160,194,o),
(160,257,cs),
(160,349,o),
(220,429,o),
(296,429,cs),
(346,429,o),
(378,394,o),
(378,331,cs),
(378,240,o),
(315,158,o),
(241,158,cs)
);
},
{
closed = 1;
nodes = (
(560,378,o),
(575,398,o),
(575,420,cs),
(575,451,o),
(546,478,o),
(503,478,cs),
(457,478,o),
(406,450,o),
(384,413,c),
(402,403,l),
(432,436,o),
(451,449,o),
(469,449,cs),
(488,449,o),
(492,435,o),
(492,417,cs),
(492,391,o),
(512,378,o),
(533,378,cs)
);
}
);
width = 534;
},
{
anchors = (
{
name = bottom;
pos = (168,-280);
},
{
name = top;
pos = (283,446);
}
);
layerId = m002;
shapes = (
{
closed = 1;
nodes = (
(311,-290,o),
(447,-235,o),
(447,-103,cs),
(447,-29,o),
(403,32,o),
(273,49,cs),
(150,65,ls),
(112,70,o),
(95,80,o),
(95,97,cs),
(95,120,o),
(122,149,o),
(173,165,c),
(135,179,l),
(38,147,o),
(-2,98,o),
(-2,40,cs),
(-2,-14,o),
(34,-56,o),
(146,-71,cs),
(265,-87,ls),
(316,-94,o),
(344,-117,o),
(344,-156,cs),
(344,-196,o),
(294,-252,o),
(180,-252,cs),
(98,-252,o),
(77,-221,o),
(77,-197,cs),
(77,-185,o),
(79,-173,o),
(84,-158,cs),
(88,-144,o),
(89,-140,o),
(89,-134,cs),
(89,-111,o),
(68,-81,o),
(17,-81,cs),
(-42,-81,o),
(-73,-121,o),
(-73,-157,cs),
(-73,-213,o),
(1,-290,o),
(166,-290,cs)
);
},
{
closed = 1;
nodes = (
(391,139,o),
(493,216,o),
(493,317,cs),
(493,404,o),
(418,461,o),
(304,461,cs),
(168,461,o),
(67,385,o),
(67,281,cs),
(67,195,o),
(141,139,o),
(256,139,cs)
);
},
{
closed = 1;
nodes = (
(226,175,o),
(204,207,o),
(204,257,cs),
(204,343,o),
(252,423,o),
(303,423,cs),
(336,423,o),
(356,392,o),
(356,342,cs),
(356,257,o),
(309,175,o),
(261,175,cs)
);
},
{
closed = 1;
nodes = (
(589,385,o),
(614,416,o),
(614,455,cs),
(614,495,o),
(586,530,o),
(529,530,cs),
(468,530,o),
(419,488,o),
(393,428,c),
(424,415,l),
(438,442,o),
(461,461,o),
(477,461,cs),
(490,461,o),
(495,451,o),
(495,432,cs),
(495,402,o),
(516,385,o),
(549,385,cs)
);
}
);
width = 562;
}
);
unicode = 103;
},
{
color = 6;
glyphname = h;
kernLeft = l;
kernRight = n;
layers = (
{
anchors = (
{
name = bottom;
pos = (194,0);
},
{
name = center;
pos = (249,570);
},
{
name = top;
pos = (401,710);
}
);
layerId = "9372F035-DA38-4B54-966C-CEBA9B53DD02";
shapes = (
{
closed = 1;
nodes = (
(401,-14,o),
(444,16,o),
(478,72,c),
(460,84,l),
(437,45,o),
(405,19,o),
(384,19,cs),
(364,19,o),
(362,41,o),
(376,80,cs),
(466,331,ls),
(494,408,o),
(468,454,o),
(393,454,cs),
(319,454,o),
(248,410,o),
(189,327,c),
(191,313,l),
(321,713,l),
(159,710,l),
(152,686,l),
(171,686,ls),
(223,686,o),
(235,667,o),
(218,615,cs),
(17,-1,l),
(89,0,l),
(173,257,ls),
(199,336,o),
(304,429,o),
(369,429,cs),
(405,429,o),
(418,401,o),
(402,356,cs),
(315,110,ls),
(287,31,o),
(301,-14,o),
(356,-14,cs)
);
}
);
width = 526;
},
{
anchors = (
{
name = bottom;
pos = (228,0);
},
{
name = center;
pos = (265,570);
},
{
name = top;
pos = (453,710);
}
);
layerId = m002;
shapes = (
{
closed = 1;
nodes = (
(485,-14,o),
(540,23,o),
(572,93,c),
(544,111,l),
(523,68,o),
(503,45,o),
(486,45,cs),
(469,45,o),
(467,65,o),
(480,104,cs),
(546,299,ls),
(582,405,o),
(554,460,o),
(463,460,cs),
(341,460,o),
(229,364,o),
(185,221,c),
(220,226,l),
(382,713,l),
(152,710,l),
(141,676,l),
(162,676,ls),
(210,676,o),
(218,659,o),
(200,604,cs),
(4,0,l),
(149,0,l),
(224,226,ls),
(256,322,o),
(321,394,o),
(377,394,cs),
(411,394,o),
(423,366,o),
(408,321,cs),
(343,131,ls),
(310,33,o),
(332,-14,o),
(412,-14,cs)
);
}
);
width = 604;
}
);
metricRight = n;
unicode = 104;
},
{
color = 3;
glyphname = hbar;
kernLeft = l;
kernRight = n;
layers = (
{
layerId = "9372F035-DA38-4B54-966C-CEBA9B53DD02";
shapes = (
{
closed = 1;
nodes = (
(411,560,l),
(419,584,l),
(120,584,l),
(112,560,l)
);
},
{
ref = h;
}
);
width = 526;
},
{
layerId = m002;
shapes = (
{
closed = 1;
nodes = (
(472,550,l),
(485,590,l),
(115,590,l),
(102,550,l)
);
},
{
ref = h;
}
);
width = 594;
}
);
unicode = 295;
},
{
color = 6;
glyphname = idotless;
kernLeft = n;
kernRight = u;
layers = (
{
anchors = (
{
name = bottom;
pos = (84,0);
},
{
name = ogonek;
pos = (166,0);
},
{
name = top;
pos = (202,440);
}
);
layerId = "9372F035-DA38-4B54-966C-CEBA9B53DD02";
shapes = (
{
closed = 1;
nodes = (
(144,-14,o),
(187,17,o),
(221,75,c),
(203,87,l),
(180,46,o),
(149,19,o),
(126,19,cs),
(107,19,o),
(105,41,o),
(120,85,cs),
(246,443,l),
(84,440,l),
(77,416,l),
(106,416,ls),
(155,416,o),
(164,398,o),
(144,344,cs),
(58,113,ls),
(28,31,o),
(43,-14,o),
(99,-14,cs)
);
}
);
width = 278;
},
{
anchors = (
{
name = bottom;
pos = (86,0);
},
{
name = ogonek;
pos = (196,0);
},
{
name = top;
pos = (197,446);
}
);
layerId = m002;
shapes = (
{
closed = 1;
nodes = (
(182,-14,o),
(238,23,o),
(270,93,c),
(242,111,l),
(221,68,o),
(201,45,o),
(184,45,cs),
(167,45,o),
(165,65,o),
(178,104,cs),
(292,449,l),
(62,446,l),
(51,412,l),
(72,412,ls),
(120,412,o),
(128,395,o),
(110,340,cs),
(41,131,ls),
(9,34,o),
(30,-14,o),
(111,-14,cs)
);
}
);
width = 296;
}
);
unicode = 305;
},
{
color = 6;
glyphname = jdotless;
kernLeft = j;
kernRight = j;
layers = (
{
anchors = (
{
name = top;
pos = (206,440);
}
);
layerId = "9372F035-DA38-4B54-966C-CEBA9B53DD02";
shapes = (
{
closed = 1;
nodes = (
(-21,-290,o),
(31,-243,o),
(67,-132,cs),
(254,443,l),
(92,440,l),
(84,416,l),
(114,416,ls),
(161,416,o),
(169,401,o),
(151,344,cs),
(-2,-127,ls),
(-34,-225,o),
(-61,-268,o),
(-90,-268,cs),
(-105,-268,o),
(-113,-259,o),
(-122,-235,cs),
(-130,-213,ls),
(-142,-180,o),
(-152,-170,o),
(-173,-170,cs),
(-201,-170,o),
(-222,-190,o),
(-222,-219,cs),
(-222,-262,o),
(-178,-290,o),
(-110,-290,cs)
);
}
);
width = 270;
},
{
anchors = (
{
name = top;
pos = (215,446);
}
);
layerId = m002;
shapes = (
{
closed = 1;
nodes = (
(-1,-294,o),
(76,-238,o),
(116,-117,cs),
(303,449,l),
(72,446,l),
(61,412,l),
(82,412,ls),
(130,412,o),
(138,396,o),
(120,340,cs),
(-24,-103,ls),
(-64,-227,o),
(-81,-258,o),
(-108,-258,cs),
(-124,-258,o),
(-130,-248,o),
(-132,-215,cs),
(-133,-199,ls),
(-136,-151,o),
(-156,-130,o),
(-198,-130,cs),
(-247,-130,o),
(-279,-159,o),
(-279,-203,cs),
(-279,-260,o),
(-222,-294,o),
(-126,-294,cs)
);
}
);
width = 294;
}
);
unicode = 567;
},
{
color = 6;
glyphname = k;
kernLeft = l;
kernRight = k;
layers = (
{
anchors = (
{
name = bottom;
pos = (177,0);
},
{
name = top;
pos = (397,710);
}
);
layerId = "9372F035-DA38-4B54-966C-CEBA9B53DD02";
shapes = (
{
closed = 1;
nodes = (
(89,0,l),
(320,713,l),
(159,710,l),
(152,686,l),
(171,686,ls),
(222,686,o),
(235,667,o),
(218,615,cs),
(17,0,l)
);
},
{
closed = 1;
nodes = (
(396,-14,o),
(433,13,o),
(465,72,c),
(448,84,l),
(419,39,o),
(397,19,o),
(375,19,cs),
(351,19,o),
(345,39,o),
(345,117,cs),
(345,147,ls),
(345,253,o),
(306,284,o),
(175,284,c),
(173,269,l),
(251,269,o),
(277,239,o),
(277,150,cs),
(277,117,ls),
(277,20,o),
(296,-14,o),
(348,-14,cs)
);
},
{
closed = 1;
nodes = (
(228,270,o),
(255,282,o),
(310,340,cs),
(351,383,ls),
(373,406,o),
(385,414,o),
(396,414,cs),
(407,414,o),
(410,406,o),
(410,375,cs),
(410,351,o),
(423,337,o),
(445,337,cs),
(472,337,o),
(490,359,o),
(490,392,cs),
(490,429,o),
(466,454,o),
(430,454,cs),
(401,454,o),
(379,440,o),
(335,394,cs),
(298,355,ls),
(245,299,o),
(214,284,o),
(155,284,c),
(155,270,l)
);
}
);
visible = 1;
width = 501;
},
{
anchors = (
{
name = bottom;
pos = (215,0);
},
{
name = top;
pos = (445,710);
}
);
layerId = m002;
shapes = (
{
closed = 1;
nodes = (
(149,0,l),
(382,713,l),
(152,710,l),
(141,676,l),
(162,676,ls),
(209,676,o),
(218,660,o),
(200,604,cs),
(3,0,l)
);
},
{
closed = 1;
nodes = (
(467,-14,o),
(519,22,o),
(550,92,c),
(522,106,l),
(503,66,o),
(482,45,o),
(464,45,cs),
(447,45,o),
(442,61,o),
(440,123,cs),
(439,151,ls),
(435,258,o),
(388,288,o),
(223,288,c),
(221,254,l),
(282,254,o),
(298,233,o),
(302,147,cs),
(303,124,ls),
(307,20,o),
(331,-14,o),
(399,-14,cs)
);
},
{
closed = 1;
nodes = (
(285,264,o),
(328,281,o),
(369,330,cs),
(400,367,ls),
(417,388,o),
(429,397,o),
(439,397,cs),
(451,397,o),
(456,386,o),
(456,361,cs),
(456,327,o),
(476,307,o),
(510,307,cs),
(554,307,o),
(586,337,o),
(586,385,cs),
(586,430,o),
(556,460,o),
(501,460,cs),
(453,460,o),
(417,441,o),
(377,394,cs),
(344,355,ls),
(302,305,o),
(266,288,o),
(203,288,c),
(203,264,l)
);
}
);
width = 578;
}
);
unicode = 107;
},
{
color = 6;
glyphname = l;
kernLeft = l;
kernRight = l;
layers = (
{
anchors = (
{
name = bottom;
pos = (90,0);
},
{
name = center;
pos = (171,349);
},
{
name = top;
pos = (274,710);
},
{
name = topright;
pos = (332,710);
}
);
layerId = "9372F035-DA38-4B54-966C-CEBA9B53DD02";
shapes = (
{
closed = 1;
nodes = (
(135,-14,o),
(178,16,o),
(212,75,c),
(194,87,l),
(171,46,o),
(140,19,o),
(117,19,cs),
(98,19,o),
(96,39,o),
(111,85,cs),
(316,713,l),
(154,710,l),
(147,686,l),
(166,686,ls),
(217,686,o),
(230,667,o),
(213,615,cs),
(49,113,ls),
(21,27,o),
(33,-14,o),
(88,-14,cs)
);
}
);
width = 264;
},
{
anchors = (
{
name = bottom;
pos = (90,0);
},
{
name = center;
pos = (196,355);
},
{
name = top;
pos = (291,710);
},
{
name = topright;
pos = (393,710);
}
);
layerId = m002;
shapes = (
{
closed = 1;
nodes = (
(184,-14,o),
(239,23,o),
(271,93,c),
(243,111,l),
(222,68,o),
(202,45,o),
(185,45,cs),
(168,45,o),
(166,65,o),
(179,104,cs),
(378,713,l),
(148,710,l),
(137,676,l),
(158,676,ls),
(206,676,o),
(214,660,o),
(196,604,cs),
(42,131,ls),
(10,31,o),
(31,-14,o),
(111,-14,cs)
);
}
);
width = 313;
}
);
unicode = 108;
},
{
color = 3;
glyphname = lslash;
kernLeft = l;
kernRight = l;
layers = (
{
layerId = "9372F035-DA38-4B54-966C-CEBA9B53DD02";
shapes = (
{
closed = 1;
nodes = (
(307,377,l),
(295,410,l),
(16,298,l),
(24,278,l)
);
},
{
ref = l;
}
);
width = 265;
},
{
layerId = m002;
shapes = (
{
closed = 1;
nodes = (
(373,378,l),
(353,429,l),
(19,296,l),
(32,260,l)
);
},
{
pos = (12,0);
ref = l;
}
);
width = 329;
}
);
unicode = 322;
},
{
color = 6;
glyphname = m;
kernLeft = n;
kernRight = n;
layers = (
{
anchors = (
{
name = bottom;
pos = (301,0);
},
{
name = top;
pos = (461,440);
}
);
layerId = "9372F035-DA38-4B54-966C-CEBA9B53DD02";
shapes = (
{
closed = 1;
nodes = (
(653,-14,o),
(689,13,o),
(726,72,c),
(707,84,l),
(687,47,o),
(657,19,o),
(638,19,cs),
(617,19,o),
(613,55,o),
(630,103,cs),
(709,331,ls),
(735,406,o),
(706,454,o),
(633,454,cs),
(564,454,o),
(500,412,o),
(438,327,c),
(452,327,l),
(479,405,o),
(451,454,o),
(378,454,cs),
(310,454,o),
(242,410,o),
(189,329,c),
(193,316,l),
(228,443,l),
(81,440,l),
(74,416,l),
(95,416,ls),
(143,416,o),
(152,399,o),
(133,344,cs),
(15,0,l),
(87,0,l),
(175,257,ls),
(204,342,o),
(298,429,o),
(359,429,cs),
(394,429,o),
(406,400,o),
(391,356,cs),
(267,0,l),
(341,0,l),
(433,267,ls),
(461,348,o),
(551,429,o),
(612,429,cs),
(648,429,o),
(661,400,o),
(645,356,cs),
(567,135,ls),
(533,39,o),
(548,-14,o),
(610,-14,cs)
);
}
);
width = 774;
},
{
anchors = (
{
name = bottom;
pos = (362,0);
},
{
name = top;
pos = (506,446);
}
);
layerId = m002;
shapes = (
{
closed = 1;
nodes = (
(754,-14,o),
(809,23,o),
(841,93,c),
(813,111,l),
(792,68,o),
(772,45,o),
(755,45,cs),
(738,45,o),
(736,65,o),
(749,104,cs),
(815,299,ls),
(851,404,o),
(823,460,o),
(736,460,cs),
(652,460,o),
(569,411,o),
(517,330,c),
(535,313,l),
(566,405,o),
(534,460,o),
(452,460,cs),
(371,460,o),
(285,411,o),
(234,335,c),
(247,311,l),
(286,449,l),
(66,446,l),
(55,412,l),
(76,412,ls),
(124,412,o),
(132,395,o),
(114,340,cs),
(0,0,l),
(145,0,l),
(220,226,ls),
(251,320,o),
(315,394,o),
(365,394,cs),
(398,394,o),
(407,368,o),
(392,321,cs),
(288,0,l),
(433,0,l),
(516,255,ls),
(541,333,o),
(601,394,o),
(651,394,cs),
(683,394,o),
(693,367,o),
(677,321,cs),
(612,131,ls),
(579,33,o),
(601,-14,o),
(681,-14,cs)
);
}
);
width = 873;
}
);
metricLeft = n;
metricRight = n;
unicode = 109;
},
{
color = 6;
glyphname = n;
kernLeft = n;
kernRight = n;
layers = (
{
anchors = (
{
name = bottom;
pos = (190,0);
},
{
name = top;
pos = (325,440);
}
);
layerId = "9372F035-DA38-4B54-966C-CEBA9B53DD02";
shapes = (
{
closed = 1;
nodes = (
(408,-14,o),
(450,16,o),
(484,72,c),
(465,84,l),
(443,43,o),
(414,19,o),
(393,19,cs),
(375,19,o),
(369,42,o),
(382,80,cs),
(466,331,ls),
(493,410,o),
(467,454,o),
(394,454,cs),
(317,454,o),
(243,407,o),
(187,320,c),
(189,306,l),
(228,443,l),
(81,440,l),
(74,416,l),
(95,416,ls),
(143,416,o),
(151,399,o),
(133,344,cs),
(18,0,l),
(90,0,l),
(175,257,ls),
(203,340,o),
(302,429,o),
(367,429,cs),
(404,429,o),
(418,401,o),
(403,356,cs),
(320,110,ls),
(293,30,o),
(307,-14,o),
(362,-14,cs)
);
}
);
width = 532;
},
{
anchors = (
{
name = bottom;
pos = (233,0);
},
{
name = top;
pos = (355,446);
}
);
layerId = m002;
shapes = (
{
closed = 1;
nodes = (
(481,-14,o),
(536,23,o),
(568,93,c),
(541,110,l),
(517,68,o),
(495,45,o),
(478,45,cs),
(462,45,o),
(462,61,o),
(476,104,cs),
(542,299,ls),
(578,406,o),
(550,460,o),
(460,460,cs),
(375,460,o),
(287,411,o),
(234,332,c),
(243,308,l),
(284,449,l),
(66,446,l),
(55,412,l),
(76,412,ls),
(124,412,o),
(132,396,o),
(114,340,cs),
(0,0,l),
(145,0,l),
(225,241,ls),
(254,328,o),
(318,394,o),
(373,394,cs),
(407,394,o),
(419,366,o),
(404,321,cs),
(339,131,ls),
(306,33,o),
(328,-14,o),
(408,-14,cs)
);
}
);
width = 600;
}
);
unicode = 110;
},
{
color = 6;
glyphname = eng;
kernLeft = n;
kernRight = n;
layers = (
{
anchors = (
{
name = top;
pos = (318,440);
}
);
layerId = "9372F035-DA38-4B54-966C-CEBA9B53DD02";
shapes = (
{
closed = 1;
nodes = (
(215,-290,o),
(269,-245,o),
(308,-132,cs),
(466,331,ls),
(492,408,o),
(468,454,o),
(393,454,cs),
(317,454,o),
(243,407,o),
(189,323,c),
(191,312,l),
(228,443,l),
(81,440,l),
(74,416,l),
(95,416,ls),
(143,416,o),
(151,400,o),
(133,344,cs),
(18,0,l),
(90,0,l),
(175,257,ls),
(203,340,o),
(302,429,o),
(366,429,cs),
(404,429,o),
(418,399,o),
(403,356,cs),
(240,-127,ls),
(208,-223,o),
(176,-268,o),
(145,-268,cs),
(130,-268,o),
(124,-260,o),
(112,-224,cs),
(98,-182,o),
(88,-170,o),
(65,-170,cs),
(37,-170,o),
(16,-190,o),
(16,-219,cs),
(16,-262,o),
(60,-290,o),
(128,-290,cs)
);
}
);
width = 512;
},
{
anchors = (
{
name = top;
pos = (317,446);
}
);
layerId = m002;
shapes = (
{
closed = 1;
nodes = (
(290,-294,o),
(368,-237,o),
(407,-117,cs),
(542,299,ls),
(577,407,o),
(550,460,o),
(459,460,cs),
(336,460,o),
(224,363,o),
(181,221,c),
(234,279,l),
(284,449,l),
(66,446,l),
(55,412,l),
(76,412,ls),
(124,412,o),
(132,396,o),
(114,340,cs),
(0,0,l),
(145,0,l),
(221,230,ls),
(252,324,o),
(317,394,o),
(373,394,cs),
(407,394,o),
(418,367,o),
(404,321,cs),
(267,-103,ls),
(228,-224,o),
(209,-258,o),
(181,-258,cs),
(163,-258,o),
(158,-245,o),
(158,-201,cs),
(158,-151,o),
(140,-130,o),
(96,-130,cs),
(45,-130,o),
(12,-159,o),
(12,-203,cs),
(12,-260,o),
(69,-294,o),
(165,-294,cs)
);
}
);
width = 579;
}
);
metricLeft = n;
metricRight = j;
unicode = 331;
},
{
color = 6;
glyphname = o;
kernLeft = o;
kernRight = o;
layers = (
{
anchors = (
{
name = bottom;
pos = (202,0);
},
{
name = center;
pos = (269,222);
},
{
name = ogonek;
pos = (319,0);
},
{
name = top;
pos = (343,446);
},
{
name = topright;
pos = (476,446);
}
);
layerId = m002;
shapes = (
{
closed = 1;
nodes = (
(374,-14,o),
(520,127,o),
(520,289,cs),
(520,396,o),
(451,460,o),
(335,460,cs),
(166,460,o),
(20,320,o),
(20,157,cs),
(20,50,o),
(90,-14,o),
(206,-14,cs)
);
},
{
closed = 1;
nodes = (
(183,31,o),
(167,58,o),
(167,108,cs),
(167,248,o),
(254,415,o),
(327,415,cs),
(357,415,o),
(373,388,o),
(373,337,cs),
(373,197,o),
(286,31,o),
(213,31,cs)
);
}
);
width = 541;
},
{
anchors = (
{
name = bottom;
pos = (194,0);
},
{
name = center;
pos = (258,220);
},
{
name = ogonek;
pos = (299,0);
},
{
name = top;
pos = (334,440);
},
{
name = topright;
pos = (483,440);
}
);
layerId = "9372F035-DA38-4B54-966C-CEBA9B53DD02";
name = Italic;
shapes = (
{
closed = 1;
nodes = (
(362,-14,o),
(479,151,o),
(479,289,cs),
(479,377,o),
(431,454,o),
(318,454,cs),
(155,454,o),
(36,291,o),
(36,153,cs),
(36,63,o),
(86,-14,o),
(198,-14,cs)
);
},
{
closed = 1;
nodes = (
(130,8,o),
(107,58,o),
(107,115,cs),
(107,226,o),
(193,432,o),
(322,432,cs),
(385,432,o),
(408,383,o),
(408,325,cs),
(408,213,o),
(322,8,o),
(193,8,cs)
);
}
);
width = 514;
}
);
unicode = 111;
},
{
color = 6;
glyphname = p;
kernLeft = p;
kernRight = o;
layers = (
{
anchors = (
{
name = bottom;
pos = (102,-280);
},
{
name = top;
pos = (327,440);
}
);
layerId = "9372F035-DA38-4B54-966C-CEBA9B53DD02";
shapes = (
{
closed = 1;
nodes = (
(79,-280,l),
(86,-256,l),
(52,-256,ls),
(22,-256,o),
(18,-246,o),
(33,-201,cs),
(138,120,l),
(128,157,l),
(113,60,o),
(145,-14,o),
(233,-14,cs),
(362,-14,o),
(493,144,o),
(493,298,cs),
(493,394,o),
(443,454,o),
(362,454,cs),
(296,454,o),
(229,411,o),
(184,329,c),
(200,330,l),
(226,443,l),
(87,440,l),
(80,416,l),
(101,416,ls),
(149,416,o),
(157,400,o),
(139,344,cs),
(-38,-200,ls),
(-53,-245,o),
(-64,-256,o),
(-95,-256,cs),
(-119,-256,l),
(-127,-280,l)
);
},
{
closed = 1;
nodes = (
(147,12,o),
(127,106,o),
(165,221,cs),
(180,267,ls),
(210,359,o),
(282,427,o),
(344,427,cs),
(393,427,o),
(419,387,o),
(419,315,cs),
(419,165,o),
(317,12,o),
(223,12,cs)
);
}
);
width = 529;
},
{
anchors = (
{
name = bottom;
pos = (146,-280);
},
{
name = top;
pos = (359,446);
}
);
layerId = m002;
shapes = (
{
closed = 1;
nodes = (
(140,-280,l),
(150,-246,l),
(129,-246,ls),
(81,-246,o),
(73,-230,o),
(91,-174,cs),
(197,152,l),
(168,152,l),
(152,52,o),
(200,-14,o),
(288,-14,cs),
(425,-14,o),
(555,140,o),
(555,301,cs),
(555,400,o),
(505,460,o),
(422,460,cs),
(348,460,o),
(275,409,o),
(224,321,c),
(257,344,l),
(287,449,l),
(67,446,l),
(56,412,l),
(77,412,ls),
(125,412,o),
(133,396,o),
(115,340,cs),
(-54,-175,ls),
(-71,-226,o),
(-92,-246,o),
(-130,-246,cs),
(-158,-246,l),
(-169,-280,l)
);
},
{
closed = 1;
nodes = (
(200,53,o),
(185,121,o),
(219,221,cs),
(233,262,ls),
(259,337,o),
(311,394,o),
(355,394,cs),
(388,394,o),
(405,368,o),
(405,317,cs),
(405,193,o),
(324,53,o),
(254,53,cs)
);
}
);
width = 581;
}
);
metricRight = b;
unicode = 112;
},
{
color = 6;
glyphname = thorn;
layers = (
{
layerId = "9372F035-DA38-4B54-966C-CEBA9B53DD02";
shapes = (
{
closed = 1;
nodes = (
(63,-280,l),
(70,-256,l),
(36,-256,ls),
(6,-256,o),
(2,-246,o),
(17,-201,cs),
(122,120,l),
(112,157,l),
(97,60,o),
(129,-14,o),
(217,-14,cs),
(346,-14,o),
(477,144,o),
(477,298,cs),
(477,394,o),
(427,454,o),
(346,454,cs),
(280,454,o),
(213,411,o),
(168,329,c),
(184,330,l),
(316,713,l),
(154,710,l),
(147,686,l),
(166,686,ls),
(229,686,o),
(226,655,o),
(213,615,cs),
(-54,-200,ls),
(-69,-245,o),
(-80,-256,o),
(-111,-256,cs),
(-135,-256,l),
(-143,-280,l)
);
},
{
closed = 1;
nodes = (
(131,12,o),
(111,106,o),
(149,221,cs),
(164,267,ls),
(194,359,o),
(266,427,o),
(328,427,cs),
(377,427,o),
(403,387,o),
(403,315,cs),
(403,165,o),
(301,12,o),
(207,12,cs)
);
}
);
width = 513;
},
{
layerId = m002;
shapes = (
{
closed = 1;
nodes = (
(141,-280,l),
(151,-246,l),
(130,-246,ls),
(82,-246,o),
(74,-230,o),
(92,-174,cs),
(192,131,l),
(167,118,l),
(165,37,o),
(212,-14,o),
(289,-14,cs),
(426,-14,o),
(556,140,o),
(556,301,cs),
(556,400,o),
(506,460,o),
(423,460,cs),
(358,460,o),
(293,421,o),
(244,351,c),
(255,329,l),
(382,713,l),
(152,710,l),
(141,676,l),
(162,676,ls),
(216,676,o),
(216,652,o),
(200,604,cs),
(-53,-175,ls),
(-70,-226,o),
(-91,-246,o),
(-129,-246,cs),
(-157,-246,l),
(-168,-280,l)
);
},
{
closed = 1;
nodes = (
(201,53,o),
(186,121,o),
(220,221,cs),
(234,262,ls),
(260,337,o),
(312,394,o),
(356,394,cs),
(389,394,o),
(406,368,o),
(406,317,cs),
(406,193,o),
(325,53,o),
(255,53,cs)
);
}
);
width = 582;
}
);
metricRight = p;
unicode = 254;
},
{
color = 6;
glyphname = q;
kernLeft = o;
kernRight = u;
layers = (
{
anchors = (
{
name = bottom;
pos = (99,-280);
},
{
name = top;
pos = (336,440);
}
);
layerId = "9372F035-DA38-4B54-966C-CEBA9B53DD02";
shapes = (
{
closed = 1;
nodes = (
(344,-280,l),
(351,-256,l),
(317,-256,ls),
(287,-256,o),
(286,-237,o),
(298,-201,cs),
(511,440,l),
(439,440,l),
(404,332,l),
(416,336,l),
(416,413,o),
(382,454,o),
(313,454,cs),
(174,454,o),
(26,287,o),
(26,126,cs),
(26,38,o),
(73,-14,o),
(154,-14,cs),
(231,-14,o),
(300,35,o),
(343,120,c),
(335,126,l),
(227,-200,ls),
(213,-242,o),
(187,-256,o),
(156,-256,cs),
(126,-256,l),
(118,-280,l)
);
},
{
closed = 1;
nodes = (
(121,14,o),
(97,49,o),
(99,117,cs),
(104,264,o),
(223,429,o),
(324,429,cs),
(369,429,o),
(394,397,o),
(394,341,cs),
(394,306,o),
(384,257,o),
(365,208,cs),
(321,94,o),
(241,14,o),
(169,14,cs)
);
}
);
width = 509;
},
{
anchors = (
{
name = bottom;
pos = (109,-280);
},
{
name = top;
pos = (337,446);
}
);
layerId = m002;
shapes = (
{
closed = 1;
nodes = (
(412,-280,l),
(423,-246,l),
(406,-246,ls),
(352,-246,o),
(352,-222,o),
(368,-174,cs),
(569,446,l),
(427,446,l),
(377,294,l),
(395,294,l),
(426,393,o),
(382,460,o),
(293,460,cs),
(142,460,o),
(16,270,o),
(16,127,cs),
(16,48,o),
(54,-14,o),
(140,-14,cs),
(216,-14,o),
(301,35,o),
(351,131,c),
(325,131,l),
(223,-175,ls),
(207,-223,o),
(187,-246,o),
(147,-246,cs),
(119,-246,l),
(108,-280,l)
);
},
{
closed = 1;
nodes = (
(182,52,o),
(166,74,o),
(166,116,cs),
(166,210,o),
(248,393,o),
(329,393,cs),
(359,393,o),
(375,369,o),
(375,326,cs),
(375,297,o),
(366,260,o),
(354,222,cs),
(327,138,o),
(275,52,o),
(213,52,cs)
);
}
);
width = 565;
}
);
metricLeft = a;
unicode = 113;
},
{
color = 6;
glyphname = r;
kernLeft = n;
kernRight = r;
layers = (
{
anchors = (
{
name = bottom;
pos = (59,0);
},
{
name = top;
pos = (267,440);
}
);
layerId = "9372F035-DA38-4B54-966C-CEBA9B53DD02";
shapes = (
{
closed = 1;
nodes = (
(93,0,l),
(153,182,ls),
(200,324,o),
(260,415,o),
(307,415,cs),
(323,415,o),
(333,405,o),
(337,386,cs),
(344,353,o),
(360,342,o),
(381,342,cs),
(407,342,o),
(424,360,o),
(423,387,cs),
(422,425,o),
(389,454,o),
(344,454,cs),
(279,454,o),
(221,394,o),
(168,274,c),
(173,266,l),
(219,443,l),
(82,440,l),
(74,416,l),
(95,416,ls),
(143,416,o),
(151,399,o),
(133,344,cs),
(21,0,l)
);
}
);
width = 394;
},
{
anchors = (
{
name = bottom;
pos = (75,0);
},
{
name = top;
pos = (319,446);
}
);
layerId = m002;
shapes = (
{
closed = 1;
nodes = (
(145,0,l),
(205,182,ls),
(249,315,o),
(302,394,o),
(347,394,cs),
(361,394,o),
(364,386,o),
(364,355,cs),
(364,318,o),
(381,300,o),
(416,300,cs),
(466,300,o),
(494,335,o),
(494,379,cs),
(494,428,o),
(458,460,o),
(403,460,cs),
(311,460,o),
(231,367,o),
(197,221,c),
(223,260,l),
(273,449,l),
(66,446,l),
(55,412,l),
(76,412,ls),
(124,412,o),
(132,395,o),
(114,340,cs),
(0,0,l)
);
}
);
width = 454;
}
);
metricLeft = n;
unicode = 114;
},
{
color = 6;
glyphname = s;
kernLeft = s;
kernRight = s;
layers = (
{
anchors = (
{
name = bottom;
pos = (139,0);
},
{
name = top;
pos = (249,440);
}
);
layerId = "9372F035-DA38-4B54-966C-CEBA9B53DD02";
shapes = (
{
closed = 1;
nodes = (
(219,-14,o),
(293,50,o),
(293,127,cs),
(293,163,o),
(277,194,o),
(235,238,cs),
(197,278,ls),
(176,300,o),
(163,330,o),
(163,357,cs),
(163,401,o),
(195,432,o),
(239,432,cs),
(265,432,o),
(281,419,o),
(281,388,cs),
(281,370,ls),
(281,349,o),
(296,334,o),
(317,334,cs),
(342,334,o),
(360,353,o),
(360,380,cs),
(360,423,o),
(313,454,o),
(247,454,cs),
(163,454,o),
(106,403,o),
(106,327,cs),
(106,287,o),
(122,247,o),
(150,217,cs),
(187,178,ls),
(212,152,o),
(225,123,o),
(225,96,cs),
(225,47,o),
(183,8,o),
(131,8,cs),
(83,8,o),
(56,42,o),
(71,77,cs),
(77,91,ls),
(90,121,o),
(74,147,o),
(44,147,cs),
(16,147,o),
(-2,125,o),
(-2,92,cs),
(-2,33,o),
(56,-14,o),
(131,-14,cs)
);
}
);
width = 363;
},
{
anchors = (
{
name = bottom;
pos = (169,0);
},
{
name = top;
pos = (279,446);
}
);
layerId = m002;
shapes = (
{
closed = 1;
nodes = (
(279,-14,o),
(367,46,o),
(367,124,cs),
(367,160,o),
(348,197,o),
(312,234,cs),
(254,293,ls),
(229,318,o),
(214,348,o),
(214,374,cs),
(214,405,o),
(235,424,o),
(269,424,cs),
(297,424,o),
(309,411,o),
(308,381,cs),
(307,357,ls),
(305,319,o),
(328,294,o),
(366,294,cs),
(405,294,o),
(434,322,o),
(434,361,cs),
(434,420,o),
(369,460,o),
(272,460,cs),
(160,460,o),
(88,408,o),
(88,326,cs),
(88,288,o),
(104,250,o),
(132,222,cs),
(184,170,ls),
(217,137,o),
(234,106,o),
(234,80,cs),
(234,47,o),
(207,22,o),
(164,22,cs),
(126,22,o),
(104,44,o),
(112,79,cs),
(115,92,ls),
(124,134,o),
(99,166,o),
(57,166,cs),
(17,166,o),
(-13,137,o),
(-13,98,cs),
(-13,35,o),
(65,-14,o),
(166,-14,cs)
);
}
);
width = 428;
}
);
unicode = 115;
},
{
color = 6;
glyphname = germandbls;
layers = (
{
layerId = "9372F035-DA38-4B54-966C-CEBA9B53DD02";
shapes = (
{
closed = 1;
nodes = (
(2,-290,o),
(50,-246,o),
(89,-127,cs),
(308,550,ls),
(338,644,o),
(397,701,o),
(464,701,cs),
(507,701,o),
(532,676,o),
(532,632,cs),
(532,587,o),
(506,535,o),
(456,496,cs),
(434,479,ls),
(379,437,o),
(362,403,o),
(362,367,cs),
(362,345,o),
(374,322,o),
(393,299,cs),
(438,244,ls),
(464,212,o),
(478,177,o),
(478,141,cs),
(478,67,o),
(419,8,o),
(345,8,cs),
(289,8,o),
(260,40,o),
(280,80,cs),
(284,88,ls),
(300,120,o),
(284,147,o),
(251,147,cs),
(219,147,o),
(200,123,o),
(205,88,cs),
(214,28,o),
(275,-14,o),
(354,-14,cs),
(464,-14,o),
(552,61,o),
(552,155,cs),
(552,198,o),
(533,243,o),
(497,287,cs),
(456,337,ls),
(440,355,o),
(429,374,o),
(429,397,cs),
(429,425,o),
(448,463,o),
(487,492,cs),
(506,507,ls),
(573,558,o),
(606,600,o),
(606,638,cs),
(606,688,o),
(550,724,o),
(471,724,cs),
(356,724,o),
(268,645,o),
(220,498,cs),
(17,-127,ls),
(-14,-221,o),
(-45,-268,o),
(-77,-268,cs),
(-92,-268,o),
(-98,-260,o),
(-110,-224,cs),
(-124,-182,o),
(-134,-170,o),
(-157,-170,cs),
(-185,-170,o),
(-206,-190,o),
(-206,-219,cs),
(-206,-263,o),
(-162,-290,o),
(-91,-290,cs)
);
}
);
width = 604;
},
{
layerId = m002;
shapes = (
{
closed = 1;
nodes = (
(28,-294,o),
(105,-238,o),
(145,-117,cs),
(357,533,ls),
(392,640,o),
(433,688,o),
(488,688,cs),
(532,688,o),
(557,659,o),
(557,608,cs),
(557,561,o),
(535,520,o),
(485,474,cs),
(429,421,ls),
(397,391,o),
(379,366,o),
(379,334,cs),
(379,302,o),
(402,264,o),
(435,225,cs),
(468,186,ls),
(507,140,o),
(518,117,o),
(518,93,cs),
(518,53,o),
(487,22,o),
(446,22,cs),
(411,22,o),
(391,45,o),
(397,81,cs),
(399,94,ls),
(406,139,o),
(385,166,o),
(344,166,cs),
(302,166,o),
(271,138,o),
(271,98,cs),
(271,35,o),
(349,-14,o),
(449,-14,cs),
(562,-14,o),
(652,54,o),
(652,137,cs),
(652,172,o),
(633,204,o),
(605,237,cs),
(552,299,ls),
(516,341,o),
(500,372,o),
(500,400,cs),
(500,430,o),
(517,456,o),
(550,479,cs),
(597,512,ls),
(656,553,o),
(682,587,o),
(682,622,cs),
(682,681,o),
(607,724,o),
(502,724,cs),
(350,724,o),
(245,634,o),
(187,456,cs),
(5,-103,ls),
(-35,-226,o),
(-53,-258,o),
(-83,-258,cs),
(-100,-258,o),
(-104,-247,o),
(-104,-203,cs),
(-104,-153,o),
(-125,-130,o),
(-169,-130,cs),
(-218,-130,o),
(-250,-159,o),
(-250,-202,cs),
(-250,-260,o),
(-193,-294,o),
(-97,-294,cs)
);
}
);
width = 693;
}
);
unicode = 223;
},
{
color = 6;
glyphname = t;
kernLeft = t;
kernRight = t;
layers = (
{
anchors = (
{
name = bottom;
pos = (100,0);
},
{
name = center;
pos = (150,256);
},
{
name = top;
pos = (237,519);
},
{
name = topright;
pos = (332,710);
}
);
layerId = "9372F035-DA38-4B54-966C-CEBA9B53DD02";
shapes = (
{
closed = 1;
nodes = (
(154,-14,o),
(204,19,o),
(236,72,c),
(218,84,l),
(195,45,o),
(164,19,o),
(140,19,cs),
(116,19,o),
(112,42,o),
(125,82,cs),
(280,557,l),
(209,557,l),
(63,110,ls),
(37,30,o),
(49,-14,o),
(105,-14,cs)
);
},
{
closed = 1;
nodes = (
(172,416,l),
(181,440,l),
(101,440,l),
(93,416,l)
);
},
{
closed = 1;
nodes = (
(319,416,l),
(327,440,l),
(220,440,l),
(210,416,l)
);
}
);
width = 308;
},
{
anchors = (
{
name = bottom;
pos = (114,0);
},
{
name = center;
pos = (173,256);
},
{
name = top;
pos = (257,519);
},
{
name = topright;
pos = (400,710);
}
);
layerId = m002;
shapes = (
{
closed = 1;
nodes = (
(212,-14,o),
(268,22,o),
(303,93,c),
(276,111,l),
(249,66,o),
(225,45,o),
(203,45,cs),
(181,45,o),
(176,64,o),
(189,104,cs),
(348,587,l),
(202,587,l),
(52,131,ls),
(19,31,o),
(45,-14,o),
(133,-14,cs)
);
},
{
closed = 1;
nodes = (
(185,406,l),
(199,446,l),
(87,446,l),
(74,406,l)
);
},
{
closed = 1;
nodes = (
(395,406,l),
(408,446,l),
(263,446,l),
(248,406,l)
);
}
);
width = 359;
}
);
unicode = 116;
},
{
color = 3;
glyphname = tbar;
kernLeft = t;
kernRight = t;
layers = (
{
layerId = "9372F035-DA38-4B54-966C-CEBA9B53DD02";
shapes = (
{
closed = 1;
nodes = (
(284,309,l),
(292,333,l),
(68,333,l),
(60,309,l)
);
},
{
ref = t;
}
);
width = 308;
},
{
layerId = m002;
shapes = (
{
closed = 1;
nodes = (
(358,293,l),
(371,333,l),
(52,333,l),
(39,293,l)
);
},
{
ref = t;
}
);
width = 359;
}
);
metricLeft = t;
metricRight = t;
unicode = 359;
},
{
color = 6;
glyphname = u;
kernLeft = u;
kernRight = u;
layers = (
{
anchors = (
{
name = bottom;
pos = (187,0);
},
{
name = ogonek;
pos = (433,0);
},
{
name = top;
pos = (321,440);
},
{
name = topright;
pos = (472,440);
}
);
layerId = "9372F035-DA38-4B54-966C-CEBA9B53DD02";
shapes = (
{
closed = 1;
nodes = (
(210,-14,o),
(273,26,o),
(329,107,c),
(324,113,l),
(296,31,o),
(311,-14,o),
(367,-14,cs),
(412,-14,o),
(454,17,o),
(487,75,c),
(469,87,l),
(449,49,o),
(416,19,o),
(394,19,cs),
(374,19,o),
(372,42,o),
(386,85,cs),
(505,440,l),
(439,440,l),
(348,186,ls),
(317,99,o),
(223,11,o),
(162,11,cs),
(123,11,o),
(111,48,o),
(131,108,cs),
(245,443,l),
(85,440,l),
(78,416,l),
(104,416,ls),
(153,416,o),
(162,398,o),
(142,344,cs),
(67,137,ls),
(32,39,o),
(57,-14,o),
(139,-14,cs)
);
}
);
width = 539;
},
{
anchors = (
{
name = bottom;
pos = (207,0);
},
{
name = ogonek;
pos = (491,0);
},
{
name = top;
pos = (351,446);
},
{
name = topright;
pos = (514,446);
}
);
layerId = m002;
shapes = (
{
closed = 1;
nodes = (
(219,-14,o),
(310,42,o),
(361,128,c),
(343,131,l),
(310,34,o),
(332,-14,o),
(410,-14,cs),
(479,-14,o),
(531,23,o),
(563,93,c),
(535,111,l),
(513,68,o),
(493,45,o),
(477,45,cs),
(460,45,o),
(458,65,o),
(471,104,cs),
(586,446,l),
(441,446,l),
(366,220,ls),
(334,124,o),
(270,52,o),
(217,52,cs),
(184,52,o),
(172,80,o),
(187,125,cs),
(294,446,l),
(65,443,l),
(54,409,l),
(75,409,ls),
(123,409,o),
(132,393,o),
(113,337,cs),
(49,147,ls),
(13,40,o),
(40,-14,o),
(129,-14,cs)
);
}
);
width = 605;
}
);
metricRight = l;
unicode = 117;
},
{
color = 6;
glyphname = v;
kernLeft = v;
kernRight = v;
layers = (
{
anchors = (
{
name = bottom;
pos = (189,0);
},
{
name = top;
pos = (316,440);
}
);
layerId = "9372F035-DA38-4B54-966C-CEBA9B53DD02";
shapes = (
{
closed = 1;
nodes = (
(192,-11,l),
(370,192,ls),
(455,288,o),
(481,332,o),
(481,379,cs),
(481,423,o),
(458,454,o),
(425,454,cs),
(400,454,o),
(379,435,o),
(379,412,cs),
(379,404,o),
(381,398,o),
(390,382,cs),
(403,359,o),
(408,346,o),
(408,325,cs),
(408,290,o),
(384,245,o),
(340,193,cs),
(205,36,l),
(226,37,l),
(200,121,ls),
(171,214,o),
(161,262,o),
(161,309,cs),
(161,364,o),
(188,401,o),
(252,431,c),
(247,448,l),
(209,442,o),
(171,440,o),
(94,440,c),
(86,416,l),
(210,416,l),
(198,427,l),
(113,377,o),
(78,332,o),
(78,274,cs),
(78,240,o),
(87,209,o),
(115,148,cs),
(156,56,o),
(166,30,o),
(175,-11,c)
);
}
);
width = 483;
},
{
anchors = (
{
name = bottom;
pos = (195,0);
},
{
name = top;
pos = (322,446);
}
);
layerId = m002;
shapes = (
{
closed = 1;
nodes = (
(207,-11,l),
(413,220,ls),
(474,288,o),
(504,344,o),
(504,388,cs),
(504,433,o),
(477,460,o),
(436,460,cs),
(393,460,o),
(358,432,o),
(358,400,cs),
(358,388,o),
(360,380,o),
(372,351,cs),
(383,325,o),
(386,311,o),
(386,297,cs),
(386,267,o),
(369,230,o),
(341,197,cs),
(216,48,l),
(285,94,l),
(263,139,ls),
(219,230,o),
(206,270,o),
(206,315,cs),
(206,371,o),
(227,407,o),
(274,427,c),
(266,455,l),
(217,448,o),
(175,446,o),
(77,446,c),
(65,412,l),
(218,412,l),
(205,427,l),
(97,377,o),
(51,331,o),
(51,272,cs),
(51,237,o),
(67,199,o),
(110,126,cs),
(149,60,o),
(166,26,o),
(176,-11,c)
);
}
);
width = 480;
}
);
unicode = 118;
},
{
color = 6;
glyphname = w;
kernLeft = v;
kernRight = v;
layers = (
{
anchors = (
{
name = bottom;
pos = (311,0);
},
{
name = top;
pos = (441,440);
}
);
layerId = "9372F035-DA38-4B54-966C-CEBA9B53DD02";
shapes = (
{
closed = 1;
nodes = (
(192,-11,l),
(360,192,ls),
(414,256,o),
(441,315,o),
(441,371,cs),
(441,420,o),
(417,454,o),
(384,454,cs),
(363,454,o),
(342,433,o),
(342,411,cs),
(342,402,o),
(346,392,o),
(357,373,cs),
(374,340,o),
(380,322,o),
(380,302,cs),
(380,268,o),
(364,231,o),
(328,188,cs),
(205,36,l),
(226,37,l),
(200,121,ls),
(171,214,o),
(161,262,o),
(161,309,cs),
(161,363,o),
(188,399,o),
(252,431,c),
(247,448,l),
(209,442,o),
(171,440,o),
(94,440,c),
(86,416,l),
(210,416,l),
(198,427,l),
(113,377,o),
(78,332,o),
(78,274,cs),
(78,240,o),
(87,209,o),
(115,148,cs),
(157,55,o),
(166,29,o),
(175,-11,c)
);
},
{
closed = 1;
nodes = (
(470,-11,l),
(638,192,ls),
(692,256,o),
(719,315,o),
(719,371,cs),
(719,419,o),
(696,454,o),
(664,454,cs),
(639,454,o),
(620,436,o),
(620,412,cs),
(620,403,o),
(623,397,o),
(634,374,cs),
(648,344,o),
(657,323,o),
(657,302,cs),
(657,267,o),
(641,231,o),
(606,188,cs),
(483,36,l),
(506,37,l),
(476,121,ls),
(441,219,o),
(434,249,o),
(434,294,cs),
(434,353,o),
(466,395,o),
(535,428,c),
(525,448,l),
(479,433,o),
(431,393,o),
(412,353,c),
(378,250,l),
(378,204,o),
(390,157,o),
(419,93,cs),
(438,44,o),
(446,20,o),
(453,-11,c)
);
}
);
width = 727;
},
{
anchors = (
{
name = bottom;
pos = (321,0);
},
{
name = top;
pos = (457,446);
}
);
layerId = m002;
shapes = (
{
closed = 1;
nodes = (
(207,-11,l),
(387,220,ls),
(434,280,o),
(458,334,o),
(458,379,cs),
(458,427,o),
(434,460,o),
(399,460,cs),
(362,460,o),
(331,433,o),
(331,402,cs),
(331,389,o),
(334,377,o),
(345,355,cs),
(358,321,o),
(361,306,o),
(361,285,cs),
(361,255,o),
(350,227,o),
(326,197,cs),
(207,48,l),
(274,106,l),
(258,139,ls),
(214,230,o),
(201,270,o),
(201,315,cs),
(201,370,o),
(224,405,o),
(274,426,c),
(266,454,l),
(219,448,o),
(172,446,o),
(77,446,c),
(65,412,l),
(218,411,l),
(205,427,l),
(97,377,o),
(51,331,o),
(51,272,cs),
(51,237,o),
(67,199,o),
(110,126,cs),
(149,60,o),
(166,26,o),
(176,-11,c)
);
},
{
closed = 1;
nodes = (
(477,-11,l),
(657,220,ls),
(724,306,o),
(748,351,o),
(748,390,cs),
(748,432,o),
(721,460,o),
(677,460,cs),
(632,460,o),
(602,435,o),
(602,401,cs),
(602,389,o),
(604,383,o),
(614,355,cs),
(626,326,o),
(631,307,o),
(631,285,cs),
(631,255,o),
(620,227,o),
(596,197,cs),
(477,48,l),
(544,106,l),
(528,139,ls),
(484,230,o),
(471,270,o),
(471,315,cs),
(471,369,o),
(494,405,o),
(542,426,c),
(526,455,l),
(462,430,o),
(414,379,o),
(414,335,c),
(362,233,l),
(365,180,o),
(376,145,o),
(407,84,cs),
(436,24,o),
(442,9,o),
(446,-11,c)
);
}
);
width = 723;
}
);
metricLeft = v;
metricRight = v;
unicode = 119;
},
{
color = 6;
glyphname = x;
kernLeft = x;
kernRight = x;
layers = (
{
anchors = (
{
name = bottom;
pos = (217,0);
},
{
name = top;
pos = (347,440);
}
);
layerId = "9372F035-DA38-4B54-966C-CEBA9B53DD02";
shapes = (
{
closed = 1;
nodes = (
(139,-11,o),
(200,28,o),
(253,104,c),
(234,105,l),
(245,30,o),
(283,-11,o),
(342,-11,cs),
(399,-11,o),
(452,28,o),
(484,94,c),
(467,106,l),
(446,58,o),
(397,19,o),
(356,19,cs),
(320,19,o),
(299,52,o),
(299,110,cs),
(299,255,o),
(389,432,o),
(463,432,cs),
(484,432,o),
(494,420,o),
(493,395,cs),
(492,367,ls),
(491,345,o),
(509,327,o),
(532,327,cs),
(559,327,o),
(578,349,o),
(578,379,cs),
(578,422,o),
(538,454,o),
(483,454,cs),
(418,454,o),
(361,418,o),
(303,340,c),
(322,333,l),
(315,412,o),
(279,454,o),
(217,454,cs),
(156,454,o),
(101,414,o),
(70,346,c),
(86,334,l),
(108,385,o),
(156,424,o),
(197,424,cs),
(234,424,o),
(253,390,o),
(253,323,cs),
(253,178,o),
(166,11,o),
(91,11,cs),
(70,11,o),
(60,24,o),
(61,47,cs),
(62,70,ls),
(63,98,o),
(48,116,o),
(23,116,cs),
(-4,116,o),
(-24,94,o),
(-24,64,cs),
(-24,20,o),
(16,-11,o),
(72,-11,cs)
);
}
);
width = 553;
},
{
anchors = (
{
name = bottom;
pos = (221,0);
},
{
name = top;
pos = (350,446);
}
);
layerId = m002;
shapes = (
{
closed = 1;
nodes = (
(161,-14,o),
(236,33,o),
(272,101,c),
(243,117,l),
(241,32,o),
(281,-13,o),
(352,-13,cs),
(422,-13,o),
(485,32,o),
(523,107,c),
(499,125,l),
(465,72,o),
(425,41,o),
(392,41,cs),
(362,41,o),
(347,68,o),
(347,119,cs),
(347,237,o),
(423,424,o),
(471,424,cs),
(485,424,o),
(491,410,o),
(487,381,cs),
(484,357,ls),
(479,316,o),
(499,288,o),
(534,288,cs),
(571,288,o),
(598,320,o),
(598,362,cs),
(598,418,o),
(550,460,o),
(484,460,cs),
(415,460,o),
(338,413,o),
(303,345,c),
(332,329,l),
(334,414,o),
(294,459,o),
(223,459,cs),
(153,459,o),
(90,414,o),
(52,339,c),
(76,321,l),
(112,374,o),
(151,405,o),
(183,405,cs),
(213,405,o),
(228,378,o),
(228,325,cs),
(228,205,o),
(153,22,o),
(103,22,cs),
(89,22,o),
(83,37,o),
(87,67,cs),
(90,93,ls),
(94,131,o),
(74,158,o),
(41,158,cs),
(5,158,o),
(-23,126,o),
(-23,85,cs),
(-23,28,o),
(26,-14,o),
(92,-14,cs)
);
}
);
width = 575;
}
);
unicode = 120;
},
{
color = 6;
glyphname = y;
kernLeft = y;
kernRight = y;
layers = (
{
anchors = (
{
name = bottom;
pos = (370,0);
},
{
name = top;
pos = (322,440);
}
);
layerId = "9372F035-DA38-4B54-966C-CEBA9B53DD02";
shapes = (
{
closed = 1;
nodes = (
(36,-290,o),
(93,-250,o),
(205,-110,cs),
(347,66,ls),
(426,165,o),
(464,258,o),
(464,354,cs),
(464,413,o),
(441,454,o),
(408,454,cs),
(385,454,o),
(360,431,o),
(360,409,cs),
(360,393,o),
(366,385,o),
(389,362,cs),
(409,342,o),
(417,321,o),
(417,290,cs),
(417,224,o),
(383,146,o),
(319,66,cs),
(253,-17,l),
(278,-3,l),
(231,112,ls),
(179,239,o),
(168,275,o),
(168,316,cs),
(168,368,o),
(192,401,o),
(255,431,c),
(250,448,l),
(212,442,o),
(174,440,o),
(97,440,c),
(89,416,l),
(220,416,l),
(211,433,l),
(118,377,o),
(86,338,o),
(86,278,cs),
(86,236,o),
(105,191,o),
(162,101,cs),
(201,40,o),
(217,2,o),
(217,-31,cs),
(217,-57,o),
(203,-84,o),
(177,-112,cs),
(95,-199,ls),
(75,-221,o),
(52,-234,o),
(31,-234,cs),
(7,-234,o),
(-10,-222,o),
(-25,-210,cs),
(-39,-199,o),
(-53,-189,o),
(-75,-189,cs),
(-100,-189,o),
(-124,-209,o),
(-124,-239,cs),
(-124,-269,o),
(-96,-290,o),
(-53,-290,cs)
);
}
);
width = 483;
},
{
anchors = (
{
name = bottom;
pos = (358,0);
},
{
name = top;
pos = (320,446);
}
);
layerId = m002;
shapes = (
{
closed = 1;
nodes = (
(4,-304,o),
(53,-264,o),
(204,-88,cs),
(317,43,ls),
(486,242,o),
(510,291,o),
(510,363,cs),
(510,417,o),
(476,460,o),
(426,460,cs),
(388,460,o),
(355,434,o),
(355,403,cs),
(355,386,o),
(364,374,o),
(386,350,cs),
(405,330,o),
(414,310,o),
(414,284,cs),
(414,250,o),
(399,214,o),
(369,173,cs),
(277,48,l),
(310,76,l),
(281,139,ls),
(235,240,o),
(218,294,o),
(218,336,cs),
(218,379,o),
(237,410,o),
(276,427,c),
(267,454,l),
(220,448,o),
(173,446,o),
(79,446,c),
(68,412,l),
(221,411,l),
(207,427,l),
(108,379,o),
(68,337,o),
(68,280,cs),
(68,250,o),
(58,272,o),
(138,126,cs),
(171,67,o),
(184,28,o),
(184,-8,cs),
(184,-46,o),
(169,-80,o),
(138,-113,cs),
(99,-155,ls),
(69,-188,o),
(54,-197,o),
(37,-197,cs),
(23,-197,o),
(6,-191,o),
(-11,-182,cs),
(-47,-163,o),
(-62,-158,o),
(-80,-158,cs),
(-120,-158,o),
(-148,-188,o),
(-148,-230,cs),
(-148,-276,o),
(-114,-304,o),
(-60,-304,cs)
);
}
);
width = 502;
}
);
unicode = 121;
},
{
color = 6;
glyphname = z;
kernLeft = z;
kernRight = z;
layers = (
{
anchors = (
{
name = bottom;
pos = (168,0);
},
{
name = top;
pos = (307,440);
}
);
layerId = "9372F035-DA38-4B54-966C-CEBA9B53DD02";
shapes = (
{
closed = 1;
nodes = (
(41,-14,o),
(52,-6,o),
(69,16,cs),
(79,29,ls),
(99,55,o),
(119,68,o),
(141,68,cs),
(160,68,o),
(180,59,o),
(206,38,cs),
(226,22,ls),
(260,-5,o),
(281,-14,o),
(308,-14,cs),
(372,-14,o),
(413,38,o),
(413,119,cs),
(413,135,o),
(413,140,o),
(411,151,c),
(384,148,l),
(385,139,o),
(385,136,o),
(385,128,cs),
(385,80,o),
(366,55,o),
(329,55,cs),
(313,55,o),
(290,60,o),
(266,70,cs),
(246,78,ls),
(214,91,o),
(187,97,o),
(163,97,cs),
(135,97,o),
(108,89,o),
(79,71,c),
(70,54,l),
(412,359,l),
(397,375,l),
(113,123,ls),
(84,97,o),
(61,79,o),
(50,74,cs),
(39,69,ls),
(8,55,o),
(-8,42,o),
(-8,21,cs),
(-8,2,o),
(8,-14,o),
(27,-14,cs)
);
},
{
closed = 1;
nodes = (
(105,316,l),
(107,359,o),
(125,378,o),
(163,378,cs),
(176,378,o),
(190,375,o),
(228,365,cs),
(258,357,ls),
(298,346,o),
(322,342,o),
(343,342,cs),
(421,342,o),
(501,387,o),
(501,432,cs),
(501,450,o),
(488,462,o),
(469,462,cs),
(448,462,o),
(432,449,o),
(418,420,cs),
(410,404,ls),
(399,381,o),
(385,371,o),
(367,371,cs),
(353,371,o),
(341,377,o),
(312,398,cs),
(286,417,ls),
(246,446,o),
(227,454,o),
(201,454,cs),
(136,454,o),
(86,396,o),
(81,316,c)
);
}
);
width = 488;
},
{
anchors = (
{
name = bottom;
pos = (176,0);
},
{
name = top;
pos = (305,446);
}
);
layerId = m002;
shapes = (
{
closed = 1;
nodes = (
(36,-14,o),
(53,-3,o),
(71,23,cs),
(80,36,ls),
(95,58,o),
(113,68,o),
(134,68,cs),
(153,68,o),
(176,60,o),
(210,38,cs),
(228,26,ls),
(269,-1,o),
(302,-14,o),
(330,-14,cs),
(394,-14,o),
(440,52,o),
(440,146,cs),
(440,157,o),
(439,168,o),
(438,179,c),
(404,176,l),
(405,171,o),
(405,169,o),
(405,162,cs),
(405,127,o),
(385,107,o),
(350,107,cs),
(338,107,o),
(323,109,o),
(298,112,cs),
(276,115,ls),
(236,121,o),
(213,123,o),
(190,123,cs),
(169,123,o),
(148,121,o),
(116,115,c),
(111,82,l),
(395,334,l),
(357,354,l),
(153,174,ls),
(118,143,o),
(95,127,o),
(71,118,cs),
(45,108,ls),
(-15,84,o),
(-34,58,o),
(-34,31,cs),
(-34,3,o),
(-13,-14,o),
(11,-14,cs)
);
},
{
closed = 1;
nodes = (
(90,283,l),
(94,312,o),
(113,327,o),
(147,327,cs),
(160,327,o),
(177,324,o),
(205,320,cs),
(224,317,ls),
(257,312,o),
(275,310,o),
(305,310,cs),
(415,310,o),
(518,366,o),
(518,427,cs),
(518,452,o),
(504,470,o),
(477,470,cs),
(457,470,o),
(440,459,o),
(417,431,cs),
(398,408,ls),
(379,385,o),
(371,378,o),
(359,378,cs),
(347,378,o),
(334,385,o),
(299,411,cs),
(283,423,ls),
(247,450,o),
(227,460,o),
(198,460,cs),
(119,460,o),
(58,385,o),
(53,282,c)
);
}
);
width = 492;
}
);
unicode = 122;
},
{
color = 6;
glyphname = f.calt;
kernLeft = f;
kernRight = f;
layers = (
{
layerId = "9372F035-DA38-4B54-966C-CEBA9B53DD02";
shapes = (
{
closed = 1;
nodes = (
(-5,-290,o),
(47,-243,o),
(85,-127,cs),
(327,611,ls),
(346,669,o),
(381,702,o),
(419,702,cs),
(444,702,o),
(453,688,o),
(453,651,cs),
(453,618,o),
(467,601,o),
(493,601,cs),
(523,601,o),
(540,623,o),
(540,652,cs),
(540,698,o),
(498,724,o),
(434,724,cs),
(338,724,o),
(271,666,o),
(234,552,cs),
(13,-127,ls),
(-21,-231,o),
(-53,-268,o),
(-109,-268,cs),
(-146,-268,o),
(-169,-252,o),
(-188,-215,c),
(-233,-249,l),
(-203,-275,o),
(-161,-290,o),
(-105,-290,cs)
);
},
{
closed = 1;
nodes = (
(370,416,l),
(378,440,l),
(111,440,l),
(103,416,l)
);
}
);
width = 342;
},
{
layerId = m002;
shapes = (
{
closed = 1;
nodes = (
(9,-294,o),
(86,-241,o),
(127,-117,cs),
(340,533,ls),
(382,661,o),
(398,688,o),
(427,688,cs),
(445,688,o),
(449,677,o),
(449,632,cs),
(449,581,o),
(467,560,o),
(511,560,cs),
(559,560,o),
(595,586,o),
(595,635,cs),
(595,692,o),
(545,724,o),
(446,724,cs),
(318,724,o),
(241,671,o),
(200,547,cs),
(-13,-103,ls),
(-47,-208,o),
(-86,-258,o),
(-134,-258,cs),
(-164,-258,o),
(-188,-240,o),
(-200,-206,c),
(-254,-255,l),
(-217,-283,o),
(-179,-294,o),
(-120,-294,cs)
);
},
{
closed = 1;
nodes = (
(406,406,l),
(419,446,l),
(97,446,l),
(84,406,l)
);
}
);
width = 366;
}
);
metricRight = f;
},
{
color = 3;
glyphname = j.calt;
kernLeft = f;
kernRight = l;
layers = (
{
layerId = "9372F035-DA38-4B54-966C-CEBA9B53DD02";
shapes = (
{
closed = 1;
nodes = (
(-11,-290,o),
(36,-247,o),
(75,-127,cs),
(260,443,l),
(98,440,l),
(91,416,l),
(120,416,ls),
(168,416,o),
(176,399,o),
(158,344,cs),
(3,-127,ls),
(-33,-236,o),
(-59,-268,o),
(-110,-268,cs),
(-145,-268,o),
(-169,-251,o),
(-189,-211,c),
(-236,-247,l),
(-206,-275,o),
(-162,-290,o),
(-106,-290,cs)
);
},
{
pos = (17,0);
ref = dotaccentcomb;
}
);
width = 270;
},
{
layerId = m002;
shapes = (
{
closed = 1;
nodes = (
(3,-294,o),
(80,-240,o),
(120,-117,cs),
(305,449,l),
(75,446,l),
(62,406,l),
(83,406,ls),
(131,406,o),
(139,389,o),
(121,334,cs),
(-20,-103,ls),
(-55,-211,o),
(-90,-258,o),
(-137,-258,cs),
(-174,-258,o),
(-202,-232,o),
(-213,-187,c),
(-270,-247,l),
(-233,-278,o),
(-186,-294,o),
(-119,-294,cs)
);
},
{
pos = (31,-6);
ref = dotaccentcomb;
}
);
width = 294;
}
);
metricRight = j;
metricWidth = j;
},
{
color = 6;
glyphname = jdotless.calt;
kernLeft = j;
kernRight = u;
layers = (
{
anchors = (
{
name = top;
pos = (210,440);
}
);
layerId = "9372F035-DA38-4B54-966C-CEBA9B53DD02";
shapes = (
{
closed = 1;
nodes = (
(-265,-231,l),
(-238,-269,o),
(-187,-290,o),
(-121,-290,cs),
(-27,-290,o),
(20,-247,o),
(59,-127,cs),
(244,443,l),
(82,440,l),
(75,416,l),
(104,416,ls),
(152,416,o),
(160,399,o),
(142,344,cs),
(-13,-127,ls),
(-49,-236,o),
(-75,-268,o),
(-126,-268,cs),
(-170,-268,o),
(-197,-241,o),
(-220,-174,c)
);
}
);
width = 278;
},
{
anchors = (
{
name = top;
pos = (226,446);
}
);
layerId = m002;
shapes = (
{
closed = 1;
nodes = (
(-270,-239,l),
(-234,-277,o),
(-187,-294,o),
(-117,-294,cs),
(11,-294,o),
(88,-239,o),
(128,-117,cs),
(313,449,l),
(83,446,l),
(70,406,l),
(91,406,ls),
(139,406,o),
(147,390,o),
(129,334,cs),
(-12,-103,ls),
(-46,-208,o),
(-85,-258,o),
(-133,-258,cs),
(-181,-258,o),
(-210,-212,o),
(-207,-142,c)
);
}
);
width = 278;
}
);
},
{
color = 6;
glyphname = q.calt;
kernLeft = o;
kernRight = q;
layers = (
{
anchors = (
{
name = bottom;
pos = (99,-280);
},
{
name = top;
pos = (336,440);
}
);
layerId = "9372F035-DA38-4B54-966C-CEBA9B53DD02";
shapes = (
{
closed = 1;
nodes = (
(274,-280,l),
(513,440,l),
(441,440,l),
(406,332,l),
(418,336,l),
(418,413,o),
(384,454,o),
(315,454,cs),
(176,454,o),
(28,287,o),
(28,126,cs),
(28,38,o),
(75,-14,o),
(156,-14,cs),
(233,-14,o),
(302,35,o),
(345,120,c),
(337,126,l),
(229,-200,ls),
(215,-242,o),
(189,-256,o),
(158,-256,cs),
(128,-256,l),
(120,-280,l)
);
},
{
closed = 1;
nodes = (
(123,14,o),
(99,49,o),
(101,117,cs),
(106,264,o),
(225,429,o),
(326,429,cs),
(371,429,o),
(396,397,o),
(396,341,cs),
(396,306,o),
(386,257,o),
(367,208,cs),
(323,94,o),
(243,14,o),
(171,14,cs)
);
}
);
width = 512;
},
{
anchors = (
{
name = bottom;
pos = (109,-280);
},
{
name = top;
pos = (337,446);
}
);
layerId = m002;
shapes = (
{
closed = 1;
nodes = (
(328,-280,l),
(564,446,l),
(422,446,l),
(372,294,l),
(390,294,l),
(421,393,o),
(377,460,o),
(288,460,cs),
(137,460,o),
(11,270,o),
(11,127,cs),
(11,48,o),
(49,-14,o),
(135,-14,cs),
(211,-14,o),
(296,35,o),
(346,131,c),
(320,131,l),
(218,-175,ls),
(202,-223,o),
(182,-246,o),
(142,-246,cs),
(114,-246,l),
(103,-280,l)
);
},
{
closed = 1;
nodes = (
(177,52,o),
(161,74,o),
(161,116,cs),
(161,210,o),
(243,393,o),
(324,393,cs),
(354,393,o),
(370,369,o),
(370,326,cs),
(370,297,o),
(361,260,o),
(349,222,cs),
(322,138,o),
(270,52,o),
(208,52,cs)
);
}
);
width = 564;
}
);
metricLeft = o;
},
{
color = 3;
glyphname = j.fina;
kernLeft = f;
kernRight = l;
layers = (
{
layerId = "9372F035-DA38-4B54-966C-CEBA9B53DD02";
shapes = (
{
closed = 1;
nodes = (
(-12,-290,o),
(36,-247,o),
(75,-127,cs),
(260,443,l),
(98,440,l),
(91,416,l),
(120,416,ls),
(168,416,o),
(176,400,o),
(158,344,cs),
(3,-127,ls),
(-33,-236,o),
(-59,-268,o),
(-110,-268,cs),
(-161,-268,o),
(-191,-231,o),
(-214,-139,c),
(-263,-195,l),
(-257,-251,o),
(-191,-290,o),
(-104,-290,cs)
);
},
{
pos = (17,0);
ref = dotaccentcomb;
}
);
width = 270;
},
{
layerId = m002;
shapes = (
{
closed = 1;
nodes = (
(-7,-294,o),
(76,-251,o),
(120,-117,cs),
(305,449,l),
(75,446,l),
(62,406,l),
(83,406,ls),
(137,406,o),
(137,382,o),
(121,334,cs),
(-20,-103,ls),
(-54,-209,o),
(-89,-258,o),
(-137,-258,cs),
(-166,-258,o),
(-200,-242,o),
(-213,-187,c),
(-270,-247,l),
(-232,-279,o),
(-182,-294,o),
(-125,-294,cs)
);
},
{
pos = (31,-6);
ref = dotaccentcomb;
}
);
width = 294;
}
);
metricRight = j;
metricWidth = j;
},
{
color = 3;
glyphname = ae.ss03;
kernLeft = a;
kernRight = e;
layers = (
{
anchors = (
{
name = bottom;
pos = (282,0);
},
{
name = top;
pos = (424,440);
}
);
layerId = "9372F035-DA38-4B54-966C-CEBA9B53DD02";
shapes = (
{
closed = 1;
nodes = (
(204,-14,o),
(268,24,o),
(310,93,c),
(304,130,l),
(280,71,o),
(217,22,o),
(166,22,cs),
(122,22,o),
(97,59,o),
(97,124,cs),
(97,267,o),
(217,432,o),
(322,432,cs),
(372,432,o),
(403,396,o),
(403,340,c),
(456,404,l),
(423,434,o),
(375,452,o),
(329,452,cs),
(178,452,o),
(18,260,o),
(18,107,cs),
(18,29,o),
(60,-14,o),
(134,-14,cs)
);
},
{
pos = (263,0);
ref = e;
}
);
width = 681;
},
{
anchors = (
{
name = bottom;
pos = (314,0);
},
{
name = top;
pos = (468,446);
}
);
layerId = m002;
shapes = (
{
closed = 1;
nodes = (
(195,-14,o),
(275,31,o),
(318,102,c),
(308,148,l),
(272,85,o),
(229,47,o),
(193,47,cs),
(164,47,o),
(149,72,o),
(149,120,cs),
(149,258,o),
(265,424,o),
(371,424,cs),
(404,424,o),
(437,405,o),
(437,382,c),
(515,435,l),
(470,452,o),
(425,460,o),
(380,460,cs),
(190,460,o),
(1,264,o),
(1,82,cs),
(1,24,o),
(42,-14,o),
(113,-14,cs)
);
},
{
pos = (284,0);
ref = e;
}
);
width = 760;
}
);
metricLeft = a;
metricRight = e;
},
{
color = 3;
glyphname = f_b.liga;
kernLeft = f;
layers = (
{
layerId = "9372F035-DA38-4B54-966C-CEBA9B53DD02";
shapes = (
{
closed = 1;
nodes = (
(671,-14,o),
(806,145,o),
(806,304,cs),
(806,402,o),
(757,454,o),
(679,454,cs),
(617,454,o),
(555,413,o),
(516,351,c),
(520,343,l),
(625,668,l),
(550,658,l),
(414,233,ls),
(362,72,o),
(400,-14,o),
(517,-14,cs)
);
},
{
ref = _f.init.2;
},
{
closed = 1;
nodes = (
(453,8,o),
(435,96,o),
(480,221,cs),
(499,274,ls),
(529,358,o),
(602,426,o),
(663,426,cs),
(708,426,o),
(732,388,o),
(732,319,cs),
(732,172,o),
(622,8,o),
(524,8,cs)
);
}
);
width = 840;
},
{
layerId = m002;
shapes = (
{
closed = 1;
nodes = (
(707,-14,o),
(841,65,o),
(893,211,cs),
(938,339,o),
(886,460,o),
(780,460,cs),
(715,460,o),
(638,419,o),
(591,342,c),
(614,343,l),
(723,676,l),
(576,665,l),
(438,243,ls),
(383,75,o),
(425,-14,o),
(582,-14,cs)
);
},
{
ref = _f.init.2;
},
{
closed = 1;
nodes = (
(542,37,o),
(529,86,o),
(568,210,cs),
(575,232,ls),
(608,336,o),
(661,394,o),
(711,394,cs),
(763,394,o),
(771,327,o),
(734,213,cs),
(699,105,o),
(644,37,o),
(592,37,cs)
);
}
);
width = 932;
}
);
metricLeft = f;
metricRight = b;
},
{
color = 3;
glyphname = f_f_b.liga;
kernLeft = f;
layers = (
{
layerId = "9372F035-DA38-4B54-966C-CEBA9B53DD02";
shapes = (
{
closed = 1;
nodes = (
(966,-14,o),
(1101,145,o),
(1101,304,cs),
(1101,402,o),
(1052,454,o),
(974,454,cs),
(912,454,o),
(850,413,o),
(811,351,c),
(815,343,l),
(920,668,l),
(845,658,l),
(709,233,ls),
(657,72,o),
(695,-14,o),
(812,-14,cs)
);
},
{
ref = _f_f.init;
},
{
closed = 1;
nodes = (
(748,8,o),
(730,96,o),
(775,221,cs),
(794,274,ls),
(824,358,o),
(897,426,o),
(958,426,cs),
(1003,426,o),
(1027,388,o),
(1027,319,cs),
(1027,172,o),
(917,8,o),
(819,8,cs)
);
}
);
width = 1135;
},
{
layerId = m002;
shapes = (
{
closed = 1;
nodes = (
(1091,-14,o),
(1243,130,o),
(1243,298,cs),
(1243,396,o),
(1192,460,o),
(1113,460,cs),
(1044,460,o),
(969,412,o),
(926,342,c),
(949,343,l),
(1058,676,l),
(911,665,l),
(773,243,ls),
(718,74,o),
(765,-14,o),
(908,-14,cs)
);
},
{
ref = _f_f.init;
},
{
closed = 1;
nodes = (
(872,37,o),
(863,105,o),
(905,218,cs),
(917,250,ls),
(950,338,o),
(1001,394,o),
(1048,394,cs),
(1077,394,o),
(1092,372,o),
(1092,323,cs),
(1092,200,o),
(999,37,o),
(922,37,cs)
);
}
);
width = 1268;
}
);
metricLeft = f;
metricRight = b;
},
{
color = 3;
glyphname = f_f_h.liga;
kernLeft = f;
layers = (
{
layerId = "9372F035-DA38-4B54-966C-CEBA9B53DD02";
shapes = (
{
closed = 1;
nodes = (
(1014,-14,o),
(1057,16,o),
(1091,72,c),
(1073,84,l),
(1050,45,o),
(1018,19,o),
(997,19,cs),
(977,19,o),
(975,42,o),
(989,80,cs),
(1079,331,ls),
(1107,408,o),
(1081,454,o),
(1006,454,cs),
(932,454,o),
(861,410,o),
(802,327,c),
(804,313,l),
(919,668,l),
(848,668,l),
(630,-1,l),
(702,0,l),
(786,257,ls),
(812,336,o),
(917,429,o),
(982,429,cs),
(1018,429,o),
(1031,401,o),
(1015,356,cs),
(928,110,ls),
(899,28,o),
(914,-14,o),
(968,-14,cs)
);
},
{
ref = _f_f.init;
}
);
width = 1139;
},
{
layerId = m002;
shapes = (
{
closed = 1;
nodes = (
(1173,-14,o),
(1228,23,o),
(1260,93,c),
(1232,111,l),
(1211,68,o),
(1191,45,o),
(1174,45,cs),
(1157,45,o),
(1155,65,o),
(1168,104,cs),
(1234,299,ls),
(1270,407,o),
(1241,460,o),
(1151,460,cs),
(1028,460,o),
(916,363,o),
(873,221,c),
(908,226,l),
(1058,676,l),
(905,657,l),
(692,0,l),
(837,0,l),
(912,226,ls),
(944,322,o),
(1009,394,o),
(1065,394,cs),
(1099,394,o),
(1111,366,o),
(1096,321,cs),
(1031,131,ls),
(998,33,o),
(1020,-14,o),
(1100,-14,cs)
);
},
{
ref = _f_f.init;
}
);
width = 1292;
}
);
metricLeft = f;
metricRight = h;
},
{
color = 3;
glyphname = f_f_i.liga;
kernLeft = f;
layers = (
{
layerId = "9372F035-DA38-4B54-966C-CEBA9B53DD02";
shapes = (
{
closed = 1;
nodes = (
(266,-290,o),
(316,-246,o),
(355,-127,cs),
(583,572,ls),
(609,653,o),
(661,702,o),
(721,702,cs),
(759,702,o),
(775,682,o),
(775,633,cs),
(775,602,o),
(793,582,o),
(822,582,cs),
(856,582,o),
(881,607,o),
(881,639,cs),
(881,689,o),
(819,724,o),
(731,724,cs),
(618,724,o),
(542,667,o),
(504,551,cs),
(283,-127,ls),
(248,-234,o),
(219,-268,o),
(164,-268,cs),
(107,-268,o),
(74,-229,o),
(55,-139,c),
(2,-186,l),
(19,-252,o),
(80,-290,o),
(169,-290,cs)
);
},
{
ref = _f.init;
},
{
closed = 1;
nodes = (
(484,416,l),
(492,440,l),
(388,440,l),
(381,416,l)
);
},
{
closed = 1;
nodes = (
(719,-14,o),
(762,17,o),
(796,75,c),
(778,87,l),
(755,46,o),
(724,19,o),
(701,19,cs),
(682,19,o),
(680,41,o),
(695,85,cs),
(821,443,l),
(659,440,l),
(525,440,l),
(517,416,l),
(681,416,ls),
(730,416,o),
(739,398,o),
(719,344,cs),
(633,113,ls),
(603,31,o),
(618,-14,o),
(674,-14,cs)
);
}
);
width = 853;
},
{
layerId = m002;
shapes = (
{
closed = 1;
nodes = (
(330,-294,o),
(426,-223,o),
(466,-101,cs),
(673,533,ls),
(709,642,o),
(748,688,o),
(804,688,cs),
(840,688,o),
(853,670,o),
(853,622,cs),
(853,575,o),
(881,547,o),
(928,547,cs),
(976,547,o),
(1009,577,o),
(1009,621,cs),
(1009,685,o),
(939,724,o),
(825,724,cs),
(670,724,o),
(567,652,o),
(521,509,cs),
(311,-134,ls),
(284,-218,o),
(247,-258,o),
(197,-258,cs),
(139,-258,o),
(113,-200,o),
(122,-89,c),
(35,-201,l),
(64,-263,o),
(121,-294,o),
(204,-294,cs)
);
},
{
ref = _f.init;
},
{
closed = 1;
nodes = (
(525,406,l),
(539,446,l),
(431,446,l),
(418,406,l)
);
},
{
closed = 1;
nodes = (
(873,-14,o),
(928,23,o),
(960,93,c),
(932,111,l),
(911,68,o),
(891,45,o),
(874,45,cs),
(857,45,o),
(855,65,o),
(868,104,cs),
(982,449,l),
(752,446,l),
(611,446,l),
(598,406,l),
(760,406,ls),
(808,406,o),
(816,389,o),
(798,334,cs),
(731,131,ls),
(699,32,o),
(721,-14,o),
(800,-14,cs)
);
}
);
width = 986;
}
);
metricLeft = f;
metricRight = i;
},
{
color = 3;
glyphname = f_f_j.liga;
kernLeft = f;
layers = (
{
layerId = "9372F035-DA38-4B54-966C-CEBA9B53DD02";
shapes = (
{
closed = 1;
nodes = (
(266,-290,o),
(316,-246,o),
(355,-127,cs),
(582,570,ls),
(609,652,o),
(661,702,o),
(721,702,cs),
(759,702,o),
(775,682,o),
(775,633,cs),
(775,602,o),
(793,582,o),
(822,582,cs),
(856,582,o),
(881,607,o),
(881,639,cs),
(881,690,o),
(821,724,o),
(732,724,cs),
(617,724,o),
(542,667,o),
(504,551,cs),
(283,-127,ls),
(248,-234,o),
(219,-268,o),
(164,-268,cs),
(107,-268,o),
(74,-229,o),
(55,-139,c),
(2,-186,l),
(19,-252,o),
(80,-290,o),
(169,-290,cs)
);
},
{
ref = _f.init;
},
{
closed = 1;
nodes = (
(547,-290,o),
(597,-246,o),
(636,-127,cs),
(821,443,l),
(659,440,l),
(530,440,l),
(522,416,l),
(681,416,ls),
(729,416,o),
(737,400,o),
(719,344,cs),
(564,-127,ls),
(529,-234,o),
(500,-268,o),
(445,-268,cs),
(388,-268,o),
(355,-229,o),
(336,-139,c),
(283,-186,l),
(300,-252,o),
(361,-290,o),
(450,-290,cs)
);
},
{
closed = 1;
nodes = (
(475,416,l),
(483,440,l),
(388,440,l),
(381,416,l)
);
}
);
width = 828;
},
{
layerId = m002;
shapes = (
{
closed = 1;
nodes = (
(320,-294,o),
(416,-223,o),
(456,-101,cs),
(663,533,ls),
(699,642,o),
(738,688,o),
(794,688,cs),
(830,688,o),
(842,671,o),
(842,622,cs),
(842,575,o),
(870,547,o),
(917,547,cs),
(965,547,o),
(998,577,o),
(998,621,cs),
(998,685,o),
(928,724,o),
(814,724,cs),
(662,724,o),
(558,653,o),
(514,520,cs),
(301,-134,ls),
(274,-218,o),
(237,-258,o),
(187,-258,cs),
(129,-258,o),
(103,-200,o),
(112,-89,c),
(25,-201,l),
(54,-263,o),
(111,-294,o),
(194,-294,cs)
);
},
{
ref = _f.init;
},
{
closed = 1;
nodes = (
(656,-294,o),
(752,-223,o),
(792,-101,cs),
(971,449,l),
(741,446,l),
(594,446,l),
(580,406,l),
(749,406,ls),
(796,406,o),
(805,390,o),
(787,334,cs),
(637,-134,ls),
(610,-218,o),
(573,-258,o),
(523,-258,cs),
(465,-258,o),
(439,-200,o),
(448,-89,c),
(361,-201,l),
(390,-263,o),
(447,-294,o),
(530,-294,cs)
);
},
{
closed = 1;
nodes = (
(503,406,l),
(516,446,l),
(420,446,l),
(407,406,l)
);
}
);
width = 960;
}
);
metricLeft = f;
metricRight = j;
},
{
color = 3;
glyphname = f_f_k.liga;
kernLeft = f;
layers = (
{
layerId = "9372F035-DA38-4B54-966C-CEBA9B53DD02";
shapes = (
{
closed = 1;
nodes = (
(1011,-14,o),
(1048,13,o),
(1080,72,c),
(1063,84,l),
(1034,39,o),
(1012,19,o),
(990,19,cs),
(966,19,o),
(960,39,o),
(960,117,cs),
(960,147,ls),
(960,253,o),
(921,284,o),
(790,284,c),
(788,269,l),
(866,269,o),
(892,239,o),
(892,150,cs),
(892,117,ls),
(892,20,o),
(911,-14,o),
(963,-14,cs)
);
},
{
ref = _f_f.init;
},
{
closed = 1;
nodes = (
(704,0,l),
(920,668,l),
(848,667,l),
(632,0,l)
);
},
{
closed = 1;
nodes = (
(843,270,o),
(870,282,o),
(925,340,cs),
(966,383,ls),
(988,406,o),
(1000,414,o),
(1011,414,cs),
(1022,414,o),
(1025,406,o),
(1025,375,cs),
(1025,351,o),
(1038,337,o),
(1060,337,cs),
(1087,337,o),
(1105,359,o),
(1105,392,cs),
(1105,429,o),
(1081,454,o),
(1045,454,cs),
(1016,454,o),
(994,440,o),
(950,394,cs),
(913,355,ls),
(860,299,o),
(829,284,o),
(770,284,c),
(770,270,l)
);
}
);
width = 1116;
},
{
layerId = m002;
shapes = (
{
closed = 1;
nodes = (
(1154,-14,o),
(1206,22,o),
(1237,92,c),
(1209,106,l),
(1190,66,o),
(1169,45,o),
(1151,45,cs),
(1134,45,o),
(1129,61,o),
(1127,123,cs),
(1126,151,ls),
(1122,258,o),
(1075,288,o),
(910,288,c),
(908,254,l),
(969,254,o),
(985,233,o),
(989,147,cs),
(990,124,ls),
(994,20,o),
(1018,-14,o),
(1086,-14,cs)
);
},
{
ref = _f_f.init;
},
{
closed = 1;
nodes = (
(836,0,l),
(1058,676,l),
(900,640,l),
(690,0,l)
);
},
{
closed = 1;
nodes = (
(972,264,o),
(1015,281,o),
(1056,330,cs),
(1087,367,ls),
(1104,388,o),
(1116,397,o),
(1126,397,cs),
(1138,397,o),
(1143,386,o),
(1143,361,cs),
(1143,327,o),
(1163,307,o),
(1197,307,cs),
(1241,307,o),
(1273,337,o),
(1273,385,cs),
(1273,430,o),
(1243,460,o),
(1188,460,cs),
(1140,460,o),
(1104,441,o),
(1064,394,cs),
(1031,355,ls),
(989,305,o),
(953,288,o),
(890,288,c),
(890,264,l)
);
}
);
width = 1265;
}
);
metricLeft = f;
metricRight = k;
},
{
color = 3;
glyphname = f_f_l.liga;
kernLeft = f;
layers = (
{
layerId = "9372F035-DA38-4B54-966C-CEBA9B53DD02";
shapes = (
{
closed = 1;
nodes = (
(754,-14,o),
(797,16,o),
(831,75,c),
(813,87,l),
(790,46,o),
(759,19,o),
(736,19,cs),
(717,19,o),
(715,39,o),
(730,85,cs),
(920,668,l),
(849,668,l),
(668,113,ls),
(640,27,o),
(652,-14,o),
(707,-14,cs)
);
},
{
ref = _f_f.init;
}
);
width = 883;
},
{
layerId = m002;
shapes = (
{
closed = 1;
nodes = (
(876,-14,o),
(931,23,o),
(963,93,c),
(935,111,l),
(914,68,o),
(894,45,o),
(877,45,cs),
(860,45,o),
(858,65,o),
(871,104,cs),
(1058,676,l),
(907,663,l),
(734,131,ls),
(702,31,o),
(723,-14,o),
(803,-14,cs)
);
},
{
ref = _f_f.init;
}
);
width = 1005;
}
);
metricLeft = f;
metricRight = l;
},
{
color = 3;
glyphname = f_f_t.liga;
kernLeft = f;
layers = (
{
layerId = "9372F035-DA38-4B54-966C-CEBA9B53DD02";
shapes = (
{
closed = 1;
nodes = (
(757,-14,o),
(807,19,o),
(839,72,c),
(821,84,l),
(798,45,o),
(767,19,o),
(743,19,cs),
(719,19,o),
(715,42,o),
(728,82,cs),
(873,526,l),
(802,526,l),
(666,110,ls),
(640,30,o),
(652,-14,o),
(708,-14,cs)
);
},
{
ref = _f.init;
},
{
pos = (282,0);
ref = _f.fin;
},
{
closed = 1;
nodes = (
(775,416,l),
(784,440,l),
(642,440,l),
(634,416,l)
);
},
{
closed = 1;
nodes = (
(922,416,l),
(930,440,l),
(823,440,l),
(813,416,l)
);
}
);
width = 911;
},
{
layerId = m002;
shapes = (
{
closed = 1;
nodes = (
(884,-14,o),
(940,23,o),
(974,93,c),
(947,111,l),
(919,65,o),
(896,45,o),
(873,45,cs),
(851,45,o),
(847,64,o),
(860,104,cs),
(1003,542,l),
(857,542,l),
(723,131,ls),
(690,30,o),
(717,-14,o),
(804,-14,cs)
);
},
{
ref = _f.init;
},
{
pos = (336,0);
ref = _f.fin;
},
{
closed = 1;
nodes = (
(844,406,l),
(858,446,l),
(738,446,l),
(725,406,l)
);
},
{
closed = 1;
nodes = (
(1066,406,l),
(1079,446,l),
(952,446,l),
(938,406,l)
);
}
);
width = 1030;
}
);
metricLeft = f;
metricRight = t;
},
{
color = 3;
glyphname = f_h.liga;
kernLeft = f;
layers = (
{
layerId = "9372F035-DA38-4B54-966C-CEBA9B53DD02";
shapes = (
{
ref = _f.init.2;
},
{
closed = 1;
nodes = (
(720,-14,o),
(763,16,o),
(797,72,c),
(779,84,l),
(756,45,o),
(724,19,o),
(703,19,cs),
(683,19,o),
(681,42,o),
(695,80,cs),
(785,331,ls),
(813,408,o),
(787,454,o),
(712,454,cs),
(638,454,o),
(567,410,o),
(508,327,c),
(510,313,l),
(625,668,l),
(554,668,l),
(336,-1,l),
(408,0,l),
(492,257,ls),
(518,336,o),
(623,429,o),
(688,429,cs),
(724,429,o),
(737,401,o),
(721,356,cs),
(634,110,ls),
(605,28,o),
(620,-14,o),
(674,-14,cs)
);
}
);
width = 845;
},
{
layerId = m002;
shapes = (
{
ref = _f.init.2;
},
{
closed = 1;
nodes = (
(838,-14,o),
(893,23,o),
(925,93,c),
(897,111,l),
(876,68,o),
(856,45,o),
(839,45,cs),
(822,45,o),
(820,65,o),
(833,104,cs),
(899,299,ls),
(935,407,o),
(906,460,o),
(816,460,cs),
(693,460,o),
(581,363,o),
(538,221,c),
(573,226,l),
(723,676,l),
(570,657,l),
(357,0,l),
(502,0,l),
(577,226,ls),
(609,322,o),
(674,394,o),
(730,394,cs),
(764,394,o),
(776,366,o),
(761,321,cs),
(696,131,ls),
(663,33,o),
(685,-14,o),
(765,-14,cs)
);
}
);
width = 957;
}
);
metricLeft = f;
metricRight = h;
},
{
color = 6;
glyphname = f_j.liga;
kernLeft = f;
layers = (
{
layerId = "9372F035-DA38-4B54-966C-CEBA9B53DD02";
shapes = (
{
closed = 1;
nodes = (
(-14,-290,o),
(37,-246,o),
(76,-127,cs),
(303,569,ls),
(331,654,o),
(381,702,o),
(441,702,cs),
(479,702,o),
(496,682,o),
(496,633,cs),
(496,602,o),
(514,582,o),
(543,582,cs),
(576,582,o),
(602,606,o),
(602,638,cs),
(602,689,o),
(541,724,o),
(447,724,cs),
(334,724,o),
(261,661,o),
(224,548,cs),
(4,-127,ls),
(-27,-221,o),
(-61,-268,o),
(-92,-268,cs),
(-113,-268,o),
(-118,-248,o),
(-126,-223,cs),
(-137,-188,o),
(-146,-170,o),
(-173,-170,cs),
(-201,-170,o),
(-222,-190,o),
(-222,-219,cs),
(-222,-263,o),
(-178,-290,o),
(-107,-290,cs)
);
},
{
closed = 1;
nodes = (
(267,-290,o),
(317,-246,o),
(356,-127,cs),
(541,443,l),
(379,440,l),
(250,440,l),
(242,416,l),
(401,416,ls),
(449,416,o),
(457,400,o),
(439,344,cs),
(284,-127,ls),
(249,-234,o),
(220,-268,o),
(165,-268,cs),
(108,-268,o),
(75,-229,o),
(56,-139,c),
(3,-186,l),
(20,-252,o),
(81,-290,o),
(170,-290,cs)
);
},
{
closed = 1;
nodes = (
(385,416,l),
(395,440,l),
(108,440,l),
(101,416,l)
);
}
);
width = 548;
},
{
layerId = m002;
shapes = (
{
closed = 1;
nodes = (
(12,-294,o),
(86,-240,o),
(127,-117,cs),
(340,533,ls),
(375,639,o),
(417,688,o),
(473,688,cs),
(508,688,o),
(521,670,o),
(520,622,cs),
(519,575,o),
(547,547,o),
(596,547,cs),
(643,547,o),
(676,577,o),
(676,621,cs),
(676,686,o),
(607,724,o),
(491,724,cs),
(336,724,o),
(235,654,o),
(189,514,cs),
(-13,-103,ls),
(-54,-228,o),
(-71,-258,o),
(-100,-258,cs),
(-115,-258,o),
(-122,-240,o),
(-122,-203,cs),
(-122,-153,o),
(-142,-130,o),
(-187,-130,cs),
(-239,-130,o),
(-268,-156,o),
(-268,-202,cs),
(-268,-261,o),
(-213,-294,o),
(-115,-294,cs)
);
},
{
closed = 1;
nodes = (
(332,-294,o),
(428,-223,o),
(468,-101,cs),
(647,449,l),
(417,446,l),
(270,446,l),
(256,406,l),
(425,406,ls),
(472,406,o),
(481,390,o),
(463,334,cs),
(313,-134,ls),
(286,-218,o),
(249,-258,o),
(199,-258,cs),
(140,-258,o),
(115,-201,o),
(124,-89,c),
(37,-201,l),
(66,-263,o),
(123,-294,o),
(206,-294,cs)
);
},
{
closed = 1;
nodes = (
(179,406,l),
(192,446,l),
(96,446,l),
(83,406,l)
);
}
);
width = 636;
}
);
metricLeft = f;
metricRight = j;
},
{
color = 3;
glyphname = f_k.liga;
kernLeft = f;
layers = (
{
layerId = "9372F035-DA38-4B54-966C-CEBA9B53DD02";
shapes = (
{
ref = _f.init.2;
},
{
closed = 1;
nodes = (
(408,0,l),
(625,668,l),
(553,667,l),
(336,0,l)
);
},
{
closed = 1;
nodes = (
(715,-14,o),
(752,13,o),
(784,72,c),
(767,84,l),
(738,39,o),
(716,19,o),
(694,19,cs),
(670,19,o),
(664,39,o),
(664,117,cs),
(664,147,ls),
(664,253,o),
(625,284,o),
(494,284,c),
(492,269,l),
(570,269,o),
(596,239,o),
(596,150,cs),
(596,117,ls),
(596,20,o),
(615,-14,o),
(667,-14,cs)
);
},
{
closed = 1;
nodes = (
(547,270,o),
(574,282,o),
(629,340,cs),
(670,383,ls),
(692,406,o),
(704,414,o),
(715,414,cs),
(726,414,o),
(729,406,o),
(729,375,cs),
(729,351,o),
(742,337,o),
(764,337,cs),
(791,337,o),
(809,359,o),
(809,392,cs),
(809,429,o),
(785,454,o),
(749,454,cs),
(720,454,o),
(698,440,o),
(654,394,cs),
(617,355,ls),
(564,299,o),
(533,284,o),
(474,284,c),
(474,270,l)
);
}
);
width = 820;
},
{
layerId = m002;
shapes = (
{
ref = _f.init.2;
},
{
closed = 1;
nodes = (
(501,0,l),
(723,676,l),
(565,640,l),
(355,0,l)
);
},
{
closed = 1;
nodes = (
(819,-14,o),
(871,22,o),
(902,92,c),
(874,106,l),
(855,66,o),
(834,45,o),
(816,45,cs),
(799,45,o),
(794,61,o),
(792,123,cs),
(791,151,ls),
(787,258,o),
(740,288,o),
(575,288,c),
(573,254,l),
(634,254,o),
(650,233,o),
(654,147,cs),
(655,124,ls),
(659,20,o),
(683,-14,o),
(751,-14,cs)
);
},
{
closed = 1;
nodes = (
(637,264,o),
(680,281,o),
(721,330,cs),
(752,367,ls),
(769,388,o),
(781,397,o),
(791,397,cs),
(803,397,o),
(808,386,o),
(808,361,cs),
(808,327,o),
(828,307,o),
(862,307,cs),
(906,307,o),
(938,337,o),
(938,385,cs),
(938,430,o),
(908,460,o),
(853,460,cs),
(805,460,o),
(769,441,o),
(729,394,cs),
(696,355,ls),
(654,305,o),
(618,288,o),
(555,288,c),
(555,264,l)
);
}
);
width = 930;
}
);
metricLeft = f;
metricRight = k;
},
{
color = 3;
glyphname = f_t.liga;
kernLeft = f;
layers = (
{
layerId = "9372F035-DA38-4B54-966C-CEBA9B53DD02";
shapes = (
{
closed = 1;
nodes = (
(464,-14,o),
(514,19,o),
(546,72,c),
(528,84,l),
(505,45,o),
(474,19,o),
(450,19,cs),
(426,19,o),
(422,42,o),
(435,82,cs),
(580,526,l),
(509,526,l),
(373,110,ls),
(347,30,o),
(359,-14,o),
(415,-14,cs)
);
},
{
ref = f;
},
{
closed = 1;
nodes = (
(482,416,l),
(491,440,l),
(349,440,l),
(341,416,l)
);
},
{
closed = 1;
nodes = (
(629,416,l),
(637,440,l),
(530,440,l),
(520,416,l)
);
}
);
width = 618;
},
{
layerId = m002;
shapes = (
{
closed = 1;
nodes = (
(558,-14,o),
(614,23,o),
(648,93,c),
(621,111,l),
(593,65,o),
(570,45,o),
(547,45,cs),
(525,45,o),
(521,64,o),
(534,104,cs),
(677,542,l),
(531,542,l),
(397,131,ls),
(364,30,o),
(391,-14,o),
(478,-14,cs)
);
},
{
ref = f;
},
{
closed = 1;
nodes = (
(518,406,l),
(532,446,l),
(412,446,l),
(399,406,l)
);
},
{
closed = 1;
nodes = (
(740,406,l),
(753,446,l),
(626,446,l),
(612,406,l)
);
}
);
width = 704;
}
);
metricLeft = f;
metricRight = t;
},
{
color = 6;
glyphname = fi;
kernLeft = f;
layers = (
{
layerId = "9372F035-DA38-4B54-966C-CEBA9B53DD02";
shapes = (
{
closed = 1;
nodes = (
(-14,-290,o),
(34,-246,o),
(73,-127,cs),
(301,572,ls),
(327,653,o),
(379,702,o),
(439,702,cs),
(477,702,o),
(493,682,o),
(493,633,cs),
(493,602,o),
(511,582,o),
(540,582,cs),
(574,582,o),
(599,607,o),
(599,639,cs),
(599,689,o),
(537,724,o),
(449,724,cs),
(336,724,o),
(260,667,o),
(222,551,cs),
(1,-127,ls),
(-30,-221,o),
(-61,-268,o),
(-93,-268,cs),
(-108,-268,o),
(-116,-258,o),
(-126,-224,cs),
(-137,-184,o),
(-149,-170,o),
(-173,-170,cs),
(-201,-170,o),
(-222,-190,o),
(-222,-219,cs),
(-222,-263,o),
(-178,-290,o),
(-107,-290,cs)
);
},
{
closed = 1;
nodes = (
(202,416,l),
(210,440,l),
(106,440,l),
(99,416,l)
);
},
{
closed = 1;
nodes = (
(437,-14,o),
(480,17,o),
(514,75,c),
(496,87,l),
(473,46,o),
(442,19,o),
(419,19,cs),
(400,19,o),
(398,41,o),
(413,85,cs),
(539,443,l),
(377,440,l),
(243,440,l),
(235,416,l),
(399,416,ls),
(448,416,o),
(457,398,o),
(437,344,cs),
(351,113,ls),
(321,31,o),
(336,-14,o),
(392,-14,cs)
);
}
);
width = 571;
},
{
layerId = m002;
shapes = (
{
closed = 1;
nodes = (
(6,-294,o),
(85,-241,o),
(126,-117,cs),
(338,533,ls),
(373,642,o),
(413,688,o),
(469,688,cs),
(505,688,o),
(518,670,o),
(518,622,cs),
(518,575,o),
(546,547,o),
(593,547,cs),
(641,547,o),
(674,577,o),
(674,621,cs),
(674,685,o),
(604,724,o),
(490,724,cs),
(335,724,o),
(233,652,o),
(186,509,cs),
(-14,-103,ls),
(-54,-226,o),
(-72,-258,o),
(-100,-258,cs),
(-119,-258,o),
(-123,-247,o),
(-123,-203,cs),
(-123,-151,o),
(-146,-130,o),
(-189,-130,cs),
(-237,-130,o),
(-269,-159,o),
(-269,-203,cs),
(-269,-260,o),
(-213,-294,o),
(-116,-294,cs)
);
},
{
closed = 1;
nodes = (
(190,406,l),
(204,446,l),
(96,446,l),
(83,406,l)
);
},
{
closed = 1;
nodes = (
(538,-14,o),
(593,23,o),
(625,93,c),
(597,111,l),
(576,68,o),
(556,45,o),
(539,45,cs),
(522,45,o),
(520,65,o),
(533,104,cs),
(647,449,l),
(417,446,l),
(276,446,l),
(263,406,l),
(425,406,ls),
(473,406,o),
(481,389,o),
(463,334,cs),
(396,131,ls),
(364,32,o),
(386,-14,o),
(465,-14,cs)
);
}
);
width = 651;
}
);
metricLeft = f;
metricRight = i;
unicode = 64257;
},
{
color = 3;
glyphname = fl;
kernLeft = f;
layers = (
{
layerId = "9372F035-DA38-4B54-966C-CEBA9B53DD02";
shapes = (
{
closed = 1;
nodes = (
(459,-14,o),
(502,16,o),
(536,75,c),
(518,87,l),
(495,46,o),
(464,19,o),
(441,19,cs),
(422,19,o),
(420,39,o),
(435,85,cs),
(625,668,l),
(554,668,l),
(373,113,ls),
(345,27,o),
(357,-14,o),
(412,-14,cs)
);
},
{
ref = _f.init.2;
}
);
width = 588;
},
{
layerId = m002;
shapes = (
{
closed = 1;
nodes = (
(541,-14,o),
(596,23,o),
(628,93,c),
(600,111,l),
(579,68,o),
(559,45,o),
(542,45,cs),
(525,45,o),
(523,65,o),
(536,104,cs),
(723,676,l),
(572,663,l),
(399,131,ls),
(367,31,o),
(388,-14,o),
(468,-14,cs)
);
},
{
ref = _f.init.2;
}
);
width = 670;
}
);
metricLeft = f;
metricRight = l;
unicode = 64258;
},
{
color = 3;
glyphname = t_t;
kernLeft = t;
kernRight = t;
layers = (
{
layerId = "9372F035-DA38-4B54-966C-CEBA9B53DD02";
shapes = (
{
closed = 1;
nodes = (
(403,416,l),
(403,440,l),
(311,440,l),
(311,416,l)
);
},
{
ref = t;
},
{
pos = (288,0);
ref = t;
}
);
width = 596;
},
{
layerId = m002;
shapes = (
{
closed = 1;
nodes = (
(436,406,l),
(436,446,l),
(385,446,l),
(385,406,l)
);
},
{
ref = t;
},
{
pos = (339,0);
ref = t;
}
);
width = 698;
}
);
metricLeft = t;
metricRight = t;
},
{
color = 6;
glyphname = w_w_w;
kernLeft = v;
kernRight = v;
layers = (
{
layerId = "9372F035-DA38-4B54-966C-CEBA9B53DD02";
shapes = (
{
closed = 1;
nodes = (
(1348,221,l),
(1415,312,o),
(1442,363,o),
(1442,398,cs),
(1442,431,o),
(1419,454,o),
(1386,454,cs),
(1330,454,o),
(1287,391,o),
(1287,308,cs),
(1287,271,o),
(1295,238,o),
(1318,175,cs),
(1351,87,o),
(1361,57,o),
(1378,-11,c),
(1397,-11,l),
(1562,192,ls),
(1617,260,o),
(1643,317,o),
(1643,370,cs),
(1643,420,o),
(1620,454,o),
(1587,454,cs),
(1563,454,o),
(1545,436,o),
(1545,413,cs),
(1545,381,o),
(1581,353,o),
(1581,302,cs),
(1581,261,o),
(1557,222,o),
(1530,188,cs),
(1408,35,l),
(1428,43,l),
(1409,108,ls),
(1369,244,o),
(1348,334,o),
(1353,385,cs),
(1356,416,o),
(1369,432,o),
(1389,432,cs),
(1410,432,o),
(1420,415,o),
(1420,396,cs),
(1420,351,o),
(1366,278,o),
(1320,221,c)
);
},
{
closed = 1;
nodes = (
(363,221,l),
(349,204,o),
(335,188,o),
(324,175,cs),
(204,36,l),
(223,43,l),
(201,114,ls),
(174,201,o),
(160,254,o),
(160,302,cs),
(160,378,o),
(197,406,o),
(252,431,c),
(247,448,l),
(196,440,o),
(145,440,o),
(94,440,c),
(86,416,l),
(210,416,l),
(198,428,l),
(150,399,o),
(77,358,o),
(77,274,cs),
(77,239,o),
(90,202,o),
(105,168,cs),
(126,121,o),
(156,68,o),
(174,-11,c),
(192,-11,l),
(341,161,ls),
(360,183,o),
(376,203,o),
(390,221,c)
);
},
{
closed = 1;
nodes = (
(601,221,l),
(594,213,o),
(589,206,o),
(583,199,cs),
(452,35,l),
(472,43,l),
(453,108,ls),
(413,244,o),
(392,334,o),
(397,385,cs),
(400,416,o),
(413,432,o),
(433,432,cs),
(454,432,o),
(464,415,o),
(464,396,cs),
(464,352,o),
(412,278,o),
(367,221,c),
(394,221,l),
(465,313,o),
(486,365,o),
(486,397,cs),
(486,430,o),
(463,454,o),
(432,454,cs),
(397,454,o),
(331,424,o),
(331,311,cs),
(331,259,o),
(345,219,o),
(361,177,cs),
(377,135,o),
(397,85,o),
(422,-11,c),
(441,-11,l),
(601,185,ls),
(611,197,o),
(624,215,o),
(629,221,c)
);
},
{
closed = 1;
nodes = (
(840,222,l),
(834,214,o),
(828,206,o),
(822,199,cs),
(691,35,l),
(711,43,l),
(692,108,ls),
(653,241,o),
(631,333,o),
(636,385,cs),
(639,416,o),
(652,432,o),
(672,432,cs),
(692,432,o),
(703,416,o),
(703,394,cs),
(703,345,o),
(648,275,o),
(605,221,c),
(633,221,l),
(712,322,o),
(725,364,o),
(725,394,cs),
(725,437,o),
(697,454,o),
(671,454,cs),
(636,454,o),
(570,424,o),
(570,311,cs),
(570,259,o),
(584,219,o),
(600,177,cs),
(616,135,o),
(636,85,o),
(661,-11,c),
(680,-11,l),
(840,185,ls),
(851,198,o),
(860,210,o),
(869,222,c)
);
},
{
closed = 1;
nodes = (
(1079,221,l),
(1073,213,o),
(1067,206,o),
(1061,199,cs),
(930,35,l),
(950,43,l),
(931,108,ls),
(892,241,o),
(870,333,o),
(875,385,cs),
(878,416,o),
(891,432,o),
(911,432,cs),
(931,432,o),
(942,416,o),
(942,394,cs),
(942,345,o),
(888,276,o),
(844,222,c),
(873,222,l),
(951,322,o),
(964,364,o),
(964,394,cs),
(964,437,o),
(936,454,o),
(910,454,cs),
(875,454,o),
(809,424,o),
(809,311,cs),
(809,259,o),
(823,219,o),
(839,177,cs),
(855,135,o),
(875,85,o),
(900,-11,c),
(919,-11,l),
(1079,185,ls),
(1089,198,o),
(1099,210,o),
(1108,221,c)
);
},
{
closed = 1;
nodes = (
(1316,221,l),
(1303,204,o),
(1290,188,o),
(1280,175,cs),
(1169,35,l),
(1189,43,l),
(1170,108,ls),
(1131,241,o),
(1109,333,o),
(1114,385,cs),
(1117,416,o),
(1130,432,o),
(1150,432,cs),
(1170,432,o),
(1181,416,o),
(1181,394,cs),
(1181,345,o),
(1126,275,o),
(1083,221,c),
(1112,221,l),
(1190,322,o),
(1203,364,o),
(1203,394,cs),
(1203,437,o),
(1175,454,o),
(1149,454,cs),
(1114,454,o),
(1048,424,o),
(1048,311,cs),
(1048,259,o),
(1062,219,o),
(1078,177,cs),
(1094,135,o),
(1114,85,o),
(1139,-11,c),
(1158,-11,l),
(1297,161,ls),
(1314,182,o),
(1330,202,o),
(1344,221,c)
);
}
);
width = 1650;
},
{
layerId = m002;
shapes = (
{
closed = 1;
nodes = (
(1390,233,l),
(1454,313,o),
(1481,362,o),
(1481,400,cs),
(1481,439,o),
(1452,460,o),
(1399,460,cs),
(1317,460,o),
(1263,408,o),
(1263,331,cs),
(1263,283,o),
(1284,212,o),
(1322,131,cs),
(1352,69,o),
(1366,31,o),
(1375,-11,c),
(1406,-11,l),
(1590,220,ls),
(1637,279,o),
(1661,332,o),
(1661,379,cs),
(1661,429,o),
(1635,460,o),
(1593,460,cs),
(1558,460,o),
(1535,438,o),
(1535,403,cs),
(1535,363,o),
(1564,340,o),
(1564,286,cs),
(1564,263,o),
(1559,236,o),
(1529,197,cs),
(1403,35,l),
(1470,85,l),
(1454,140,ls),
(1415,275,o),
(1381,333,o),
(1386,385,cs),
(1389,412,o),
(1401,425,o),
(1420,425,cs),
(1438,425,o),
(1447,414,o),
(1447,396,cs),
(1447,353,o),
(1394,285,o),
(1350,233,c)
);
},
{
closed = 1;
nodes = (
(370,227,l),
(361,217,o),
(353,207,o),
(346,199,cs),
(214,48,l),
(274,106,l),
(258,139,ls),
(227,203,o),
(201,257,o),
(201,315,cs),
(201,388,o),
(241,412,o),
(274,426,c),
(266,454,l),
(203,446,o),
(140,446,o),
(77,446,c),
(65,412,l),
(218,411,l),
(205,427,l),
(118,387,o),
(51,344,o),
(51,270,cs),
(51,209,o),
(97,143,o),
(122,105,cs),
(140,78,o),
(163,41,o),
(176,-11,c),
(207,-11,l),
(375,185,ls),
(388,200,o),
(399,214,o),
(410,227,c)
);
},
{
closed = 1;
nodes = (
(614,229,l),
(604,218,o),
(595,208,o),
(587,199,cs),
(439,35,l),
(506,85,l),
(490,140,ls),
(451,275,o),
(417,333,o),
(422,385,cs),
(425,412,o),
(437,425,o),
(456,425,cs),
(474,425,o),
(483,414,o),
(483,396,cs),
(483,351,o),
(425,280,o),
(380,227,c),
(420,227,l),
(497,323,o),
(517,367,o),
(517,399,cs),
(517,437,o),
(490,460,o),
(435,460,cs),
(353,460,o),
(299,408,o),
(299,330,cs),
(299,267,o),
(334,180,o),
(358,131,cs),
(376,94,o),
(398,49,o),
(411,-11,c),
(442,-11,l),
(616,185,ls),
(630,201,o),
(642,215,o),
(654,229,c)
);
},
{
closed = 1;
nodes = (
(856,231,l),
(846,219,o),
(836,208,o),
(828,199,cs),
(680,35,l),
(747,85,l),
(731,140,ls),
(692,275,o),
(658,333,o),
(663,385,cs),
(666,412,o),
(678,425,o),
(697,425,cs),
(715,425,o),
(724,414,o),
(724,396,cs),
(724,352,o),
(668,281,o),
(624,229,c),
(664,229,l),
(740,323,o),
(758,367,o),
(758,398,cs),
(758,437,o),
(731,460,o),
(676,460,cs),
(594,460,o),
(540,408,o),
(540,330,cs),
(540,267,o),
(575,180,o),
(599,131,cs),
(617,94,o),
(639,49,o),
(652,-11,c),
(683,-11,l),
(857,185,ls),
(871,201,o),
(884,216,o),
(896,231,c)
);
},
{
closed = 1;
nodes = (
(1098,232,l),
(1087,220,o),
(1078,209,o),
(1069,199,cs),
(921,35,l),
(988,85,l),
(972,140,ls),
(933,275,o),
(899,333,o),
(904,385,cs),
(907,412,o),
(919,425,o),
(938,425,cs),
(956,425,o),
(965,414,o),
(965,396,cs),
(965,352,o),
(910,282,o),
(866,231,c),
(906,231,l),
(981,324,o),
(999,368,o),
(999,399,cs),
(999,437,o),
(972,460,o),
(917,460,cs),
(835,460,o),
(781,408,o),
(781,330,cs),
(781,267,o),
(816,180,o),
(840,131,cs),
(858,94,o),
(880,49,o),
(893,-11,c),
(924,-11,l),
(1098,185,ls),
(1113,202,o),
(1126,217,o),
(1138,232,c)
);
},
{
closed = 1;
nodes = (
(1340,233,l),
(1329,221,o),
(1319,209,o),
(1310,199,cs),
(1162,35,l),
(1229,85,l),
(1213,140,ls),
(1174,275,o),
(1140,333,o),
(1145,385,cs),
(1148,412,o),
(1160,425,o),
(1179,425,cs),
(1197,425,o),
(1206,414,o),
(1206,396,cs),
(1206,353,o),
(1152,284,o),
(1108,232,c),
(1148,232,l),
(1222,324,o),
(1240,368,o),
(1240,399,cs),
(1240,437,o),
(1213,460,o),
(1158,460,cs),
(1076,460,o),
(1022,408,o),
(1022,330,cs),
(1022,267,o),
(1057,180,o),
(1081,131,cs),
(1099,94,o),
(1121,49,o),
(1134,-11,c),
(1165,-11,l),
(1339,185,ls),
(1354,202,o),
(1368,218,o),
(1380,233,c)
);
}
);
width = 1642;
}
);
metricLeft = v;
metricRight = v;
},
{
color = 6;
glyphname = a.sups;
kernLeft = sups;
kernRight = sups;
layers = (
{
layerId = "9372F035-DA38-4B54-966C-CEBA9B53DD02";
shapes = (
{
closed = 1;
nodes = (
(297,345,o),
(350,378,o),
(391,445,c),
(388,456,l),
(361,383,o),
(377,345,o),
(426,345,cs),
(468,345,o),
(505,373,o),
(532,420,c),
(516,430,l),
(497,397,o),
(472,376,o),
(454,376,cs),
(437,376,o),
(436,396,o),
(447,428,cs),
(545,712,l),
(479,712,l),
(441,608,l),
(451,609,l),
(456,683,o),
(425,723,o),
(362,723,cs),
(247,723,o),
(125,590,o),
(125,464,cs),
(125,390,o),
(164,345,o),
(238,345,cs)
);
},
{
closed = 1;
nodes = (
(218,374,o),
(197,399,o),
(197,451,cs),
(197,561,o),
(292,696,o),
(376,696,cs),
(410,696,o),
(431,670,o),
(431,624,cs),
(431,600,o),
(427,572,o),
(418,544,cs),
(384,438,o),
(315,374,o),
(256,374,cs)
);
}
);
userData = {
RMXScaler = {
height = 80.7;
verticalShift = 356;
weight = -4;
width = 85;
};
};
width = 462;
},
{
layerId = m002;
shapes = (
{
closed = 1;
nodes = (
(290,345,o),
(360,393,o),
(397,465,c),
(384,481,l),
(353,388,o),
(376,345,o),
(441,345,cs),
(496,345,o),
(542,376,o),
(567,433,c),
(543,448,l),
(526,415,o),
(511,397,o),
(498,397,cs),
(485,397,o),
(482,411,o),
(492,442,cs),
(577,709,l),
(451,709,l),
(410,583,l),
(425,581,l),
(453,658,o),
(416,720,o),
(341,720,cs),
(228,720,o),
(114,589,o),
(114,461,cs),
(114,385,o),
(155,345,o),
(220,345,cs)
);
},
{
closed = 1;
nodes = (
(263,405,o),
(248,420,o),
(248,453,cs),
(248,539,o),
(320,658,o),
(372,658,cs),
(394,658,o),
(408,641,o),
(408,610,cs),
(408,587,o),
(402,558,o),
(392,528,cs),
(366,451,o),
(325,405,o),
(286,405,cs)
);
}
);
userData = {
RMXScaler = {
height = 78.8;
verticalShift = 356;
weight = -18;
width = 83;
};
};
width = 488;
}
);
userData = {
RMXScaler = {
source = a;
};
};
},
{
color = 6;
glyphname = b.sups;
kernLeft = sups;
kernRight = sups;
layers = (
{
layerId = "9372F035-DA38-4B54-966C-CEBA9B53DD02";
shapes = (
{
closed = 1;
nodes = (
(391,345,o),
(505,468,o),
(505,597,cs),
(505,678,o),
(461,723,o),
(394,723,cs),
(341,723,o),
(287,689,o),
(254,638,c),
(261,633,l),
(356,931,l),
(210,929,l),
(204,908,l),
(221,908,ls),
(264,908,o),
(275,893,o),
(261,850,cs),
(163,546,ls),
(121,416,o),
(153,345,o),
(258,345,cs)
);
},
{
closed = 1;
nodes = (
(210,368,o),
(190,431,o),
(227,534,cs),
(241,573,ls),
(265,640,o),
(323,694,o),
(374,694,cs),
(410,694,o),
(432,666,o),
(432,609,cs),
(432,496,o),
(344,368,o),
(265,368,cs)
);
}
);
userData = {
RMXScaler = {
height = 80.7;
verticalShift = 356;
weight = -4;
width = 85;
};
};
width = 432;
},
{
layerId = m002;
shapes = (
{
closed = 1;
nodes = (
(430,345,o),
(555,454,o),
(555,586,cs),
(555,666,o),
(511,720,o),
(445,720,cs),
(386,720,o),
(323,680,o),
(288,624,c),
(310,626,l),
(405,918,l),
(208,915,l),
(200,887,l),
(217,887,ls),
(256,887,o),
(264,876,o),
(249,830,cs),
(157,550,ls),
(111,410,o),
(159,345,o),
(276,345,cs)
);
},
{
closed = 1;
nodes = (
(254,391,o),
(245,437,o),
(275,527,cs),
(282,548,ls),
(305,617,o),
(345,660,o),
(385,660,cs),
(407,660,o),
(421,646,o),
(421,607,cs),
(421,515,o),
(349,391,o),
(289,391,cs)
);
}
);
userData = {
RMXScaler = {
height = 78.8;
verticalShift = 356;
weight = -18;
width = 83;
};
};
width = 476;
}
);
userData = {
RMXScaler = {
source = b;
};
};
},
{
color = 6;
glyphname = c.sups;
kernLeft = sups;
kernRight = sups;
layers = (
{
layerId = "9372F035-DA38-4B54-966C-CEBA9B53DD02";
shapes = (
{
closed = 1;
nodes = (
(345,345,o),
(396,379,o),
(424,432,c),
(407,443,l),
(378,398,o),
(335,372,o),
(292,372,cs),
(240,372,o),
(204,412,o),
(204,478,cs),
(204,582,o),
(294,703,o),
(375,703,cs),
(397,703,o),
(405,694,o),
(405,668,cs),
(405,652,ls),
(405,628,o),
(419,613,o),
(442,613,cs),
(466,613,o),
(483,632,o),
(483,658,cs),
(483,697,o),
(444,723,o),
(382,723,cs),
(253,723,o),
(131,608,o),
(131,486,cs),
(131,400,o),
(191,345,o),
(277,345,cs)
);
}
);
userData = {
RMXScaler = {
height = 80.7;
verticalShift = 356;
weight = -4;
width = 85;
};
};
width = 377;
},
{
layerId = m002;
shapes = (
{
closed = 1;
nodes = (
(362,345,o),
(425,381,o),
(459,444,c),
(435,459,l),
(403,414,o),
(362,389,o),
(321,389,cs),
(277,389,o),
(250,415,o),
(250,469,cs),
(250,562,o),
(325,688,o),
(381,688,cs),
(394,688,o),
(405,682,o),
(404,655,cs),
(403,627,ls),
(402,599,o),
(418,575,o),
(451,575,cs),
(487,575,o),
(511,599,o),
(511,633,cs),
(511,684,o),
(457,720,o),
(382,720,cs),
(245,720,o),
(117,610,o),
(117,492,cs),
(117,404,o),
(186,345,o),
(285,345,cs)
);
}
);
userData = {
RMXScaler = {
height = 78.8;
verticalShift = 356;
weight = -18;
width = 83;
};
};
width = 400;
}
);
metricLeft = o.sups;
userData = {
RMXScaler = {
source = c;
};
};
},
{
color = 6;
glyphname = d.sups;
kernLeft = sups;
kernRight = sups;
layers = (
{
layerId = "9372F035-DA38-4B54-966C-CEBA9B53DD02";
shapes = (
{
closed = 1;
nodes = (
(301,345,o),
(361,385,o),
(397,455,c),
(390,462,l),
(366,390,o),
(374,345,o),
(428,345,cs),
(467,345,o),
(505,368,o),
(535,420,c),
(518,430,l),
(499,397,o),
(474,376,o),
(457,376,cs),
(443,376,o),
(437,391,o),
(449,428,cs),
(613,931,l),
(467,929,l),
(461,908,l),
(483,908,ls),
(524,908,o),
(530,893,o),
(516,850,cs),
(440,617,l),
(452,620,l),
(455,684,o),
(426,723,o),
(363,723,cs),
(245,723,o),
(125,587,o),
(125,462,cs),
(125,389,o),
(166,345,o),
(235,345,cs)
);
},
{
closed = 1;
nodes = (
(214,374,o),
(197,404,o),
(197,450,cs),
(197,559,o),
(292,696,o),
(375,696,cs),
(411,696,o),
(433,672,o),
(433,625,cs),
(433,597,o),
(425,560,o),
(412,526,cs),
(380,442,o),
(317,374,o),
(256,374,cs)
);
}
);
userData = {
RMXScaler = {
height = 80.7;
verticalShift = 356;
weight = -4;
width = 85;
};
};
width = 474;
},
{
layerId = m002;
shapes = (
{
closed = 1;
nodes = (
(278,345,o),
(349,386,o),
(389,462,c),
(374,479,l),
(355,422,o),
(344,345,o),
(431,345,cs),
(489,345,o),
(534,378,o),
(558,433,c),
(533,449,l),
(514,411,o),
(499,397,o),
(488,397,cs),
(474,397,o),
(472,411,o),
(482,442,cs),
(637,918,l),
(441,915,l),
(433,887,l),
(449,887,ls),
(494,887,o),
(494,867,o),
(482,830,cs),
(400,580,l),
(419,579,l),
(448,663,o),
(409,720,o),
(333,720,cs),
(208,720,o),
(109,569,o),
(109,460,cs),
(109,396,o),
(142,345,o),
(213,345,cs)
);
},
{
closed = 1;
nodes = (
(258,405,o),
(243,420,o),
(243,452,cs),
(243,518,o),
(303,658,o),
(366,658,cs),
(389,658,o),
(403,640,o),
(403,607,cs),
(403,586,o),
(397,561,o),
(388,532,cs),
(369,471,o),
(330,405,o),
(281,405,cs)
);
}
);
userData = {
RMXScaler = {
height = 78.8;
verticalShift = 356;
weight = -18;
width = 83;
};
};
width = 490;
}
);
metricLeft = o.sups;
metricRight = l.sups;
userData = {
RMXScaler = {
source = d;
};
};
},
{
color = 6;
glyphname = e.sups;
kernLeft = sups;
kernRight = sups;
layers = (
{
layerId = "9372F035-DA38-4B54-966C-CEBA9B53DD02";
shapes = (
{
closed = 1;
nodes = (
(321,345,o),
(367,370,o),
(403,422,c),
(388,435,l),
(355,392,o),
(316,372,o),
(281,372,cs),
(232,372,o),
(203,408,o),
(203,470,cs),
(203,577,o),
(289,703,o),
(361,703,cs),
(384,703,o),
(398,689,o),
(398,662,cs),
(398,613,o),
(349,572,o),
(268,560,cs),
(207,551,l),
(204,533,l),
(288,540,ls),
(396,549,o),
(459,592,o),
(459,649,cs),
(459,695,o),
(421,722,o),
(363,722,cs),
(245,722,o),
(132,607,o),
(132,485,cs),
(132,399,o),
(186,345,o),
(267,345,cs)
);
}
);
userData = {
RMXScaler = {
height = 80.7;
verticalShift = 356;
weight = -4;
width = 85;
};
};
width = 363;
},
{
layerId = m002;
shapes = (
{
closed = 1;
nodes = (
(362,345,o),
(424,381,o),
(458,444,c),
(434,463,l),
(397,412,o),
(356,388,o),
(314,388,cs),
(269,388,o),
(245,413,o),
(245,467,cs),
(245,558,o),
(315,688,o),
(367,688,cs),
(382,688,o),
(392,675,o),
(392,650,cs),
(392,600,o),
(349,566,o),
(279,556,cs),
(216,547,l),
(213,520,l),
(306,527,ls),
(426,536,o),
(509,582,o),
(509,642,cs),
(509,690,o),
(456,720,o),
(384,720,cs),
(243,720,o),
(117,611,o),
(117,488,cs),
(117,399,o),
(182,345,o),
(282,345,cs)
);
}
);
userData = {
RMXScaler = {
height = 78.8;
verticalShift = 356;
weight = -18;
width = 83;
};
};
width = 403;
}
);
metricLeft = o.sups;
userData = {
RMXScaler = {
source = e;
};
};
},
{
color = 6;
glyphname = f.sups;
kernLeft = sups;
kernRight = sups;
layers = (
{
layerId = "9372F035-DA38-4B54-966C-CEBA9B53DD02";
shapes = (
{
closed = 1;
nodes = (
(99,121,o),
(144,157,o),
(176,255,cs),
(366,835,ls),
(385,893,o),
(411,920,o),
(444,920,cs),
(464,920,o),
(472,909,o),
(472,878,cs),
(472,857,o),
(478,834,o),
(509,834,cs),
(536,834,o),
(553,852,o),
(553,879,cs),
(553,918,o),
(516,940,o),
(457,940,cs),
(368,940,o),
(315,892,o),
(285,801,cs),
(106,258,ls),
(78,173,o),
(54,141,o),
(29,141,cs),
(15,141,o),
(9,151,o),
(2,179,cs),
(-7,215,o),
(-19,226,o),
(-41,226,cs),
(-67,226,o),
(-86,208,o),
(-86,182,cs),
(-86,144,o),
(-46,121,o),
(17,121,cs)
);
},
{
closed = 1;
nodes = (
(267,690,l),
(274,712,l),
(183,712,l),
(176,690,l)
);
},
{
closed = 1;
nodes = (
(409,690,l),
(417,712,l),
(308,712,l),
(300,690,l)
);
}
);
userData = {
RMXScaler = {
height = 80.7;
verticalShift = 356;
weight = -4;
width = 85;
};
};
width = 285;
},
{
layerId = m002;
shapes = (
{
closed = 1;
nodes = (
(117,123,o),
(184,169,o),
(216,266,cs),
(378,759,ls),
(416,875,o),
(427,895,o),
(450,895,cs),
(464,895,o),
(467,886,o),
(467,850,cs),
(467,805,o),
(484,789,o),
(522,789,cs),
(563,789,o),
(595,810,o),
(595,853,cs),
(595,900,o),
(552,927,o),
(466,927,cs),
(357,927,o),
(291,887,o),
(258,786,cs),
(92,280,ls),
(58,176,o),
(46,155,o),
(24,155,cs),
(6,155,o),
(5,162,o),
(5,203,cs),
(5,245,o),
(-16,262,o),
(-52,262,cs),
(-94,262,o),
(-122,237,o),
(-122,200,cs),
(-122,152,o),
(-74,123,o),
(10,123,cs)
);
},
{
closed = 1;
nodes = (
(250,674,l),
(260,709,l),
(177,709,l),
(166,674,l)
);
},
{
closed = 1;
nodes = (
(440,674,l),
(451,709,l),
(320,709,l),
(309,674,l)
);
}
);
userData = {
RMXScaler = {
height = 78.8;
verticalShift = 356;
weight = -18;
width = 83;
};
};
width = 307;
}
);
metricRight = f.sups;
userData = {
RMXScaler = {
source = f;
};
};
},
{
color = 6;
glyphname = g.sups;
kernLeft = sups;
kernRight = sups;
layers = (
{
layerId = "9372F035-DA38-4B54-966C-CEBA9B53DD02";
shapes = (
{
closed = 1;
nodes = (
(368,122,o),
(453,177,o),
(453,265,cs),
(453,328,o),
(408,368,o),
(322,378,cs),
(219,390,ls),
(185,394,o),
(163,406,o),
(163,425,cs),
(163,449,o),
(193,472,o),
(246,489,c),
(230,502,l),
(156,478,o),
(119,443,o),
(119,400,cs),
(119,356,o),
(155,329,o),
(222,321,cs),
(331,308,ls),
(381,302,o),
(407,277,o),
(407,239,cs),
(407,186,o),
(345,143,o),
(253,143,cs),
(182,143,o),
(137,168,o),
(137,198,cs),
(137,206,o),
(140,215,o),
(145,229,cs),
(150,243,o),
(151,248,o),
(151,253,cs),
(151,270,o),
(139,289,o),
(114,289,cs),
(84,289,o),
(64,264,o),
(64,237,cs),
(64,189,o),
(123,122,o),
(251,122,cs)
);
},
{
closed = 1;
nodes = (
(410,465,o),
(487,528,o),
(487,608,cs),
(487,677,o),
(431,723,o),
(349,723,cs),
(252,723,o),
(176,660,o),
(176,580,cs),
(176,511,o),
(232,465,o),
(314,465,cs)
);
},
{
closed = 1;
nodes = (
(269,487,o),
(243,515,o),
(243,566,cs),
(243,638,o),
(291,701,o),
(352,701,cs),
(392,701,o),
(419,673,o),
(419,622,cs),
(419,551,o),
(369,487,o),
(311,487,cs)
);
},
{
closed = 1;
nodes = (
(580,662,o),
(594,680,o),
(594,701,cs),
(594,727,o),
(569,751,o),
(530,751,cs),
(488,751,o),
(446,725,o),
(427,692,c),
(444,683,l),
(466,707,o),
(483,720,o),
(499,720,cs),
(516,720,o),
(518,707,o),
(518,695,cs),
(518,674,o),
(535,662,o),
(555,662,cs)
);
}
);
userData = {
RMXScaler = {
height = 80.7;
verticalShift = 356;
weight = -4;
width = 85;
};
};
width = 458;
},
{
layerId = m002;
shapes = (
{
closed = 1;
nodes = (
(364,127,o),
(481,166,o),
(481,276,cs),
(481,336,o),
(442,386,o),
(332,400,cs),
(230,413,ls),
(199,417,o),
(185,423,o),
(185,436,cs),
(185,453,o),
(206,475,o),
(245,486,c),
(210,497,l),
(131,472,o),
(97,433,o),
(97,385,cs),
(97,341,o),
(127,306,o),
(225,293,cs),
(323,280,ls),
(368,274,o),
(389,256,o),
(389,228,cs),
(389,204,o),
(352,161,o),
(258,161,cs),
(189,161,o),
(175,186,o),
(175,202,cs),
(175,212,o),
(177,221,o),
(180,231,cs),
(182,238,o),
(183,242,o),
(183,247,cs),
(183,268,o),
(164,293,o),
(119,293,cs),
(67,293,o),
(41,259,o),
(41,231,cs),
(41,187,o),
(105,127,o),
(244,127,cs)
);
},
{
closed = 1;
nodes = (
(429,467,o),
(513,526,o),
(513,605,cs),
(513,676,o),
(447,721,o),
(351,721,cs),
(236,721,o),
(152,663,o),
(152,581,cs),
(152,511,o),
(217,467,o),
(315,467,cs)
);
},
{
closed = 1;
nodes = (
(293,498,o),
(274,523,o),
(274,562,cs),
(274,628,o),
(311,688,o),
(349,688,cs),
(374,688,o),
(391,664,o),
(391,624,cs),
(391,561,o),
(356,498,o),
(320,498,cs)
);
},
{
closed = 1;
nodes = (
(590,661,o),
(612,688,o),
(612,722,cs),
(612,755,o),
(588,785,o),
(539,785,cs),
(485,785,o),
(446,746,o),
(425,696,c),
(452,686,l),
(461,705,o),
(480,722,o),
(494,722,cs),
(505,722,o),
(509,713,o),
(509,699,cs),
(510,669,o),
(534,661,o),
(555,661,cs)
);
}
);
userData = {
RMXScaler = {
height = 78.8;
verticalShift = 356;
weight = -18;
width = 83;
};
};
width = 469;
}
);
userData = {
RMXScaler = {
source = g;
};
};
},
{
color = 6;
glyphname = h.sups;
kernLeft = sups;
kernRight = sups;
layers = (
{
layerId = "9372F035-DA38-4B54-966C-CEBA9B53DD02";
shapes = (
{
closed = 1;
nodes = (
(456,345,o),
(494,369,o),
(523,418,c),
(506,429,l),
(488,398,o),
(463,376,o),
(444,376,cs),
(429,376,o),
(425,392,o),
(437,425,cs),
(506,617,ls),
(530,684,o),
(508,723,o),
(442,723,cs),
(374,723,o),
(308,680,o),
(259,601,c),
(265,593,l),
(376,931,l),
(229,929,l),
(223,908,l),
(240,908,ls),
(283,908,o),
(293,893,o),
(279,850,cs),
(118,355,l),
(188,356,l),
(254,558,ls),
(276,625,o),
(359,696,o),
(413,696,cs),
(443,696,o),
(455,674,o),
(442,637,cs),
(375,448,ls),
(352,383,o),
(364,345,o),
(415,345,cs)
);
}
);
userData = {
RMXScaler = {
height = 80.7;
verticalShift = 356;
weight = -4;
width = 85;
};
};
width = 458;
},
{
layerId = m002;
shapes = (
{
closed = 1;
nodes = (
(513,345,o),
(562,373,o),
(589,434,c),
(564,449,l),
(548,416,o),
(533,397,o),
(519,397,cs),
(506,397,o),
(502,410,o),
(513,443,cs),
(561,585,ls),
(592,677,o),
(565,720,o),
(490,720,cs),
(384,720,o),
(285,635,o),
(250,508,c),
(284,516,l),
(418,918,l),
(219,915,l),
(209,887,l),
(227,887,ls),
(267,887,o),
(272,873,o),
(258,830,cs),
(105,356,l),
(234,356,l),
(291,528,ls),
(318,609,o),
(366,659,o),
(411,659,cs),
(436,659,o),
(450,640,o),
(437,602,cs),
(390,464,ls),
(361,379,o),
(385,345,o),
(452,345,cs)
);
}
);
userData = {
RMXScaler = {
height = 78.8;
verticalShift = 356;
weight = -18;
width = 83;
};
};
width = 511;
}
);
metricRight = n.sups;
userData = {
RMXScaler = {
source = h;
};
};
},
{
color = 6;
glyphname = i.sups;
kernLeft = sups;
kernRight = sups;
layers = (
{
layerId = "9372F035-DA38-4B54-966C-CEBA9B53DD02";
shapes = (
{
closed = 1;
nodes = (
(234,345,o),
(271,373,o),
(298,420,c),
(282,430,l),
(264,398,o),
(239,376,o),
(220,376,cs),
(205,376,o),
(201,391,o),
(214,428,cs),
(314,715,l),
(168,712,l),
(161,691,l),
(185,691,ls),
(227,691,o),
(234,677,o),
(218,633,cs),
(151,450,ls),
(125,379,o),
(142,345,o),
(191,345,cs)
);
},
{
closed = 1;
nodes = (
(343,799,o),
(363,821,o),
(363,847,cs),
(363,872,o),
(342,894,o),
(315,894,cs),
(285,894,o),
(265,872,o),
(265,847,cs),
(265,821,o),
(286,799,o),
(315,799,cs)
);
}
);
userData = {
RMXScaler = {
height = 80.7;
verticalShift = 356;
weight = -4;
width = 85;
};
};
width = 238;
},
{
layerId = m002;
shapes = (
{
closed = 1;
nodes = (
(255,345,o),
(305,372,o),
(332,433,c),
(308,449,l),
(292,416,o),
(277,397,o),
(263,397,cs),
(250,397,o),
(247,411,o),
(257,442,cs),
(345,711,l),
(146,709,l),
(137,680,l),
(153,680,ls),
(193,680,o),
(200,666,o),
(186,623,cs),
(134,463,ls),
(108,383,o),
(127,345,o),
(197,345,cs)
);
},
{
closed = 1;
nodes = (
(354,774,o),
(377,803,o),
(377,841,cs),
(377,878,o),
(354,907,o),
(302,907,cs),
(255,907,o),
(228,879,o),
(228,842,cs),
(228,804,o),
(255,774,o),
(303,774,cs)
);
}
);
userData = {
RMXScaler = {
height = 78.8;
verticalShift = 356;
weight = -18;
width = 83;
};
};
width = 248;
}
);
userData = {
RMXScaler = {
source = i;
};
};
},
{
color = 6;
glyphname = j.sups;
kernLeft = sups;
kernRight = sups;
layers = (
{
layerId = "9372F035-DA38-4B54-966C-CEBA9B53DD02";
shapes = (
{
closed = 1;
nodes = (
(92,121,o),
(140,159,o),
(170,252,cs),
(320,715,l),
(174,712,l),
(167,691,l),
(192,691,ls),
(231,691,o),
(239,679,o),
(224,633,cs),
(102,258,ls),
(75,175,o),
(54,141,o),
(30,141,cs),
(17,141,o),
(10,150,o),
(3,170,cs),
(-3,187,ls),
(-14,218,o),
(-24,226,o),
(-43,226,cs),
(-69,226,o),
(-88,208,o),
(-88,182,cs),
(-88,145,o),
(-48,121,o),
(13,121,cs)
);
},
{
closed = 1;
nodes = (
(347,799,o),
(368,821,o),
(368,847,cs),
(368,872,o),
(347,894,o),
(319,894,cs),
(289,894,o),
(269,872,o),
(269,847,cs),
(269,821,o),
(290,799,o),
(320,799,cs)
);
}
);
userData = {
RMXScaler = {
height = 80.7;
verticalShift = 356;
weight = -4;
width = 85;
};
};
width = 232;
},
{
layerId = m002;
shapes = (
{
closed = 1;
nodes = (
(110,123,o),
(175,171,o),
(207,267,cs),
(355,711,l),
(155,709,l),
(145,680,l),
(162,680,ls),
(202,680,o),
(208,666,o),
(194,623,cs),
(83,280,ls),
(50,178,o),
(38,155,o),
(15,155,cs),
(4,155,o),
(-1,160,o),
(-4,191,cs),
(-5,202,ls),
(-9,246,o),
(-28,262,o),
(-61,262,cs),
(-104,262,o),
(-132,237,o),
(-132,200,cs),
(-132,151,o),
(-82,123,o),
(1,123,cs)
);
},
{
closed = 1;
nodes = (
(371,774,o),
(394,803,o),
(394,841,cs),
(394,878,o),
(371,907,o),
(319,907,cs),
(271,907,o),
(245,878,o),
(245,842,cs),
(245,804,o),
(272,774,o),
(319,774,cs)
);
}
);
userData = {
RMXScaler = {
height = 78.8;
verticalShift = 356;
weight = -18;
width = 83;
};
};
width = 247;
}
);
userData = {
RMXScaler = {
source = j;
};
};
},
{
color = 6;
glyphname = k.sups;
kernLeft = sups;
kernRight = sups;
layers = (
{
layerId = "9372F035-DA38-4B54-966C-CEBA9B53DD02";
shapes = (
{
closed = 1;
nodes = (
(188,356,l),
(375,931,l),
(230,929,l),
(223,908,l),
(240,908,ls),
(283,908,o),
(294,893,o),
(280,850,cs),
(118,356,l)
);
},
{
closed = 1;
nodes = (
(449,345,o),
(483,366,o),
(511,418,c),
(495,428,l),
(471,391,o),
(453,376,o),
(435,376,cs),
(415,376,o),
(411,399,o),
(409,451,cs),
(408,475,ls),
(404,571,o),
(356,586,o),
(256,586,c),
(254,570,l),
(320,570,o),
(342,548,o),
(342,477,cs),
(342,452,ls),
(342,372,o),
(360,345,o),
(408,345,cs)
);
},
{
closed = 1;
nodes = (
(301,573,o),
(326,584,o),
(371,629,cs),
(404,662,ls),
(422,680,o),
(432,687,o),
(441,687,cs),
(452,687,o),
(454,676,o),
(454,656,cs),
(454,631,o),
(471,623,o),
(486,623,cs),
(511,623,o),
(528,642,o),
(528,671,cs),
(528,702,o),
(506,723,o),
(473,723,cs),
(445,723,o),
(425,710,o),
(390,674,cs),
(359,642,ls),
(317,599,o),
(291,586,o),
(239,586,c),
(239,573,l)
);
}
);
userData = {
RMXScaler = {
height = 80.7;
verticalShift = 356;
weight = -4;
width = 85;
};
};
width = 436;
},
{
layerId = m002;
shapes = (
{
closed = 1;
nodes = (
(234,356,l),
(418,918,l),
(219,915,l),
(209,887,l),
(227,887,ls),
(267,887,o),
(272,873,o),
(258,830,cs),
(104,356,l)
);
},
{
closed = 1;
nodes = (
(499,345,o),
(544,375,o),
(569,433,c),
(544,444,l),
(530,413,o),
(513,397,o),
(499,397,cs),
(484,397,o),
(480,410,o),
(478,454,cs),
(477,476,ls),
(473,564,o),
(426,584,o),
(290,584,c),
(288,553,l),
(340,553,o),
(351,535,o),
(355,471,cs),
(356,455,ls),
(361,375,o),
(380,345,o),
(441,345,cs)
);
},
{
closed = 1;
nodes = (
(341,563,o),
(380,575,o),
(412,614,cs),
(435,642,ls),
(449,659,o),
(459,665,o),
(467,665,cs),
(480,665,o),
(482,649,o),
(482,637,cs),
(483,601,o),
(508,592,o),
(529,592,cs),
(568,592,o),
(596,617,o),
(596,657,cs),
(596,695,o),
(569,720,o),
(521,720,cs),
(483,720,o),
(451,705,o),
(416,666,cs),
(389,636,ls),
(354,597,o),
(323,584,o),
(274,584,c),
(274,563,l)
);
}
);
userData = {
RMXScaler = {
height = 78.8;
verticalShift = 356;
weight = -18;
width = 83;
};
};
width = 489;
}
);
userData = {
RMXScaler = {
source = k;
};
};
},
{
color = 6;
glyphname = l.sups;
kernLeft = sups;
kernRight = sups;
layers = (
{
layerId = "9372F035-DA38-4B54-966C-CEBA9B53DD02";
shapes = (
{
closed = 1;
nodes = (
(227,345,o),
(264,372,o),
(291,420,c),
(275,430,l),
(257,398,o),
(232,376,o),
(213,376,cs),
(197,376,o),
(194,391,o),
(206,428,cs),
(371,931,l),
(225,929,l),
(218,908,l),
(235,908,ls),
(278,908,o),
(289,893,o),
(275,850,cs),
(144,450,ls),
(121,380,o),
(132,345,o),
(182,345,cs)
);
}
);
userData = {
RMXScaler = {
height = 80.7;
verticalShift = 356;
weight = -4;
width = 85;
};
};
width = 230;
},
{
layerId = m002;
shapes = (
{
closed = 1;
nodes = (
(261,345,o),
(308,375,o),
(334,433,c),
(310,449,l),
(294,416,o),
(279,397,o),
(265,397,cs),
(252,397,o),
(249,411,o),
(259,442,cs),
(415,918,l),
(216,915,l),
(206,887,l),
(224,887,ls),
(265,887,o),
(269,873,o),
(255,830,cs),
(136,463,ls),
(110,383,o),
(127,345,o),
(198,345,cs)
);
}
);
userData = {
RMXScaler = {
height = 78.8;
verticalShift = 356;
weight = -18;
width = 83;
};
};
width = 266;
}
);
userData = {
RMXScaler = {
source = l;
};
};
},
{
color = 6;
glyphname = m.sups;
kernLeft = sups;
kernRight = sups;
layers = (
{
layerId = "9372F035-DA38-4B54-966C-CEBA9B53DD02";
shapes = (
{
closed = 1;
nodes = (
(672,345,o),
(705,367,o),
(736,418,c),
(719,429,l),
(703,399,o),
(679,376,o),
(662,376,cs),
(647,376,o),
(640,399,o),
(654,439,cs),
(716,617,ls),
(739,683,o),
(714,723,o),
(650,723,cs),
(590,723,o),
(534,689,o),
(483,620,c),
(495,617,l),
(517,681,o),
(494,723,o),
(429,723,cs),
(369,723,o),
(310,686,o),
(267,623,c),
(271,610,l),
(300,715,l),
(166,712,l),
(160,691,l),
(178,691,ls),
(219,691,o),
(226,677,o),
(211,633,cs),
(116,356,l),
(186,356,l),
(255,558,ls),
(279,628,o),
(354,696,o),
(404,696,cs),
(435,696,o),
(444,672,o),
(432,637,cs),
(335,356,l),
(406,356,l),
(480,569,ls),
(503,635,o),
(574,696,o),
(624,696,cs),
(655,696,o),
(664,671,o),
(652,637,cs),
(591,464,ls),
(562,382,o),
(581,345,o),
(633,345,cs)
);
}
);
userData = {
RMXScaler = {
height = 80.7;
verticalShift = 356;
weight = -4;
width = 85;
};
};
width = 671;
},
{
layerId = m002;
shapes = (
{
closed = 1;
nodes = (
(739,345,o),
(788,375,o),
(814,434,c),
(790,449,l),
(772,413,o),
(757,397,o),
(744,397,cs),
(730,397,o),
(727,409,o),
(737,438,cs),
(787,585,ls),
(818,676,o),
(792,720,o),
(720,720,cs),
(651,720,o),
(579,682,o),
(537,617,c),
(552,600,l),
(578,677,o),
(548,720,o),
(481,720,cs),
(414,720,o),
(340,682,o),
(298,621,c),
(310,600,l),
(341,711,l),
(150,709,l),
(140,680,l),
(158,680,ls),
(199,680,o),
(204,665,o),
(190,623,cs),
(101,356,l),
(230,356,l),
(287,528,ls),
(312,603,o),
(360,659,o),
(400,659,cs),
(427,659,o),
(435,639,o),
(423,602,cs),
(344,356,l),
(473,356,l),
(537,554,ls),
(557,616,o),
(602,659,o),
(641,659,cs),
(666,659,o),
(676,640,o),
(663,602,cs),
(614,458,ls),
(587,379,o),
(610,345,o),
(677,345,cs)
);
}
);
userData = {
RMXScaler = {
height = 78.8;
verticalShift = 356;
weight = -18;
width = 83;
};
};
width = 736;
}
);
metricLeft = n.sups;
metricRight = n.sups;
userData = {
RMXScaler = {
source = m;
};
};
},
{
color = 6;
glyphname = n.sups;
kernLeft = sups;
kernRight = sups;
layers = (
{
layerId = "9372F035-DA38-4B54-966C-CEBA9B53DD02";
shapes = (
{
closed = 1;
nodes = (
(460,345,o),
(497,369,o),
(526,418,c),
(509,428,l),
(491,396,o),
(468,376,o),
(450,376,cs),
(434,376,o),
(431,395,o),
(441,425,cs),
(505,617,ls),
(528,686,o),
(506,723,o),
(442,723,cs),
(376,723,o),
(312,685,o),
(266,616,c),
(268,603,l),
(300,715,l),
(166,712,l),
(160,691,l),
(177,691,ls),
(218,691,o),
(226,678,o),
(211,633,cs),
(118,356,l),
(188,356,l),
(256,561,ls),
(278,627,o),
(356,696,o),
(411,696,cs),
(441,696,o),
(455,675,o),
(442,637,cs),
(378,448,ls),
(356,383,o),
(367,345,o),
(419,345,cs)
);
}
);
userData = {
RMXScaler = {
height = 80.7;
verticalShift = 356;
weight = -4;
width = 85;
};
};
width = 461;
},
{
layerId = m002;
shapes = (
{
closed = 1;
nodes = (
(508,345,o),
(557,373,o),
(584,434,c),
(561,448,l),
(540,413,o),
(523,397,o),
(510,397,cs),
(497,397,o),
(497,408,o),
(509,443,cs),
(557,585,ls),
(588,677,o),
(562,720,o),
(487,720,cs),
(417,720,o),
(342,682,o),
(299,620,c),
(307,599,l),
(340,711,l),
(150,709,l),
(141,680,l),
(158,680,ls),
(198,680,o),
(206,667,o),
(191,623,cs),
(101,356,l),
(230,356,l),
(292,543,ls),
(315,612,o),
(362,659,o),
(407,659,cs),
(432,659,o),
(446,640,o),
(433,602,cs),
(386,464,ls),
(357,379,o),
(381,345,o),
(447,345,cs)
);
}
);
userData = {
RMXScaler = {
height = 78.8;
verticalShift = 356;
weight = -18;
width = 83;
};
};
width = 506;
}
);
userData = {
RMXScaler = {
source = n;
};
};
},
{
color = 6;
glyphname = o.sups;
kernLeft = sups;
kernRight = sups;
layers = (
{
layerId = "9372F035-DA38-4B54-966C-CEBA9B53DD02";
shapes = (
{
closed = 1;
nodes = (
(413,345,o),
(513,472,o),
(513,587,cs),
(513,663,o),
(467,723,o),
(371,723,cs),
(233,723,o),
(131,598,o),
(131,483,cs),
(131,405,o),
(178,345,o),
(274,345,cs)
);
},
{
closed = 1;
nodes = (
(222,367,o),
(201,404,o),
(201,450,cs),
(201,545,o),
(271,702,o),
(372,702,cs),
(422,702,o),
(443,666,o),
(443,618,cs),
(443,522,o),
(373,367,o),
(271,367,cs)
);
}
);
userData = {
RMXScaler = {
height = 80.7;
verticalShift = 356;
weight = -4;
width = 85;
};
};
width = 440;
},
{
layerId = m002;
shapes = (
{
closed = 1;
nodes = (
(415,345,o),
(536,450,o),
(536,581,cs),
(536,672,o),
(474,720,o),
(377,720,cs),
(237,720,o),
(116,615,o),
(116,483,cs),
(116,393,o),
(178,345,o),
(275,345,cs)
);
},
{
closed = 1;
nodes = (
(262,385,o),
(247,402,o),
(247,442,cs),
(247,558,o),
(316,679,o),
(369,679,cs),
(390,679,o),
(405,662,o),
(405,621,cs),
(405,505,o),
(336,385,o),
(283,385,cs)
);
}
);
userData = {
RMXScaler = {
height = 78.8;
verticalShift = 356;
weight = -18;
width = 83;
};
};
width = 452;
}
);
userData = {
RMXScaler = {
source = o;
};
};
},
{
color = 6;
glyphname = p.sups;
kernLeft = sups;
kernRight = sups;
layers = (
{
layerId = "9372F035-DA38-4B54-966C-CEBA9B53DD02";
shapes = (
{
closed = 1;
nodes = (
(184,130,l),
(190,151,l),
(163,151,ls),
(136,151,o),
(131,159,o),
(144,199,cs),
(229,459,l),
(217,482,l),
(205,402,o),
(237,345,o),
(310,345,cs),
(420,345,o),
(528,470,o),
(528,594,cs),
(528,675,o),
(483,723,o),
(414,723,cs),
(357,723,o),
(300,687,o),
(262,620,c),
(278,625,l),
(299,715,l),
(171,712,l),
(164,691,l),
(182,691,ls),
(222,691,o),
(231,679,o),
(216,633,cs),
(74,199,ls),
(62,162,o),
(51,151,o),
(24,151,cs),
(3,151,l),
(-4,130,l)
);
},
{
closed = 1;
nodes = (
(237,373,o),
(220,445,o),
(249,534,cs),
(261,571,ls),
(284,642,o),
(342,695,o),
(393,695,cs),
(432,695,o),
(455,665,o),
(455,605,cs),
(455,491,o),
(375,373,o),
(299,373,cs)
);
}
);
userData = {
RMXScaler = {
height = 80.7;
verticalShift = 356;
weight = -4;
width = 85;
};
};
width = 453;
},
{
layerId = m002;
shapes = (
{
closed = 1;
nodes = (
(231,135,l),
(239,164,l),
(223,164,ls),
(181,164,o),
(174,179,o),
(189,225,cs),
(273,483,l),
(245,475,l),
(233,396,o),
(275,345,o),
(349,345,cs),
(463,345,o),
(568,463,o),
(568,590,cs),
(568,672,o),
(524,720,o),
(455,720,cs),
(391,720,o),
(331,676,o),
(290,607,c),
(319,630,l),
(343,711,l),
(151,709,l),
(141,680,l),
(159,680,ls),
(197,680,o),
(206,669,o),
(191,623,cs),
(60,223,ls),
(46,180,o),
(26,164,o),
(-5,164,cs),
(-29,164,l),
(-38,135,l)
);
},
{
closed = 1;
nodes = (
(276,406,o),
(262,454,o),
(289,530,cs),
(300,561,ls),
(321,620,o),
(361,659,o),
(393,659,cs),
(419,659,o),
(434,641,o),
(434,601,cs),
(434,510,o),
(373,406,o),
(318,406,cs)
);
}
);
userData = {
RMXScaler = {
height = 78.8;
verticalShift = 356;
weight = -18;
width = 83;
};
};
width = 482;
}
);
metricRight = o.sups;
userData = {
RMXScaler = {
source = p;
};
};
},
{
color = 6;
glyphname = q.sups;
kernLeft = sups;
kernRight = sups;
layers = (
{
layerId = "9372F035-DA38-4B54-966C-CEBA9B53DD02";
shapes = (
{
closed = 1;
nodes = (
(411,130,l),
(417,151,l),
(390,151,ls),
(361,151,o),
(361,169,o),
(371,199,cs),
(541,712,l),
(472,712,l),
(441,617,l),
(452,620,l),
(455,684,o),
(426,723,o),
(363,723,cs),
(245,723,o),
(125,587,o),
(125,462,cs),
(125,389,o),
(166,345,o),
(235,345,cs),
(301,345,o),
(361,385,o),
(397,455,c),
(388,459,l),
(302,199,ls),
(291,166,o),
(271,151,o),
(241,151,cs),
(216,151,l),
(209,130,l)
);
},
{
closed = 1;
nodes = (
(214,374,o),
(197,404,o),
(197,450,cs),
(197,559,o),
(292,696,o),
(375,696,cs),
(411,696,o),
(433,672,o),
(433,625,cs),
(433,597,o),
(425,560,o),
(412,526,cs),
(380,442,o),
(317,374,o),
(256,374,cs)
);
}
);
userData = {
RMXScaler = {
height = 80.7;
verticalShift = 356;
weight = -4;
width = 85;
};
};
width = 440;
},
{
layerId = m002;
shapes = (
{
closed = 1;
nodes = (
(453,135,l),
(462,164,l),
(450,164,ls),
(402,164,o),
(403,185,o),
(416,225,cs),
(572,709,l),
(446,709,l),
(403,580,l),
(419,579,l),
(448,663,o),
(409,720,o),
(333,720,cs),
(208,720,o),
(109,569,o),
(109,460,cs),
(109,396,o),
(142,345,o),
(213,345,cs),
(278,345,o),
(349,386,o),
(389,462,c),
(366,460,l),
(286,223,ls),
(272,182,o),
(256,164,o),
(223,164,cs),
(200,164,l),
(191,135,l)
);
},
{
closed = 1;
nodes = (
(258,405,o),
(243,420,o),
(243,452,cs),
(243,518,o),
(303,658,o),
(366,658,cs),
(389,658,o),
(403,640,o),
(403,607,cs),
(403,586,o),
(397,561,o),
(388,532,cs),
(369,471,o),
(330,405,o),
(281,405,cs)
);
}
);
userData = {
RMXScaler = {
height = 78.8;
verticalShift = 356;
weight = -18;
width = 83;
};
};
width = 471;
}
);
metricLeft = o.sups;
userData = {
RMXScaler = {
source = q;
};
};
},
{
color = 6;
glyphname = r.sups;
kernLeft = sups;
kernRight = sups;
layers = (
{
layerId = "9372F035-DA38-4B54-966C-CEBA9B53DD02";
shapes = (
{
closed = 1;
nodes = (
(190,356,l),
(239,503,ls),
(277,617,o),
(325,687,o),
(365,687,cs),
(380,687,o),
(386,677,o),
(389,661,cs),
(394,635,o),
(408,625,o),
(428,625,cs),
(448,625,o),
(469,638,o),
(468,667,cs),
(467,696,o),
(442,723,o),
(398,723,cs),
(340,723,o),
(288,670,o),
(246,568,c),
(254,570,l),
(292,715,l),
(166,712,l),
(159,691,l),
(177,691,ls),
(217,691,o),
(226,679,o),
(211,633,cs),
(120,356,l)
);
}
);
userData = {
RMXScaler = {
height = 80.7;
verticalShift = 356;
weight = -4;
width = 85;
};
};
width = 343;
},
{
layerId = m002;
shapes = (
{
closed = 1;
nodes = (
(230,356,l),
(277,499,ls),
(310,599,o),
(352,662,o),
(390,662,cs),
(402,662,o),
(403,657,o),
(403,628,cs),
(403,599,o),
(417,583,o),
(448,583,cs),
(492,583,o),
(517,614,o),
(517,653,cs),
(517,694,o),
(486,720,o),
(439,720,cs),
(360,720,o),
(291,641,o),
(266,519,c),
(291,560,l),
(331,711,l),
(150,709,l),
(141,680,l),
(159,680,ls),
(198,680,o),
(206,667,o),
(191,623,cs),
(101,356,l)
);
}
);
userData = {
RMXScaler = {
height = 78.8;
verticalShift = 356;
weight = -18;
width = 83;
};
};
width = 385;
}
);
metricLeft = n.sups;
userData = {
RMXScaler = {
source = r;
};
};
},
{
color = 6;
glyphname = s.sups;
kernLeft = sups;
kernRight = sups;
layers = (
{
layerId = "9372F035-DA38-4B54-966C-CEBA9B53DD02";
shapes = (
{
closed = 1;
nodes = (
(298,345,o),
(362,395,o),
(362,456,cs),
(362,486,o),
(347,512,o),
(311,548,cs),
(276,583,ls),
(259,600,o),
(245,624,o),
(245,649,cs),
(245,681,o),
(270,703,o),
(306,703,cs),
(328,703,o),
(342,693,o),
(342,668,cs),
(342,652,ls),
(342,632,o),
(356,618,o),
(375,618,cs),
(398,618,o),
(415,635,o),
(415,659,cs),
(415,696,o),
(373,723,o),
(312,723,cs),
(238,723,o),
(189,682,o),
(189,621,cs),
(189,591,o),
(202,559,o),
(228,532,cs),
(261,498,ls),
(284,474,o),
(296,451,o),
(296,429,cs),
(296,393,o),
(263,365,o),
(221,365,cs),
(181,365,o),
(161,391,o),
(170,418,cs),
(174,430,ls),
(183,457,o),
(168,478,o),
(143,478,cs),
(117,478,o),
(101,459,o),
(101,432,cs),
(101,384,o),
(154,345,o),
(221,345,cs)
);
}
);
userData = {
RMXScaler = {
height = 80.7;
verticalShift = 356;
weight = -4;
width = 85;
};
};
width = 317;
},
{
layerId = m002;
shapes = (
{
closed = 1;
nodes = (
(342,345,o),
(415,391,o),
(415,452,cs),
(415,478,o),
(400,509,o),
(368,540,cs),
(317,590,ls),
(295,612,o),
(282,635,o),
(282,656,cs),
(282,676,o),
(297,688,o),
(324,688,cs),
(351,688,o),
(358,675,o),
(357,655,cs),
(356,635,ls),
(354,595,o),
(381,579,o),
(408,579,cs),
(442,579,o),
(467,603,o),
(467,636,cs),
(467,686,o),
(411,720,o),
(326,720,cs),
(230,720,o),
(170,679,o),
(170,614,cs),
(170,587,o),
(183,556,o),
(208,532,cs),
(253,488,ls),
(283,459,o),
(297,434,o),
(297,414,cs),
(297,392,o),
(277,376,o),
(243,376,cs),
(216,376,o),
(194,389,o),
(200,419,cs),
(202,429,ls),
(209,464,o),
(187,491,o),
(150,491,cs),
(116,491,o),
(90,467,o),
(90,435,cs),
(90,384,o),
(159,345,o),
(245,345,cs)
);
}
);
userData = {
RMXScaler = {
height = 78.8;
verticalShift = 356;
weight = -18;
width = 83;
};
};
width = 363;
}
);
userData = {
RMXScaler = {
source = s;
};
};
},
{
color = 6;
glyphname = t.sups;
kernLeft = sups;
kernRight = sups;
layers = (
{
layerId = "9372F035-DA38-4B54-966C-CEBA9B53DD02";
shapes = (
{
closed = 1;
nodes = (
(243,345,o),
(286,372,o),
(313,418,c),
(297,429,l),
(277,396,o),
(252,376,o),
(232,376,cs),
(213,376,o),
(207,392,o),
(218,426,cs),
(344,811,l),
(275,811,l),
(156,448,ls),
(134,381,o),
(146,345,o),
(198,345,cs)
);
},
{
closed = 1;
nodes = (
(247,690,l),
(255,712,l),
(183,712,l),
(176,690,l)
);
},
{
closed = 1;
nodes = (
(380,690,l),
(387,712,l),
(291,712,l),
(282,690,l)
);
}
);
userData = {
RMXScaler = {
height = 80.7;
verticalShift = 356;
weight = -4;
width = 85;
};
};
width = 268;
},
{
layerId = m002;
shapes = (
{
closed = 1;
nodes = (
(284,345,o),
(332,372,o),
(362,434,c),
(339,449,l),
(317,413,o),
(298,397,o),
(279,397,cs),
(260,397,o),
(257,413,o),
(267,443,cs),
(393,825,l),
(263,825,l),
(144,464,ls),
(116,379,o),
(142,345,o),
(217,345,cs)
);
},
{
closed = 1;
nodes = (
(253,674,l),
(265,709,l),
(168,709,l),
(157,674,l)
);
},
{
closed = 1;
nodes = (
(434,674,l),
(446,709,l),
(321,709,l),
(308,674,l)
);
}
);
userData = {
RMXScaler = {
height = 78.8;
verticalShift = 356;
weight = -18;
width = 83;
};
};
width = 304;
}
);
userData = {
RMXScaler = {
source = t;
};
};
},
{
color = 6;
glyphname = u.sups;
kernLeft = sups;
kernRight = sups;
layers = (
{
layerId = "9372F035-DA38-4B54-966C-CEBA9B53DD02";
shapes = (
{
closed = 1;
nodes = (
(285,345,o),
(342,380,o),
(388,446,c),
(382,450,l),
(358,381,o),
(373,345,o),
(423,345,cs),
(463,345,o),
(500,370,o),
(528,420,c),
(511,430,l),
(494,398,o),
(468,376,o),
(450,376,cs),
(435,376,o),
(431,392,o),
(443,428,cs),
(538,712,l),
(472,712,l),
(401,512,ls),
(374,436,o),
(298,372,o),
(250,372,cs),
(219,372,o),
(206,399,o),
(222,446,cs),
(313,714,l),
(169,712,l),
(162,690,l),
(184,690,ls),
(223,690,o),
(234,679,o),
(217,632,cs),
(158,468,ls),
(130,390,o),
(149,345,o),
(222,345,cs)
);
}
);
userData = {
RMXScaler = {
height = 80.7;
verticalShift = 356;
weight = -4;
width = 85;
};
};
width = 468;
},
{
layerId = m002;
shapes = (
{
closed = 1;
nodes = (
(287,345,o),
(365,392,o),
(406,461,c),
(390,463,l),
(363,384,o),
(382,345,o),
(449,345,cs),
(511,345,o),
(554,377,o),
(579,433,c),
(555,449,l),
(536,412,o),
(522,397,o),
(510,397,cs),
(496,397,o),
(494,412,o),
(504,442,cs),
(594,709,l),
(464,709,l),
(408,537,ls),
(382,457,o),
(333,406,o),
(291,406,cs),
(265,406,o),
(254,425,o),
(265,458,cs),
(348,708,l),
(149,706,l),
(140,677,l),
(157,677,ls),
(196,677,o),
(204,666,o),
(189,620,cs),
(141,474,ls),
(112,386,o),
(137,345,o),
(210,345,cs)
);
}
);
userData = {
RMXScaler = {
height = 78.8;
verticalShift = 356;
weight = -18;
width = 83;
};
};
width = 495;
}
);
metricRight = i.sups;
userData = {
RMXScaler = {
source = u;
};
};
},
{
color = 6;
glyphname = v.sups;
kernLeft = sups;
kernRight = sups;
layers = (
{
layerId = "9372F035-DA38-4B54-966C-CEBA9B53DD02";
shapes = (
{
closed = 1;
nodes = (
(270,347,l),
(423,516,ls),
(490,590,o),
(512,626,o),
(512,662,cs),
(512,699,o),
(490,723,o),
(461,723,cs),
(438,723,o),
(419,706,o),
(419,687,cs),
(419,678,o),
(421,673,o),
(429,658,cs),
(440,638,o),
(444,627,o),
(444,612,cs),
(444,584,o),
(424,549,o),
(391,512,cs),
(280,387,l),
(305,396,l),
(282,457,ls),
(253,534,o),
(243,572,o),
(243,609,cs),
(243,652,o),
(265,681,o),
(316,703,c),
(311,719,l),
(278,714,o),
(245,712,o),
(177,712,c),
(170,691,l),
(279,691,l),
(268,701,l),
(195,661,o),
(164,625,o),
(164,579,cs),
(164,552,o),
(172,525,o),
(200,471,cs),
(235,403,o),
(245,382,o),
(254,347,c)
);
}
);
userData = {
RMXScaler = {
height = 80.7;
verticalShift = 356;
weight = -4;
width = 85;
};
};
width = 411;
},
{
layerId = m002;
shapes = (
{
closed = 1;
nodes = (
(277,347,l),
(450,535,ls),
(496,585,o),
(520,630,o),
(520,662,cs),
(520,699,o),
(496,720,o),
(461,720,cs),
(423,720,o),
(392,696,o),
(392,669,cs),
(392,659,o),
(394,650,o),
(405,625,cs),
(414,604,o),
(417,593,o),
(417,583,cs),
(417,561,o),
(403,534,o),
(384,512,cs),
(284,396,l),
(348,442,l),
(330,470,ls),
(285,540,o),
(276,571,o),
(276,608,cs),
(276,652,o),
(293,679,o),
(328,692,c),
(321,716,l),
(279,711,o),
(244,709,o),
(160,709,c),
(149,680,l),
(280,680,l),
(269,692,l),
(178,653,o),
(139,617,o),
(139,571,cs),
(139,542,o),
(155,507,o),
(192,452,cs),
(227,400,o),
(241,375,o),
(250,347,c)
);
}
);
userData = {
RMXScaler = {
height = 78.8;
verticalShift = 356;
weight = -18;
width = 83;
};
};
width = 399;
}
);
userData = {
RMXScaler = {
source = v;
};
};
},
{
color = 6;
glyphname = w.sups;
kernLeft = sups;
kernRight = sups;
layers = (
{
layerId = "9372F035-DA38-4B54-966C-CEBA9B53DD02";
shapes = (
{
closed = 1;
nodes = (
(270,347,l),
(412,516,ls),
(454,566,o),
(477,612,o),
(477,654,cs),
(477,696,o),
(455,723,o),
(427,723,cs),
(407,723,o),
(388,705,o),
(388,686,cs),
(388,678,o),
(392,670,o),
(401,654,cs),
(417,626,o),
(421,611,o),
(421,595,cs),
(421,568,o),
(407,540,o),
(381,509,cs),
(279,387,l),
(304,398,l),
(281,457,ls),
(251,534,o),
(243,573,o),
(243,609,cs),
(243,652,o),
(266,680,o),
(316,703,c),
(311,719,l),
(278,714,o),
(244,712,o),
(177,712,c),
(170,691,l),
(279,691,l),
(268,701,l),
(195,661,o),
(164,625,o),
(164,579,cs),
(164,549,o),
(174,521,o),
(200,471,cs),
(238,398,o),
(246,378,o),
(254,347,c)
);
},
{
closed = 1;
nodes = (
(505,347,l),
(647,516,ls),
(694,572,o),
(715,616,o),
(715,656,cs),
(715,697,o),
(693,723,o),
(665,723,cs),
(641,723,o),
(624,707,o),
(624,687,cs),
(624,679,o),
(626,674,o),
(636,654,cs),
(649,628,o),
(656,613,o),
(656,595,cs),
(656,568,o),
(642,540,o),
(616,509,cs),
(514,387,l),
(540,398,l),
(515,457,ls),
(482,535,o),
(475,562,o),
(475,599,cs),
(475,645,o),
(501,677,o),
(555,701,c),
(545,719,l),
(504,705,o),
(463,671,o),
(450,638,c),
(420,555,l),
(421,516,o),
(432,483,o),
(458,428,cs),
(477,388,o),
(484,366,o),
(489,347,c)
);
}
);
userData = {
RMXScaler = {
height = 80.7;
verticalShift = 356;
weight = -4;
width = 85;
};
};
width = 618;
},
{
layerId = m002;
shapes = (
{
closed = 1;
nodes = (
(277,347,l),
(426,535,ls),
(464,583,o),
(481,623,o),
(481,654,cs),
(481,694,o),
(460,720,o),
(431,720,cs),
(398,720,o),
(371,697,o),
(371,671,cs),
(371,660,o),
(373,653,o),
(383,631,cs),
(394,607,o),
(397,593,o),
(397,575,cs),
(397,554,o),
(390,535,o),
(372,513,cs),
(275,396,l),
(337,454,l),
(326,471,ls),
(282,539,o),
(271,571,o),
(271,608,cs),
(271,650,o),
(289,677,o),
(328,691,c),
(321,715,l),
(281,711,o),
(241,709,o),
(160,709,c),
(149,680,l),
(280,679,l),
(269,692,l),
(178,653,o),
(139,617,o),
(139,571,cs),
(139,542,o),
(155,507,o),
(192,452,cs),
(227,400,o),
(241,376,o),
(250,347,c)
);
},
{
closed = 1;
nodes = (
(501,347,l),
(649,535,ls),
(704,605,o),
(723,638,o),
(723,665,cs),
(723,699,o),
(699,720,o),
(661,720,cs),
(622,720,o),
(595,699,o),
(595,670,cs),
(595,659,o),
(597,653,o),
(606,631,cs),
(616,607,o),
(620,593,o),
(620,575,cs),
(620,555,o),
(613,535,o),
(595,513,cs),
(499,396,l),
(560,454,l),
(549,471,ls),
(505,539,o),
(495,574,o),
(495,612,cs),
(495,653,o),
(514,678,o),
(548,691,c),
(534,716,l),
(479,694,o),
(439,652,o),
(442,616,c),
(399,536,l),
(403,490,o),
(412,469,o),
(439,419,cs),
(463,374,o),
(469,362,o),
(473,347,c)
);
}
);
userData = {
RMXScaler = {
height = 78.8;
verticalShift = 356;
weight = -18;
width = 83;
};
};
width = 601;
}
);
metricLeft = v.sups;
metricRight = v.sups;
userData = {
RMXScaler = {
source = w;
};
};
},
{
color = 6;
glyphname = x.sups;
kernLeft = sups;
kernRight = sups;
layers = (
{
layerId = "9372F035-DA38-4B54-966C-CEBA9B53DD02";
shapes = (
{
closed = 1;
nodes = (
(227,347,o),
(280,381,o),
(321,439,c),
(304,443,l),
(313,378,o),
(348,347,o),
(397,347,cs),
(449,347,o),
(494,382,o),
(520,434,c),
(505,445,l),
(486,405,o),
(446,375,o),
(412,375,cs),
(382,375,o),
(364,401,o),
(364,452,cs),
(364,564,o),
(435,703,o),
(493,703,cs),
(509,703,o),
(517,693,o),
(517,672,cs),
(517,650,ls),
(517,629,o),
(532,613,o),
(552,613,cs),
(576,613,o),
(593,632,o),
(593,658,cs),
(593,695,o),
(558,723,o),
(509,723,cs),
(454,723,o),
(403,692,o),
(358,631,c),
(375,624,l),
(369,689,o),
(337,723,o),
(284,723,cs),
(230,723,o),
(183,689,o),
(157,634,c),
(172,623,l),
(192,665,o),
(231,695,o),
(264,695,cs),
(295,695,o),
(312,668,o),
(312,611,cs),
(312,500,o),
(243,367,o),
(184,367,cs),
(168,367,o),
(160,378,o),
(160,397,cs),
(160,417,ls),
(160,441,o),
(147,457,o),
(126,457,cs),
(102,457,o),
(84,438,o),
(84,412,cs),
(84,374,o),
(120,347,o),
(169,347,cs)
);
}
);
userData = {
RMXScaler = {
height = 80.7;
verticalShift = 356;
weight = -4;
width = 85;
};
};
width = 473;
},
{
layerId = m002;
shapes = (
{
closed = 1;
nodes = (
(239,344,o),
(303,382,o),
(330,435,c),
(305,451,l),
(303,381,o),
(337,345,o),
(397,345,cs),
(456,345,o),
(509,381,o),
(541,443,c),
(520,459,l),
(489,413,o),
(458,393,o),
(433,393,cs),
(409,393,o),
(396,413,o),
(396,457,cs),
(396,543,o),
(453,688,o),
(489,688,cs),
(498,688,o),
(504,680,o),
(501,653,cs),
(499,635,ls),
(495,599,o),
(512,575,o),
(542,575,cs),
(574,575,o),
(597,602,o),
(597,637,cs),
(597,685,o),
(555,720,o),
(499,720,cs),
(441,720,o),
(375,680,o),
(350,629,c),
(376,614,l),
(378,682,o),
(344,719,o),
(283,719,cs),
(222,719,o),
(170,680,o),
(140,622,c),
(161,606,l),
(193,650,o),
(223,671,o),
(248,671,cs),
(271,671,o),
(285,651,o),
(285,607,cs),
(285,518,o),
(228,376,o),
(190,376,cs),
(181,376,o),
(174,385,o),
(178,413,cs),
(181,434,ls),
(186,469,o),
(165,489,o),
(139,489,cs),
(108,489,o),
(84,462,o),
(84,428,cs),
(84,380,o),
(126,344,o),
(182,344,cs)
);
}
);
userData = {
RMXScaler = {
height = 78.8;
verticalShift = 356;
weight = -18;
width = 83;
};
};
width = 480;
}
);
userData = {
RMXScaler = {
source = x;
};
};
},
{
color = 6;
glyphname = y.sups;
kernLeft = sups;
kernRight = sups;
layers = (
{
layerId = "9372F035-DA38-4B54-966C-CEBA9B53DD02";
shapes = (
{
closed = 1;
nodes = (
(136,119,o),
(183,154,o),
(281,271,cs),
(394,406,ls),
(471,498,o),
(500,565,o),
(500,637,cs),
(500,690,o),
(478,723,o),
(448,723,cs),
(426,723,o),
(404,704,o),
(404,685,cs),
(404,672,o),
(410,665,o),
(430,646,cs),
(446,631,o),
(455,615,o),
(455,585,cs),
(455,539,o),
(431,486,o),
(384,428,cs),
(324,354,l),
(347,368,l),
(307,451,ls),
(262,544,o),
(250,581,o),
(250,617,cs),
(250,655,o),
(268,681,o),
(318,703,c),
(313,719,l),
(280,714,o),
(246,712,o),
(179,712,c),
(172,691,l),
(286,691,l),
(278,704,l),
(200,661,o),
(172,629,o),
(172,583,cs),
(172,550,o),
(187,523,o),
(238,444,cs),
(269,396,o),
(286,363,o),
(286,335,cs),
(286,314,o),
(276,290,o),
(252,266,cs),
(190,203,ls),
(172,185,o),
(154,174,o),
(136,174,cs),
(116,174,o),
(101,183,o),
(88,192,cs),
(72,203,o),
(61,209,o),
(44,209,cs),
(21,209,o),
(0,191,o),
(0,165,cs),
(0,137,o),
(26,119,o),
(63,119,cs)
);
}
);
userData = {
RMXScaler = {
height = 80.7;
verticalShift = 356;
weight = -4;
width = 85;
};
};
width = 413;
},
{
layerId = m002;
shapes = (
{
closed = 1;
nodes = (
(106,113,o),
(144,142,o),
(275,290,cs),
(360,386,ls),
(507,552,o),
(528,588,o),
(528,638,cs),
(528,689,o),
(495,720,o),
(453,720,cs),
(420,720,o),
(392,699,o),
(392,673,cs),
(392,659,o),
(400,648,o),
(418,630,cs),
(435,613,o),
(443,597,o),
(443,574,cs),
(443,557,o),
(435,539,o),
(417,515,cs),
(337,408,l),
(366,433,l),
(343,472,ls),
(300,545,o),
(286,592,o),
(286,628,cs),
(286,660,o),
(302,682,o),
(329,692,c),
(321,715,l),
(281,711,o),
(241,709,o),
(161,709,c),
(151,680,l),
(281,679,l),
(269,691,l),
(185,654,o),
(154,623,o),
(154,575,cs),
(154,558,o),
(148,580,o),
(214,462,cs),
(242,412,o),
(253,382,o),
(253,354,cs),
(253,321,o),
(240,293,o),
(214,267,cs),
(190,243,ls),
(163,216,o),
(152,209,o),
(139,209,cs),
(129,209,o),
(113,212,o),
(99,219,cs),
(66,235,o),
(54,238,o),
(39,238,cs),
(5,238,o),
(-19,213,o),
(-19,177,cs),
(-19,137,o),
(10,113,o),
(56,113,cs)
);
}
);
userData = {
RMXScaler = {
height = 78.8;
verticalShift = 356;
weight = -18;
width = 83;
};
};
width = 419;
}
);
userData = {
RMXScaler = {
source = y;
};
};
},
